<?xml version="1.0" encoding="UTF-8" standalone="no"?>
<!-- 2016-12-07 16:36:37 Generated by QCAD SVG Exporter -->

<svg
   xmlns:dc="http://purl.org/dc/elements/1.1/"
   xmlns:cc="http://creativecommons.org/ns#"
   xmlns:rdf="http://www.w3.org/1999/02/22-rdf-syntax-ns#"
   xmlns:svg="http://www.w3.org/2000/svg"
   xmlns="http://www.w3.org/2000/svg"
   xmlns:sodipodi="http://sodipodi.sourceforge.net/DTD/sodipodi-0.dtd"
   xmlns:inkscape="http://www.inkscape.org/namespaces/inkscape"
   width="319.3356700809145mm"
   height="104.33536877800147mm"
   viewBox="-126.9266773036305 -77.66768438900007 319.3356700809145 104.33536877800147"
   version="1.1"
   style="stroke-linecap:round;stroke-linejoin:round;fill:none"
   id="svg2"
   inkscape:version="0.48.5 r10040"
   sodipodi:docname="body.svg">
  <metadata
     id="metadata284">
    <rdf:RDF>
      <cc:Work
         rdf:about="">
        <dc:format>image/svg+xml</dc:format>
        <dc:type
           rdf:resource="http://purl.org/dc/dcmitype/StillImage" />
      </cc:Work>
    </rdf:RDF>
  </metadata>
  <defs
     id="defs282" />
  <sodipodi:namedview
     pagecolor="#ffffff"
     bordercolor="#666666"
     borderopacity="1"
     objecttolerance="10"
     gridtolerance="10"
     guidetolerance="10"
     inkscape:pageopacity="0"
     inkscape:pageshadow="2"
     inkscape:window-width="640"
     inkscape:window-height="480"
     id="namedview280"
     showgrid="false"
     inkscape:zoom="0.29429849"
     inkscape:cx="565.75214"
     inkscape:cy="184.84612"
     inkscape:window-x="0"
     inkscape:window-y="0"
     inkscape:window-maximized="0"
     inkscape:current-layer="svg2" />
  <rect
     style="fill:#ffffff;fill-opacity:1;stroke:#ffffff;stroke-opacity:1"
     id="rect3261"
     width="1253.8291"
     height="465.51376"
     x="-40.774929"
     y="-34.659145"
     transform="matrix(0.28222224,0,0,0.28222224,-126.92668,-77.667685)"
     ry="72.85714" />
  <g
     transform="scale(1,-1)"
     id="g4">
    <!-- Line -->
    <path
       d="M-118.841007222716,-15.46249244647102 L-118.841007222716,69.53750755352898 "
       style="stroke:#a44646;stroke-width:0.25;"
       id="path6" />
    <!-- Line -->
    <path
       d="M-48.84100722271603,-20.46249244647102 L181.158992777284,-20.46249244647102 "
       style="stroke:#a44646;stroke-width:0.25;"
       id="path8" />
    <!-- Line -->
    <path
       d="M-118.841007222716,69.53750755352898 L-78.84100722271603,69.53750755352898 "
       style="stroke:#a44646;stroke-width:0.25;"
       id="path10" />
    <!-- Line -->
    <path
       d="M-118.841007222716,-15.46249244647102 L-48.84100722271603,-15.46249244647102 "
       style="stroke:#a44646;stroke-width:0.25;"
       id="path12" />
    <!-- Line -->
    <path
       d="M-48.84100722271603,-15.46249244647102 L-48.84100722271603,-20.46249244647102 "
       style="stroke:#a44646;stroke-width:0.25;"
       id="path14" />
    <!-- Line -->
    <path
       d="M11.15899277728397,24.53750755352898 L11.15899277728397,49.53750755352898 "
       style="stroke:#a44646;stroke-width:0.25;"
       id="path16" />
    <!-- Line -->
    <path
       d="M11.15899277728397,24.53750755352898 L-48.84100722271603,24.53750755352898 "
       style="stroke:#a44646;stroke-width:0.25;"
       id="path18" />
    <!-- Line -->
    <path
       d="M-78.84100722271603,69.53750755352898 L-48.84100722271603,24.53750755352898 "
       style="stroke:#a44646;stroke-width:0.25;"
       id="path20" />
    <!-- Line -->
    <path
       d="M181.158992777284,-20.46249244647102 L181.158992777284,24.53750755352898 "
       style="stroke:#a44646;stroke-width:0.25;"
       id="path22" />
    <!-- Line -->
    <path
       d="M116.158992777284,24.53750755352898 L116.158992777284,20.53750755352898 "
       style="stroke:#a44646;stroke-width:0.25;"
       id="path24" />
    <!-- Line -->
    <path
       d="M116.158992777284,20.53750755352898 L41.15899277728397,16.53750755352898 "
       style="stroke:#a44646;stroke-width:0.25;"
       id="path26" />
    <!-- Hatch -->
    <!-- Rotated Dimension -->
    <g
       id="g28">
      <path
         d="M116.158992777284,31.28985480280057 L113.658992777284,30.873570145027728 L113.658992777284,31.70613946057341 Z"
         style="stroke:#a44646;stroke-width:0.25;fill:#a44646;fill-rule:evenodd;"
         id="path30" />
      <path
         d="M41.15899277728397,31.28985480280057 L43.65899277728397,31.70613946057341 L43.65899277728397,30.873570145027728 Z"
         style="stroke:#a44646;stroke-width:0.25;fill:#a44646;fill-rule:evenodd;"
         id="path32" />
      <g
         id="g34">
        <path
           d="M77.13121499950621,34.41485480280057 L78.24232611061731,34.41485480280057 L77.54788166617287,31.91485480280057 M77.68677055506176,33.303743691689455 L78.24232611061731,33.303743691689455"
           style="stroke:#a44646;stroke-width:0.25;"
           id="path36" />
        <path
           d="M80.18677055506176,34.41485480280057 L79.07565944395066,34.41485480280057 L79.07565944395066,33.303743691689455 L79.63121499950621,33.303743691689455 M80.18677055506176,32.748188136133905 C80.18677055506176,33.0550129971339 79.93803986050621,33.303743691689455 79.63121499950621,33.303743691689455 M80.18677055506176,32.748188136133905 L80.18677055506176,32.470410358356126 M79.63121499950621,31.91485480280057 C79.93803986050621,31.91485480280057 80.18677055506176,32.163585497356124 80.18677055506176,32.470410358356126 M79.63121499950621,31.91485480280057 L79.07565944395066,31.91485480280057"
           style="stroke:#a44646;stroke-width:0.25;"
           id="path38" />
      </g>
      <path
         d="M116.158992777284,31.28985480280057 L41.15899277728397,31.28985480280057 M116.158992777284,25.16250755352941 L116.158992777284,32.53985480280057 M41.15899277728397,38.85118117816486 L41.15899277728397,30.03985480280057 "
         style="stroke:#a44646;stroke-width:0.25;"
         id="path40" />
    </g>
    <!-- Line -->
    <path
       d="M181.158992777284,24.53750755352898 L158.158992777284,24.53750755352898 "
       style="stroke:#a44646;stroke-width:0.25;"
       id="path42" />
    <!-- Line -->
    <path
       d="M158.158992777284,24.53750755352898 L158.158992777284,4.537507553528982 "
       style="stroke:#a44646;stroke-width:0.25;"
       id="path44" />
    <!-- Line -->
    <path
       d="M158.158992777284,4.537507553528982 L126.158992777284,4.537507553528982 "
       style="stroke:#a44646;stroke-width:0.25;"
       id="path46" />
    <!-- Line -->
    <path
       d="M126.158992777284,4.537507553528982 L126.158992777284,24.53750755352898 "
       style="stroke:#a44646;stroke-width:0.25;"
       id="path48" />
    <!-- Line -->
    <path
       d="M126.158992777284,24.53750755352898 L116.158992777284,24.53750755352898 "
       style="stroke:#a44646;stroke-width:0.25;"
       id="path50" />
    <!-- Rotated Dimension -->
    <g
       id="g52">
      <path
         d="M126.158992777284,8.372662810784735 L128.658992777284,8.788947468557575 L128.658992777284,7.956378153011895 Z"
         style="stroke:#a44646;stroke-width:0.25;fill:#a44646;fill-rule:evenodd;"
         id="path54" />
      <path
         d="M158.158992777284,8.372662810784735 L155.658992777284,7.956378153011895 L155.658992777284,8.788947468557575 Z"
         style="stroke:#a44646;stroke-width:0.25;fill:#a44646;fill-rule:evenodd;"
         id="path56" />
      <g
         id="g58">
        <path
           d="M140.63121499950623,11.497662810784735 L141.18677055506177,11.497662810784735 M141.18677055506177,10.386551699673625 C141.49359541606177,10.386551699673625 141.74232611061734,10.63528239422918 141.74232611061734,10.94210725522918 C141.74232611061734,11.24893211622918 141.49359541606177,11.497662810784735 141.18677055506177,11.497662810784735 M141.18677055506177,10.386551699673625 L140.908992777284,10.386551699673625 M141.74232611061734,9.83099614411807 C141.74232611061734,10.137821005118068 141.49359541606177,10.386551699673625 141.18677055506177,10.386551699673625 M141.74232611061734,9.83099614411807 L141.74232611061734,9.55321836634029 M141.18677055506177,8.997662810784735 C141.49359541606177,8.997662810784735 141.74232611061734,9.246393505340292 141.74232611061734,9.55321836634029 M141.18677055506177,8.997662810784735 L140.63121499950623,8.997662810784735"
           style="stroke:#a44646;stroke-width:0.25;"
           id="path60" />
        <path
           d="M143.68677055506177,8.997662810784735 L142.57565944395066,8.997662810784735 L143.64927055506178,10.844051699673624 M143.64906911116003,10.843768381165225 L143.64909387999805,10.843720834623964 C143.6730502444117,10.884789280934045 143.68677055506177,10.932540437398737 143.68677055506177,10.98349614411807 C143.68677055506177,11.01781400889829 143.68054728277113,11.050678350554119 143.66918518359026,11.080975600247555 M143.66912332200758,11.081019500522448 L143.66922952502173,11.08114603448906 C143.60741643813762,11.320756765053046 143.3899750292543,11.497662810784735 143.13121499950623,11.497662810784735 C142.87247004686017,11.497662810784735 142.65503890021688,11.320777379927726 142.59328656012264,11.081479682667252"
           style="stroke:#a44646;stroke-width:0.25;"
           id="path62" />
      </g>
      <path
         d="M126.158992777284,8.372662810784735 L158.158992777284,8.372662810784735 M126.158992777284,5.162507553528943 L126.158992777284,9.622662810784735 M158.158992777284,5.162507553529306 L158.158992777284,9.622662810784735 "
         style="stroke:#a44646;stroke-width:0.25;"
         id="path64" />
    </g>
    <!-- Rotated Dimension -->
    <g
       id="g66">
      <path
         d="M158.158992777284,19.53750755352877 L160.658992777284,19.95379221130161 L160.658992777284,19.121222895755928 Z"
         style="stroke:#a44646;stroke-width:0.25;fill:#a44646;fill-rule:evenodd;"
         id="path68" />
      <path
         d="M181.158992777284,19.53750755352877 L178.658992777284,19.121222895755928 L178.658992777284,19.95379221130161 Z"
         style="stroke:#a44646;stroke-width:0.25;fill:#a44646;fill-rule:evenodd;"
         id="path70" />
      <g
         id="g72">
        <path
           d="M169.24232611061734,20.16250755352877 L168.13121499950623,20.16250755352877 L169.20482611061732,22.008896442417658 M169.20462466671557,22.00861312390926 L169.20464943555362,22.008565577367996 C169.22860579996726,22.04963402367808 169.24232611061734,22.097385180142773 169.24232611061734,22.1483408868621 C169.24232611061734,22.18265875164232 169.23610283832667,22.215523093298152 169.22474073914583,22.24582034299159 M169.22467887756312,22.24586424326648 L169.2247850805773,22.245990777233096 C169.16297199369316,22.48560150779708 168.94553058480986,22.66250755352877 168.68677055506177,22.66250755352877 C168.42802560241572,22.66250755352877 168.21059445577245,22.48562212267176 168.14884211567818,22.246324425411284"
           style="stroke:#a44646;stroke-width:0.25;"
           id="path74" />
        <path
           d="M170.07565944395066,22.66250755352877 L170.63121499950623,22.66250755352877 M170.63121499950623,21.55139644241766 C170.93803986050622,21.55139644241766 171.18677055506177,21.800127136973213 171.18677055506177,22.106951997973212 C171.18677055506177,22.413776858973215 170.93803986050622,22.66250755352877 170.63121499950623,22.66250755352877 M170.63121499950623,21.55139644241766 L170.35343722172846,21.55139644241766 M171.18677055506177,20.9958408868621 C171.18677055506177,21.302665747862104 170.93803986050622,21.55139644241766 170.63121499950623,21.55139644241766 M171.18677055506177,20.9958408868621 L171.18677055506177,20.718063109084326 M170.63121499950623,20.16250755352877 C170.93803986050622,20.16250755352877 171.18677055506177,20.411238248084324 171.18677055506177,20.718063109084326 M170.63121499950623,20.16250755352877 L170.07565944395066,20.16250755352877"
           style="stroke:#a44646;stroke-width:0.25;"
           id="path76" />
      </g>
      <path
         d="M158.158992777284,19.53750755352877 L181.158992777284,19.53750755352877 M158.158992777284,23.91250755352868 L158.158992777284,18.28750755352877 M181.158992777284,23.91250755352626 L181.158992777284,18.28750755352877 "
         style="stroke:#a44646;stroke-width:0.25;"
         id="path78" />
    </g>
    <!-- Rotated Dimension -->
    <g
       id="g80">
      <path
         d="M126.158992777284,14.16350448233744 L123.658992777284,13.747219824564601 L123.658992777284,14.57978914011028 Z"
         style="stroke:#a44646;stroke-width:0.25;fill:#a44646;fill-rule:evenodd;"
         id="path82" />
      <path
         d="M116.158992777284,14.16350448233744 L118.658992777284,14.57978914011028 L118.658992777284,13.7472198245646 Z"
         style="stroke:#a44646;stroke-width:0.25;fill:#a44646;fill-rule:evenodd;"
         id="path84" />
      <g
         id="g86">
        <path
           d="M119.908992777284,16.732948926781884 L120.46454833283956,17.28850448233744 L120.46454833283956,14.78850448233744"
           style="stroke:#a44646;stroke-width:0.25;"
           id="path88" />
        <path
           d="M122.10805655359094,17.149566194786967 L122.10808356433758,17.149591884061728 C122.05418353826947,17.233172235121607 121.96027214939426,17.28850448233744 121.85343722172844,17.28850448233744 C121.74667355961779,17.28850448233744 121.65281620043672,17.233246030615167 121.59891211090006,17.149779737384627 M121.5991830637341,17.15042320857797 L121.59913770201366,17.15049512380842 C121.47840735156907,16.98937224737724 121.39325658827404,16.80008171212649 121.3553949278667,16.59466488395376 M121.35551414235279,15.482997833583202 L121.3553187882789,15.482756806583282 C121.39337192433509,15.27666616490784 121.47849470111309,15.087514232893934 121.59912354507101,14.926532733924 M121.5989323334478,14.927265052001834 L121.59890546646677,14.927239515222688 C121.65282391209503,14.843758393932594 121.7466779456487,14.78850448233744 121.85343722172844,14.78850448233744 C121.9602008838391,14.78850448233744 122.05405824302018,14.843762934059715 122.10796233255684,14.927229227290255 M122.10758026861167,14.92658575609691 L122.10762563033211,14.926513840866463 C122.22835598077671,15.087636717297643 122.31350674407173,15.27692725254839 122.35136840447908,15.48234408072112 M122.35095148331585,15.482264875640094 L122.35122512562798,15.480963165001468 C122.38913037899465,15.658490706362068 122.408992777284,15.84187248295034 122.408992777284,16.02989337122633 C122.408992777284,16.03277488730671 122.4089881121773,16.035655313793043 122.40897893736606,16.03848873259392 M122.40897686103997,16.03799626662628 L122.40897703014629,16.03794717130728 C122.40898758100774,16.041034527666785 122.408992777284,16.044074453729994 122.408992777284,16.047115593448552 C122.408992777284,16.2352509315 122.38910619084282,16.418741508418172 122.35148459636169,16.59483095402781 M122.35120670885786,16.59424022720932 L122.35140225663343,16.594481473527235 C122.3133721646931,16.800245230804485 122.22842087745862,16.989116573423434 122.10805875546444,17.149916785192598 M121.29789758241691,16.0390126980486 L121.2978974133106,16.0390617933676 C121.29788686244915,16.035974437008093 121.29788166617288,16.032934510944887 121.29788166617288,16.02989337122633 C121.29788166617288,15.841599921905711 121.31780169252711,15.657959044028546 121.35548507343107,15.481731829071357 M121.35592296014103,16.594744089034787 L121.3556493178289,16.596045799673412 C121.31774406446223,16.41851825831281 121.29788166617288,16.235136481724542 121.29788166617288,16.047115593448552 C121.29788166617288,16.044058223247234 121.29788691806193,16.041002079690326 121.29789724660735,16.037995823653258"
           style="stroke:#a44646;stroke-width:0.25;"
           id="path90" />
      </g>
      <path
         d="M126.158992777284,14.16350448233744 L116.158992777284,14.16350448233744 M126.158992777284,23.91250755352828 L126.158992777284,12.91350448233744 M116.158992777284,23.91250755352941 L116.158992777284,12.91350448233744 "
         style="stroke:#a44646;stroke-width:0.25;"
         id="path92" />
    </g>
    <!-- Rotated Dimension -->
    <g
       id="g94">
      <path
         d="M164.7607715314054,24.53750755352868 L165.17705618917824,22.03750755352868 L164.34448687363255,22.03750755352868 Z"
         style="stroke:#a44646;stroke-width:0.25;fill:#a44646;fill-rule:evenodd;"
         id="path96" />
      <path
         d="M164.7607715314054,4.537507553529306 L164.34448687363255,7.037507553529306 L165.17705618917824,7.037507553529306 Z"
         style="stroke:#a44646;stroke-width:0.25;fill:#a44646;fill-rule:evenodd;"
         id="path98" />
      <g
         id="g100">
        <path
           d="M164.1357715314054,14.120840886862327 L164.1357715314054,13.009729775751214 L162.2893826425165,14.083340886862327 M162.2896659610249,14.083139442960578 L162.28971350756618,14.083164211798604 C162.2486450612561,14.107120576212253 162.2008939047914,14.120840886862327 162.14993819807205,14.120840886862327 C162.11562033329184,14.120840886862327 162.08275599163602,14.11461761457167 162.0524587419426,14.10325551539082 M162.05241484166768,14.103193653808129 L162.05228830770108,14.103299856822296 C161.8126775771371,14.041486769938166 161.6357715314054,13.82404536105484 161.6357715314054,13.565285331306772 C161.6357715314054,13.306540378660715 161.8126569622624,13.089109232017435 162.0519546595229,13.027356891923182"
           style="stroke:#a44646;stroke-width:0.25;"
           id="path102" />
        <path
           d="M161.77470981895587,15.764349107613716 L161.7746841296811,15.764376118360346 C161.69110377862123,15.71047609229224 161.6357715314054,15.616564703417026 161.6357715314054,15.509729775751214 C161.6357715314054,15.402966113640565 161.69102998312766,15.309108754459483 161.7744962763582,15.255204664922829 M161.77385280516486,15.255475617756879 L161.77378088993441,15.255430256036442 C161.9349037663656,15.134699905591843 162.12419430161634,15.049549142296817 162.32961112978907,15.011687481889467 M163.44127818015963,15.011806696375558 L163.44151920715956,15.011611342301666 C163.647609848835,15.049664478357858 163.8367617808489,15.134787255135869 163.99774327981885,15.25541609909378 M163.997010961741,15.255224887470577 L163.99703649852015,15.255198020489544 C164.08051761981025,15.309116466117796 164.1357715314054,15.402970499671476 164.1357715314054,15.509729775751214 C164.1357715314054,15.616493437861866 164.08051307968313,15.710350797042947 163.9970467864526,15.764254886579604 M163.99769025764593,15.76387282263444 L163.99776217287638,15.763918184354877 C163.83663929644518,15.884648534799478 163.64734876119445,15.969799298094502 163.44193193302172,16.00766095850185 M163.44201113810274,16.00724403733863 L163.44331284874136,16.007517679650746 C163.26578530738078,16.045422933017427 163.0824035307925,16.06528533130677 162.89438264251652,16.06528533130677 C162.8915011264361,16.06528533130677 162.8886206999498,16.065280666200074 162.8857872811489,16.065271491388827 M162.88627974711656,16.065269415062748 L162.88632884243555,16.065269584169062 C162.88324148607606,16.065280135030505 162.88020156001284,16.06528533130677 162.87716042029427,16.06528533130677 C162.68902508224284,16.06528533130677 162.50553450532468,16.0453987448656 162.32944505971503,16.007777150384452 M162.33003578653353,16.00749926288063 L162.3297945402156,16.00769481065621 C162.12403078293835,15.969664718715872 161.9351594403194,15.884713431481394 161.77435922855025,15.764351309487218 M162.88526331569423,14.954190136439681 L162.88521422037525,14.954189967333367 C162.88830157673473,14.954179416471925 162.89134150279796,14.95417422019566 162.89438264251652,14.95417422019566 C163.08267609183713,14.95417422019566 163.2663169697143,14.97409424654988 163.44254418467148,15.011777627453847 M162.32953192470805,15.0122155141638 L162.32823021406944,15.011941871851683 C162.50575775543,14.974036618485004 162.6891395320183,14.95417422019566 162.87716042029427,14.95417422019566 C162.8802177904956,14.95417422019566 162.8832739340525,14.95417947208471 162.88628019008956,14.954189800630125"
           style="stroke:#a44646;stroke-width:0.25;"
           id="path104" />
      </g>
      <path
         d="M164.7607715314054,24.53750755352868 L164.7607715314054,4.537507553529306 M158.783992777284,24.53750755352868 L166.0107715314054,24.53750755352868 M158.783992777284,4.537507553529306 L166.0107715314054,4.537507553529306 "
         style="stroke:#a44646;stroke-width:0.25;"
         id="path106" />
    </g>
    <!-- Text: 机身 -->
    <g
       id="g108">
      <path
         d="M65.59873761944237,6.046234278458426 L65.24694361051343,4.635265656357471 L67.09098180969488,4.635265656357471 C66.2398640519783,3.0706271843247297 65.18256695681875,1.6875985349386444 63.90512053785878,0.48617970819921785 L64.13669549802356,-1.1063987365483965 C65.0091625140589,-0.1284996915279315 65.80473827958798,0.9332192716371432 66.52342279461078,2.078758152946831 L64.94557441792944,-4.249645666971315 L66.3984529991027,-4.249645666971315 L68.11214262675661,2.623587620886802 C68.28360352528736,2.1346380983765707 68.46910951089606,1.5339286850068587 68.68611367893942,0.8354293671350974 L69.85872887467825,2.1206681120191346 C69.41120115655708,2.8471074026057672 68.94974100243874,3.5176667477626555 68.48483528968134,4.118376161132369 L68.61371032265531,4.635265656357471 L70.17834879468805,4.635265656357471 L70.53014280361701,6.046234278458426 L68.96550433158427,6.046234278458426 L69.60639638745484,8.616711768226503 L68.15351780628157,8.616711768226503 L67.512625750411,6.046234278458426 Z M67.31987129292945,-3.3555665400954617 L68.25657383572234,-4.417285503260539 C69.17091326046973,-3.3835065128103317 69.8896353258528,-2.293847576930387 70.40577381387291,-1.1762486683355724 C70.93588228825047,-0.05864975974075559 71.39599062939986,1.2824689305730228 71.78958194632037,2.861077388963201 L72.77530179312129,6.814583528117362 L74.75903985587709,6.814583528117362 L72.4149074993505,-2.5872172904365267 C72.18502230539694,-3.5092363900272496 72.59745608100339,-3.984215926180045 73.6731450305259,-3.984215926180045 L74.30179441661049,-3.984215926180045 C74.79074393912072,-3.984215926180045 75.1783453474091,-3.8864260216780013 75.44714554611892,-3.7048161990313413 C75.72639507182663,-3.4812964173123797 75.95665576938269,-3.118076772019064 76.1448938567857,-2.5872172904365267 C76.33313194418872,-2.0563578088539893 76.57706222522022,-1.2460986001227483 76.84177850916676,-0.18437963695767356 L75.60515308883188,0.2347199537653819 C75.23594353490644,-1.2460986001227483 74.99553391323448,-2.098267767926293 74.89089044181459,-2.293847576930387 C74.83856870610464,-2.391637481432435 74.78973007939399,-2.475457399577045 74.71991769796706,-2.531337345006787 C74.65010531654013,-2.5872172904365267 74.55931918039694,-2.6151572631513966 74.44755928953745,-2.6151572631513966 L74.0284596988144,-2.6151572631513966 C73.93066979431235,-2.6151572631513966 73.90617538023653,-2.5453073313642207 73.9375233612302,-2.419577454147305 L76.58120309169628,8.18364219114601 L71.6637678938791,8.18364219114601 L70.3367033651471,2.861077388963201 C69.9431120482266,1.2824689305730228 69.54925787878435,0.09502009019103008 69.16911084317778,-0.7012691321827749 C68.71570586750525,-1.6232882317734978 68.08765728718464,-2.517367358649351 67.31987129292945,-3.3555665400954617 M85.3155521704901,8.756411631800855 C85.13072209136587,8.351282027435234 84.90746516216865,7.960122409427049 84.6737213556133,7.582932777776298 L81.83781412505395,7.582932777776298 L80.19726978638528,1.0030692034243192 L78.63263131435254,1.0030692034243192 L78.29825285042006,-0.33804948688945924 L85.78616553800533,-0.33804948688945924 C83.92887080931118,-1.399768450054534 81.26813288844339,-2.2100276587857772 77.76904558468848,-2.7967670857980544 L78.09822269755406,-4.109945803396963 C80.95476572958744,-3.6349662672441654 83.50374375959575,-2.8247070585129244 85.7486398965783,-1.6651981908458038 C85.99302078193278,-1.525498327271452 86.233918558288,-1.399768450054534 86.47829944364248,-1.2600685864801822 L86.13695476171142,-2.6291272495088327 C86.07425879972408,-2.8805870039426664 85.92766781887164,-3.0202868675170182 85.7181180235101,-3.0202868675170182 L84.33853493276307,-2.9504369357298423 L84.35692678712601,-4.333465585115924 L85.8517153273716,-4.333465585115924 C86.71785448153258,-4.333465585115924 87.26586665558985,-3.8724560353205653 87.49575184954342,-2.9504369357298423 L88.20630608539992,-0.10055971881306158 C89.41060721537465,0.8074893944202275 90.48558270805245,1.8692083575853022 91.45917253614813,3.084597170682164 L90.410897854297,3.866916406698535 C89.95037645918488,3.1404771161119056 89.37457451385373,2.4559477845975795 88.68000890930425,1.7993584257981263 L90.12201603501302,7.582932777776298 L86.2243898412886,7.582932777776298 C86.44071810284748,7.890272477639874 86.63258950069078,8.211582163860882 86.80000403481851,8.546861836439328 Z M81.65014836755854,1.0030692034243192 L81.90441532450718,2.02287820751709 L87.29683005847717,2.02287820751709 L87.04256310152853,1.0030692034243192 Z M82.21092891644528,3.2522370069713866 L82.43384789240027,4.14631613384724 L87.82626262637025,4.14631613384724 L87.60334365041527,3.2522370069713866 Z M82.73687837533906,5.361704946944101 L82.97024667829194,6.2976940328922595 L88.36266141226193,6.2976940328922595 L88.12929310930905,5.361704946944101 Z"
         style="fill:#a44646;fill-rule:evenodd;"
         id="path110" />
    </g>
    <!-- Rotated Dimension -->
    <g
       id="g112">
      <path
         d="M108.4154122839185,24.53750755352941 L107.99912762614566,27.03750755352941 L108.83169694169133,27.03750755352941 Z"
         style="stroke:#a44646;stroke-width:0.25;fill:#a44646;fill-rule:evenodd;"
         id="path114" />
      <path
         d="M108.4154122839185,20.53750755352905 L108.83169694169133,18.03750755352905 L107.99912762614566,18.03750755352905 Z"
         style="stroke:#a44646;stroke-width:0.25;fill:#a44646;fill-rule:evenodd;"
         id="path116" />
      <g
         id="g118">
        <path
           d="M107.7904122839185,22.81528533130701 L106.67930117280739,22.81528533130701 M107.23485672836294,23.231951997973674 L107.23485672836294,21.843063109084788 L105.2904122839185,22.398618664640342"
           style="stroke:#a44646;stroke-width:0.25;"
           id="path120" />
      </g>
      <path
         d="M108.4154122839185,29.53750755352941 L108.4154122839185,15.53750755352905 M115.533992777284,24.53750755352941 L107.1654122839185,24.53750755352941 M115.533992777284,20.53750755352905 L107.1654122839185,20.53750755352905 "
         style="stroke:#a44646;stroke-width:0.25;"
         id="path122" />
    </g>
    <!-- Line -->
    <path
       d="M41.15899277728397,16.53750755352898 L41.15899277728397,39.53750755352898 "
       style="stroke:#a44646;stroke-width:0.25;"
       id="path124" />
    <!-- Line -->
    <path
       d="M11.15899277728397,49.53750755352898 L41.15899277728397,39.53750755352898 "
       style="stroke:#a44646;stroke-width:0.25;"
       id="path126" />
    <!-- Rotated Dimension -->
    <g
       id="g128">
      <path
         d="M35.37891447718437,39.53750755352901 L35.79519913495721,37.03750755352901 L34.962629819411525,37.03750755352901 Z"
         style="stroke:#a44646;stroke-width:0.25;fill:#a44646;fill-rule:evenodd;"
         id="path130" />
      <path
         d="M35.37891447718437,24.53750755352901 L34.962629819411525,27.03750755352901 L35.79519913495721,27.03750755352901 Z"
         style="stroke:#a44646;stroke-width:0.25;fill:#a44646;fill-rule:evenodd;"
         id="path132" />
      <g
         id="g134">
        <path
           d="M32.809470032739924,30.78750755352901 L32.25391447718437,31.343063109084568 L34.75391447718437,31.343063109084568"
           style="stroke:#a44646;stroke-width:0.25;"
           id="path136" />
        <path
           d="M32.25391447718437,33.28750755352901 L32.25391447718437,32.1763964424179 L33.36502558829548,32.1763964424179 L33.36502558829548,32.731951997973454 M33.92058114385103,33.28750755352901 C33.613756282851035,33.28750755352901 33.36502558829548,33.038776858973456 33.36502558829548,32.731951997973454 M33.92058114385103,33.28750755352901 L34.19835892162881,33.28750755352901 M34.75391447718437,32.731951997973454 C34.75391447718437,33.038776858973456 34.50518378262881,33.28750755352901 34.19835892162881,33.28750755352901 M34.75391447718437,32.731951997973454 L34.75391447718437,32.1763964424179"
           style="stroke:#a44646;stroke-width:0.25;"
           id="path138" />
      </g>
      <path
         d="M35.37891447718437,39.53750755352901 L35.37891447718437,24.53750755352901 M40.53399277728397,39.53750755352901 L34.12891447718437,39.53750755352901 M40.53399277728397,24.53750755352901 L34.12891447718437,24.53750755352901 "
         style="stroke:#a44646;stroke-width:0.25;"
         id="path140" />
    </g>
    <!-- Rotated Dimension -->
    <g
       id="g142">
      <path
         d="M-118.8410072227161,-10.46249244647096 L-116.3410072227161,-10.046207788698121 L-116.3410072227161,-10.878777104243802 Z"
         style="stroke:#a44646;stroke-width:0.25;fill:#a44646;fill-rule:evenodd;"
         id="path144" />
      <path
         d="M-48.84100722271603,-10.46249244647096 L-51.34100722271603,-10.8787771042438 L-51.34100722271603,-10.046207788698121 Z"
         style="stroke:#a44646;stroke-width:0.25;fill:#a44646;fill-rule:evenodd;"
         id="path146" />
      <g
         id="g148">
        <path
           d="M-85.36878500049383,-7.337492446470961 L-84.25767388938273,-7.337492446470961 L-84.95211833382717,-9.83749244647096 M-84.81322944493829,-8.448603557582071 L-84.25767388938273,-8.448603557582071"
           style="stroke:#a44646;stroke-width:0.25;"
           id="path150" />
        <path
           d="M-82.61416566863133,-7.476430734021434 L-82.61413865788471,-7.476405044746672 C-82.66803868395282,-7.392824693686796 -82.76195007282803,-7.337492446470961 -82.86878500049383,-7.337492446470961 C-82.97554866260448,-7.337492446470961 -83.06940602178557,-7.392750898193235 -83.12331011132223,-7.476217191423775 M-83.12303915848817,-7.475573720230431 L-83.12308452020861,-7.475501804999982 C-83.24381487065321,-7.636624681431163 -83.32896563394823,-7.825915216681912 -83.36682729435559,-8.03133204485464 M-83.3667080798695,-9.1429990952252 L-83.36690343394338,-9.14324012222512 C-83.32885029788719,-9.34933076390056 -83.24372752110918,-9.538482695914468 -83.12309867715128,-9.699464194884401 M-83.12328988877448,-9.698731876806567 L-83.12331675575551,-9.698757413585714 C-83.06939831012726,-9.782238534875807 -82.97554427657357,-9.83749244647096 -82.86878500049383,-9.83749244647096 C-82.76202133838319,-9.83749244647096 -82.6681639792021,-9.782233994748687 -82.61425988966545,-9.698767701518147 M-82.61464195361062,-9.699411172711491 L-82.61459659189018,-9.699483087941939 C-82.49386624144557,-9.538360211510758 -82.40871547815055,-9.349069676260012 -82.3708538177432,-9.143652848087282 M-82.37127073890642,-9.143732053168307 L-82.37099709659431,-9.145033763806934 C-82.33309184322762,-8.967506222446334 -82.31322944493829,-8.784124445858062 -82.31322944493829,-8.596103557582072 C-82.31322944493829,-8.59322204150169 -82.31323411004497,-8.590341615015358 -82.31324328485623,-8.587508196214483 M-82.3132453611823,-8.588000662182122 L-82.31324519207598,-8.588049757501121 C-82.31323464121455,-8.584962401141615 -82.31322944493829,-8.581922475078407 -82.31322944493829,-8.57888133535985 C-82.31322944493829,-8.3907459973084 -82.33311603137945,-8.207255420390227 -82.3707376258606,-8.031165974780592 M-82.37101551336443,-8.03175670159908 L-82.37081996558884,-8.031515455281168 C-82.40885005752918,-7.8257516980039155 -82.49380134476365,-7.636880355384967 -82.61416346675783,-7.476080143615804 M-83.42432463980536,-8.5869842307598 L-83.42432480891168,-8.5869351354408 C-83.42433535977312,-8.590022491800308 -83.42434055604939,-8.593062417863514 -83.42434055604939,-8.596103557582072 C-83.42434055604939,-8.78439700690269 -83.40442052969517,-8.968037884779855 -83.3667371487912,-9.144265099737044 M-83.36629926208126,-8.031252839773616 L-83.36657290439337,-8.02995112913499 C-83.40447815776005,-8.20747867049559 -83.42434055604939,-8.39086044708386 -83.42434055604939,-8.57888133535985 C-83.42434055604939,-8.58193870556117 -83.42433530416034,-8.584994849118077 -83.42432497561492,-8.588001105155143"
           style="stroke:#a44646;stroke-width:0.25;"
           id="path152" />
      </g>
      <path
         d="M-118.8410072227161,-10.46249244647096 L-48.84100722271603,-10.46249244647096 M-118.8410072227161,-14.83749244647097 L-118.8410072227161,-9.21249244647096 M-48.84100722271603,-14.837492446471 L-48.84100722271603,-9.21249244647096 "
         style="stroke:#a44646;stroke-width:0.25;"
         id="path154" />
    </g>
    <!-- Rotated Dimension -->
    <g
       id="g156">
      <path
         d="M35.30924151042518,24.53750755352901 L35.72552616819802,22.03750755352901 L34.89295685265234,22.03750755352901 Z"
         style="stroke:#a44646;stroke-width:0.25;fill:#a44646;fill-rule:evenodd;"
         id="path158" />
      <path
         d="M35.30924151042518,16.53750755352895 L34.89295685265234,19.03750755352895 L35.72552616819802,19.03750755352895 Z"
         style="stroke:#a44646;stroke-width:0.25;fill:#a44646;fill-rule:evenodd;"
         id="path160" />
      <g
         id="g162">
        <path
           d="M33.850908177091846,19.981951997973425 L34.128685954869624,19.981951997973425 C34.43551081586963,19.981951997973425 34.68424151042518,20.230682692528983 34.68424151042518,20.537507553528982 C34.68424151042518,20.84433241452898 34.43551081586963,21.09306310908454 34.128685954869624,21.09306310908454 L33.850908177091846,21.09306310908454 C33.54408331609185,21.09306310908454 33.295352621536296,20.84433241452898 33.295352621536296,20.537507553528982 C33.295352621536296,20.230682692528983 33.54408331609185,19.981951997973425 33.850908177091846,19.981951997973425 M32.670352621536296,20.05139644241787 L32.80924151042518,20.05139644241787 C33.077713263800185,20.05139644241787 33.295352621536296,20.269035800153983 33.295352621536296,20.537507553528982 C33.295352621536296,20.805979306903982 33.077713263800185,21.023618664640093 32.80924151042518,21.023618664640093 L32.670352621536296,21.023618664640093 C32.40188086816129,21.023618664640093 32.18424151042518,20.805979306903982 32.18424151042518,20.537507553528982 C32.18424151042518,20.269035800153983 32.40188086816129,20.05139644241787 32.670352621536296,20.05139644241787"
           style="stroke:#a44646;stroke-width:0.25;"
           id="path164" />
      </g>
      <path
         d="M35.30924151042518,24.53750755352901 L35.30924151042518,16.53750755352895 M40.53399277728397,24.53750755352901 L34.05924151042518,24.53750755352901 M40.53399277728397,16.53750755352895 L34.05924151042518,16.53750755352895 "
         style="stroke:#a44646;stroke-width:0.25;"
         id="path166" />
    </g>
    <!-- Rotated Dimension -->
    <g
       id="g168">
      <path
         d="M191.158992777284,24.53750755352626 L191.57527743505685,22.03750755352626 L190.74270811951115,22.03750755352626 Z"
         style="stroke:#a44646;stroke-width:0.25;fill:#a44646;fill-rule:evenodd;"
         id="path170" />
      <path
         d="M191.158992777284,-20.46249244647044 L190.74270811951115,-17.96249244647044 L191.57527743505685,-17.96249244647044 Z"
         style="stroke:#a44646;stroke-width:0.25;fill:#a44646;fill-rule:evenodd;"
         id="path172" />
      <g
         id="g174">
        <path
           d="M190.533992777284,1.3430631090834673 L189.42288166617288,1.3430631090834673 M189.97843722172846,1.759729775750134 L189.97843722172846,0.37084088686124517 L188.033992777284,0.9263964424168007"
           style="stroke:#a44646;stroke-width:0.25;"
           id="path176" />
        <path
           d="M188.033992777284,3.704174220194578 L188.033992777284,2.5930631090834675 L189.1451038883951,2.5930631090834675 L189.1451038883951,3.148618664639023 M189.70065944395066,3.704174220194578 C189.39383458295066,3.704174220194578 189.1451038883951,3.455443525639023 189.1451038883951,3.148618664639023 M189.70065944395066,3.704174220194578 L189.97843722172846,3.704174220194578 M190.533992777284,3.1486186646390224 C190.533992777284,3.455443525639023 190.28526208272845,3.704174220194578 189.97843722172846,3.704174220194578 M190.533992777284,3.148618664639023 L190.533992777284,2.5930631090834675"
           style="stroke:#a44646;stroke-width:0.25;"
           id="path178" />
      </g>
      <path
         d="M191.158992777284,24.53750755352626 L191.158992777284,-20.46249244647044 M181.783992777284,24.53750755352626 L192.408992777284,24.53750755352626 M181.7839927772839,-20.46249244647044 L192.408992777284,-20.46249244647044 "
         style="stroke:#a44646;stroke-width:0.25;"
         id="path180" />
    </g>
    <!-- Rotated Dimension -->
    <g
       id="g182">
      <path
         d="M-123.8016773036305,69.537507553529 L-123.38539264585766,67.037507553529 L-124.21796196140333,67.037507553529 Z"
         style="stroke:#a44646;stroke-width:0.25;fill:#a44646;fill-rule:evenodd;"
         id="path184" />
      <path
         d="M-123.8016773036305,-15.462492446470975 L-124.21796196140333,-12.962492446470975 L-123.38539264585766,-12.962492446470975 Z"
         style="stroke:#a44646;stroke-width:0.25;fill:#a44646;fill-rule:evenodd;"
         id="path186" />
      <g
         id="g188">
        <path
           d="M-125.26001063696383,25.509729775751232 L-124.98223285918606,25.509729775751232 C-124.67540799818606,25.509729775751232 -124.4266773036305,25.75846047030679 -124.4266773036305,26.06528533130679 C-124.4266773036305,26.37211019230679 -124.67540799818606,26.620840886862343 -124.98223285918606,26.620840886862343 L-125.26001063696383,26.620840886862343 C-125.56683549796384,26.620840886862343 -125.81556619251938,26.37211019230679 -125.81556619251938,26.06528533130679 C-125.81556619251938,25.75846047030679 -125.56683549796384,25.509729775751232 -125.26001063696383,25.509729775751232 M-126.44056619251938,25.57917422019568 L-126.3016773036305,25.57917422019568 C-126.0332055502555,25.57917422019568 -125.81556619251938,25.79681357793179 -125.81556619251938,26.06528533130679 C-125.81556619251938,26.33375708468179 -126.0332055502555,26.5513964424179 -126.3016773036305,26.5513964424179 L-126.44056619251938,26.5513964424179 C-126.70903794589438,26.5513964424179 -126.9266773036305,26.33375708468179 -126.9266773036305,26.06528533130679 C-126.9266773036305,25.79681357793179 -126.70903794589438,25.57917422019568 -126.44056619251938,25.57917422019568"
           style="stroke:#a44646;stroke-width:0.25;"
           id="path190" />
        <path
           d="M-126.9266773036305,28.56528533130679 L-126.9266773036305,27.45417422019568 L-125.81556619251938,27.45417422019568 L-125.81556619251938,28.009729775751232 M-125.26001063696383,28.56528533130679 C-125.56683549796384,28.56528533130679 -125.81556619251938,28.31655463675123 -125.81556619251938,28.009729775751232 M-125.26001063696383,28.56528533130679 L-124.98223285918606,28.56528533130679 M-124.4266773036305,28.009729775751232 C-124.4266773036305,28.31655463675123 -124.67540799818606,28.56528533130679 -124.98223285918606,28.56528533130679 M-124.4266773036305,28.009729775751232 L-124.4266773036305,27.45417422019568"
           style="stroke:#a44646;stroke-width:0.25;"
           id="path192" />
      </g>
      <path
         d="M-123.8016773036305,69.537507553529 L-123.8016773036305,-15.462492446470975 M-119.466007222716,69.537507553529 L-125.0516773036305,69.537507553529 M-119.4660072227161,-15.46249244647097 L-125.0516773036305,-15.462492446470975 "
         style="stroke:#a44646;stroke-width:0.25;"
         id="path194" />
    </g>
    <!-- Rotated Dimension -->
    <g
       id="g196">
      <path
         d="M-118.841007222716,74.54268438900007 L-116.341007222716,74.9589690467729 L-116.341007222716,74.12639973122724 Z"
         style="stroke:#a44646;stroke-width:0.25;fill:#a44646;fill-rule:evenodd;"
         id="path198" />
      <path
         d="M-78.84100722271603,74.54268438900007 L-81.34100722271603,74.12639973122724 L-81.34100722271603,74.9589690467729 Z"
         style="stroke:#a44646;stroke-width:0.25;fill:#a44646;fill-rule:evenodd;"
         id="path200" />
      <g
         id="g202">
        <path
           d="M-99.53545166716046,75.16768438900007 L-99.53545166716046,76.27879550011119 M-99.11878500049379,75.72323994455563 L-100.50767388938269,75.72323994455563 L-99.95211833382713,77.66768438900007"
           style="stroke:#a44646;stroke-width:0.25;"
           id="path204" />
        <path
           d="M-97.4752767797424,77.5287461014496 L-97.47524976899578,77.52877179072436 C-97.52914979506389,77.61235214178424 -97.62306118393909,77.66768438900007 -97.7298961116049,77.66768438900007 C-97.83665977371555,77.66768438900007 -97.93051713289664,77.6124259372778 -97.9844212224333,77.52895964404726 M-97.98415026959924,77.5296031152406 L-97.98419563131968,77.52967503047105 C-98.10492598176428,77.36855215403988 -98.1900767450593,77.17926161878913 -98.22793840546665,76.9738447906164 M-98.22781919098057,75.86217774024583 L-98.22801454505445,75.86193671324591 C-98.18996140899826,75.65584607157047 -98.10483863222025,75.46669413955657 -97.98420978826233,75.30571264058663 M-97.98440099988554,75.30644495866447 L-97.98442786686658,75.30641942188532 C-97.93050942123833,75.22293830059523 -97.83665538768464,75.16768438900007 -97.7298961116049,75.16768438900007 C-97.62313244949425,75.16768438900007 -97.52927509031318,75.22294284072234 -97.47537100077652,75.30640913395288 M-97.47575306472167,75.30576566275954 L-97.47570770300125,75.30569374752909 C-97.35497735255665,75.46681662396027 -97.26982658926161,75.65610715921102 -97.23196492885427,75.86152398738375 M-97.23238185001749,75.86144478230273 L-97.23210820770538,75.8601430716641 C-97.19420295433869,76.0376706130247 -97.17434055604934,76.22105238961296 -97.17434055604934,76.40907327788896 C-97.17434055604934,76.41195479396934 -97.17434522115605,76.41483522045567 -97.17435439596728,76.41766863925655 M-97.17435647229337,76.41717617328891 L-97.17435630318705,76.41712707796991 C-97.17434575232562,76.42021443432942 -97.17434055604934,76.42325436039262 -97.17434055604934,76.42629550011118 C-97.17434055604934,76.61443083816263 -97.19422714249052,76.79792141508081 -97.23184873697167,76.97401086069044 M-97.2321266244755,76.97342013387195 L-97.23193107669991,76.97366138018987 C-97.26996116864025,77.17942513746712 -97.35491245587473,77.36829648008606 -97.4752745778689,77.52909669185523 M-98.28543575091643,76.41819260471124 L-98.28543592002275,76.41824170003024 C-98.2854464708842,76.41515434367072 -98.28545166716046,76.41211441760751 -98.28545166716046,76.40907327788896 C-98.28545166716046,76.22077982856834 -98.26553164080624,76.03713895069117 -98.22784825990227,75.86091173573399 M-98.22741037319231,76.97392399569742 L-98.22768401550444,76.97522570633605 C-98.26558926887111,76.79769816497544 -98.28545166716046,76.61431638838717 -98.28545166716046,76.42629550011118 C-98.28545166716046,76.42323812990986 -98.28544641527141,76.42018198635296 -98.285436086726,76.41717573031589"
           style="stroke:#a44646;stroke-width:0.25;"
           id="path206" />
      </g>
      <path
         d="M-118.841007222716,74.54268438900007 L-78.84100722271603,74.54268438900007 M-118.841007222716,70.162507553529 L-118.841007222716,75.79268438900007 M-78.84100722271603,70.16250755352903 L-78.84100722271603,75.79268438900007 "
         style="stroke:#a44646;stroke-width:0.25;"
         id="path208" />
    </g>
    <!-- Rotated Dimension -->
    <g
       id="g210">
      <path
         d="M181.158992777284,31.28985480280035 L178.658992777284,30.873570145027507 L178.658992777284,31.70613946057319 Z"
         style="stroke:#a44646;stroke-width:0.25;fill:#a44646;fill-rule:evenodd;"
         id="path212" />
      <path
         d="M116.158992777284,31.28985480280035 L118.658992777284,31.70613946057319 L118.658992777284,30.873570145027507 Z"
         style="stroke:#a44646;stroke-width:0.25;fill:#a44646;fill-rule:evenodd;"
         id="path214" />
      <g
         id="g216">
        <path
           d="M147.96454833283954,34.414774068727034 L147.96434634863536,34.4149778765144 C147.46624931873853,34.12670934552522 147.13121499950623,33.588179599654694 147.13121499950623,32.97139839575297 L147.13121499950623,32.47028728464186 C147.13121499950623,32.16346242364186 147.37994569406177,31.914731729086306 147.68677055506177,31.914731729086306 C147.99359541606177,31.914731729086306 148.24232611061734,32.16346242364186 148.24232611061734,32.47028728464186 L148.24232611061734,32.74806506241964 C148.24232611061734,33.05488992341964 147.99359541606177,33.30362061797519 147.68677055506177,33.30362061797519 L147.16465944395065,33.30362061797519"
           style="stroke:#a44646;stroke-width:0.25;"
           id="path218" />
        <path
           d="M150.18677055506177,34.414731729086306 L149.07565944395066,34.414731729086306 L149.07565944395066,33.30362061797519 L149.63121499950623,33.30362061797519 M150.18677055506177,32.74806506241964 C150.18677055506177,33.05488992341964 149.93803986050622,33.30362061797519 149.63121499950623,33.30362061797519 M150.18677055506177,32.74806506241964 L150.18677055506177,32.47028728464186 M149.63121499950623,31.914731729086306 C149.93803986050622,31.914731729086306 150.18677055506177,32.16346242364186 150.18677055506177,32.47028728464186 M149.63121499950623,31.914731729086306 L149.07565944395066,31.914731729086306"
           style="stroke:#a44646;stroke-width:0.25;"
           id="path220" />
      </g>
      <path
         d="M181.158992777284,31.28985480280035 L116.158992777284,31.28985480280035 M181.158992777284,25.16250755352626 L181.158992777284,32.53985480280035 M116.158992777284,25.16250755352941 L116.158992777284,32.53985480280035 "
         style="stroke:#a44646;stroke-width:0.25;"
         id="path222" />
    </g>
    <!-- Rotated Dimension -->
    <g
       id="g224">
      <path
         d="M-48.84100722271603,-25.41768438900139 L-46.34100722271603,-25.00139973122855 L-46.34100722271603,-25.833969046774232 Z"
         style="stroke:#a44646;stroke-width:0.25;fill:#a44646;fill-rule:evenodd;"
         id="path226" />
      <path
         d="M181.1589927772839,-25.41768438900139 L178.6589927772839,-25.833969046774232 L178.6589927772839,-25.00139973122855 Z"
         style="stroke:#a44646;stroke-width:0.25;fill:#a44646;fill-rule:evenodd;"
         id="path228" />
      <g
         id="g230">
        <path
           d="M64.77010388839506,-24.79268438900139 L63.65899277728394,-24.79268438900139 L64.73260388839505,-22.9462955001125 M64.7324024444933,-22.9465788186209 L64.73242721333133,-22.94662636516216 C64.75638357774498,-22.90555791885208 64.77010388839506,-22.857806762387387 64.77010388839506,-22.80685105566806 C64.77010388839506,-22.772533190887838 64.7638806161044,-22.739668849232007 64.75251851692354,-22.70937159953857 M64.75245665534085,-22.709327699263678 L64.75256285835502,-22.709201165297063 C64.69074977147089,-22.469590434733078 64.47330836258757,-22.29268438900139 64.2145483328395,-22.29268438900139 C63.955803380193444,-22.29268438900139 63.738372233550166,-22.4695698198584 63.67661989345591,-22.708867517118875"
           style="stroke:#a44646;stroke-width:0.25;"
           id="path232" />
        <path
           d="M65.60343722172838,-22.29268438900139 L66.15899277728394,-22.29268438900139 M66.15899277728394,-23.4037955001125 C66.46581763828394,-23.4037955001125 66.7145483328395,-23.155064805556947 66.7145483328395,-22.848239944556948 C66.7145483328395,-22.541415083556945 66.46581763828394,-22.29268438900139 66.15899277728394,-22.29268438900139 M66.15899277728394,-23.4037955001125 L65.88121499950617,-23.4037955001125 M66.7145483328395,-23.95935105566806 C66.7145483328395,-23.652526194668056 66.46581763828394,-23.4037955001125 66.15899277728394,-23.4037955001125 M66.7145483328395,-23.95935105566806 L66.7145483328395,-24.237128833445833 M66.15899277728394,-24.79268438900139 C66.46581763828394,-24.79268438900139 66.7145483328395,-24.543953694445836 66.7145483328395,-24.237128833445833 M66.15899277728394,-24.79268438900139 L65.60343722172838,-24.79268438900139"
           style="stroke:#a44646;stroke-width:0.25;"
           id="path234" />
        <path
           d="M68.35805655359088,-22.431622676551864 L68.35808356433752,-22.431596987277103 C68.30418353826941,-22.348016636217224 68.2102721493942,-22.29268438900139 68.10343722172838,-22.29268438900139 C67.99667355961773,-22.29268438900139 67.90281620043666,-22.347942840723665 67.8489121109,-22.431409133954205 M67.84918306373405,-22.430765662760862 L67.8491377020136,-22.430693747530412 C67.72840735156902,-22.59181662396159 67.64325658827399,-22.78110715921234 67.60539492786664,-22.98652398738507 M67.60551414235273,-24.09819103775563 L67.60531878827884,-24.09843206475555 C67.64337192433503,-24.30452270643099 67.72849470111304,-24.493674638444897 67.84912354507095,-24.654656137414833 M67.84893233344775,-24.653923819337 L67.84890546646672,-24.653949356116144 C67.90282391209497,-24.73743047740624 67.99667794564864,-24.79268438900139 68.10343722172838,-24.79268438900139 C68.21020088383904,-24.79268438900139 68.30405824302012,-24.737425937279117 68.35796233255678,-24.653959644048577 M68.35758026861161,-24.65460311524192 L68.35762563033205,-24.65467503047237 C68.47835598077666,-24.49355215404119 68.56350674407167,-24.30426161879044 68.60136840447902,-24.09884479061771 M68.6009514833158,-24.098923995698737 L68.60122512562792,-24.100225706337362 C68.6391303789946,-23.922698164976765 68.65899277728394,-23.73931638838849 68.65899277728394,-23.551295500112502 C68.65899277728394,-23.54841398403212 68.65898811217724,-23.545533557545788 68.658978937366,-23.542700138744912 M68.65897686103992,-23.54319260471255 L68.65897703014623,-23.54324170003155 C68.65898758100768,-23.540154343672047 68.65899277728394,-23.537114417608837 68.65899277728394,-23.53407327789028 C68.65899277728394,-23.34593793983883 68.63910619084277,-23.16244736292066 68.60148459636163,-22.98635791731102 M68.6012067088578,-22.986948644129512 L68.60140225663338,-22.986707397811596 C68.56337216469305,-22.780943640534346 68.47842087745856,-22.592072297915397 68.35805875546438,-22.431272086146233 M67.54789758241685,-23.54217617329023 L67.54789741331054,-23.54212707797123 C67.54788686244909,-23.545214434330738 67.54788166617283,-23.548254360393944 67.54788166617283,-23.551295500112502 C67.54788166617283,-23.73958894943312 67.56780169252706,-23.923229827310287 67.60548507343101,-24.099457042267474 M67.60592296014097,-22.986444782304044 L67.60564931782885,-22.98514307166542 C67.56774406446218,-23.16267061302602 67.54788166617283,-23.34605238961429 67.54788166617283,-23.53407327789028 C67.54788166617283,-23.537130648091598 67.54788691806188,-23.540186791648505 67.54789724660729,-23.543193047685573"
           style="stroke:#a44646;stroke-width:0.25;"
           id="path236" />
      </g>
      <path
         d="M-48.84100722271603,-25.41768438900139 L181.1589927772839,-25.41768438900139 M-48.84100722271603,-21.08749244647107 L-48.84100722271603,-26.66768438900139 M181.1589927772839,-21.08749244647044 L181.1589927772839,-26.66768438900139 "
         style="stroke:#a44646;stroke-width:0.25;"
         id="path238" />
    </g>
    <!-- Rotated Dimension -->
    <g
       id="g240">
      <path
         d="M-55.18869024505236,-15.462492446471 L-55.604974902825205,-12.962492446471 L-54.77240558727952,-12.962492446471 Z"
         style="stroke:#a44646;stroke-width:0.25;fill:#a44646;fill-rule:evenodd;"
         id="path242" />
      <path
         d="M-55.18869024505236,-20.46249244647107 L-54.77240558727952,-22.96249244647107 L-55.604974902825205,-22.96249244647107 Z"
         style="stroke:#a44646;stroke-width:0.25;fill:#a44646;fill-rule:evenodd;"
         id="path244" />
      <g
         id="g246">
        <path
           d="M-58.31369024505236,-17.40693689091548 L-58.31369024505236,-18.518048002026593 L-57.20257913394125,-18.518048002026593 L-57.20257913394125,-17.962492446471035 M-56.6470235783857,-17.40693689091548 C-56.953848439385695,-17.40693689091548 -57.20257913394125,-17.655667585471036 -57.20257913394125,-17.962492446471035 M-56.6470235783857,-17.40693689091548 L-56.36924580060792,-17.40693689091548 M-55.81369024505236,-17.962492446471035 C-55.81369024505236,-17.655667585471036 -56.06242093960792,-17.40693689091548 -56.36924580060792,-17.40693689091548 M-55.81369024505236,-17.962492446471035 L-55.81369024505236,-18.518048002026593"
           style="stroke:#a44646;stroke-width:0.25;"
           id="path248" />
      </g>
      <path
         d="M-55.18869024505236,-10.462492446471 L-55.18869024505236,-25.46249244647107 M-49.46600722271603,-15.462492446471 L-56.43869024505236,-15.462492446471 M-49.46600722271603,-20.46249244647107 L-56.43869024505236,-20.46249244647107 "
         style="stroke:#a44646;stroke-width:0.25;"
         id="path250" />
    </g>
    <!-- Rotated Dimension -->
    <g
       id="g252">
      <path
         d="M-48.84100722271602,19.537507553529 L-46.34100722271602,19.95379221130184 L-46.34100722271602,19.12122289575616 Z"
         style="stroke:#a44646;stroke-width:0.25;fill:#a44646;fill-rule:evenodd;"
         id="path254" />
      <path
         d="M11.15899277728397,19.537507553529 L8.65899277728397,19.12122289575616 L8.65899277728397,19.95379221130184 Z"
         style="stroke:#a44646;stroke-width:0.25;fill:#a44646;fill-rule:evenodd;"
         id="path256" />
      <g
         id="g258">
        <path
           d="M-19.53545166716047,22.662426819455685 L-19.53565365136468,22.662630627243043 C-20.03375068126149,22.37436209625387 -20.368785000493805,21.835832350383342 -20.368785000493805,21.21905114648162 L-20.368785000493805,20.71794003537051 C-20.368785000493805,20.411115174370508 -20.120054305938247,20.162384479814953 -19.813229444938248,20.162384479814953 C-19.50640458393825,20.162384479814953 -19.257673889382694,20.411115174370508 -19.257673889382694,20.71794003537051 L-19.257673889382694,20.995717813148286 C-19.257673889382694,21.302542674148288 -19.50640458393825,21.551273368703843 -19.813229444938248,21.551273368703843 L-20.33534055604936,21.551273368703843"
           style="stroke:#a44646;stroke-width:0.25;"
           id="path260" />
        <path
           d="M-17.6141656686313,22.52344619226448 L-17.614138657884673,22.523471881539244 C-17.66803868395278,22.607052232599116 -17.761950072827993,22.662384479814953 -17.868785000493805,22.662384479814953 C-17.975548662604453,22.662384479814953 -18.069406021785536,22.60712602809268 -18.12331011132219,22.52365973486214 M-18.12303915848814,22.52430320605548 L-18.12308452020858,22.52437512128593 C-18.24381487065318,22.36325224485475 -18.3289656339482,22.173961709604004 -18.366827294355552,21.968544881431274 M-18.36670807986946,20.856877831060714 L-18.366903433943353,20.856636804060795 C-18.32885029788716,20.650546162385353 -18.24372752110915,20.461394230371447 -18.12309867715124,20.30041273140151 M-18.123289888774444,20.301145049479345 L-18.123316755755475,20.3011195127002 C-18.069398310127223,20.217638391410105 -17.975544276573544,20.162384479814953 -17.868785000493805,20.162384479814953 C-17.762021338383153,20.162384479814953 -17.66816397920207,20.217642931537227 -17.614259889665416,20.301109224767767 M-17.61464195361058,20.300465753574425 L-17.61459659189014,20.300393838343975 C-17.49386624144554,20.461516714775154 -17.408715478150516,20.650807250025903 -17.370853817743168,20.856224078198633 M-17.37127073890639,20.856144873117607 L-17.370997096594273,20.85484316247898 C-17.333091843227592,21.03237070383958 -17.313229444938248,21.215752480427852 -17.313229444938248,21.403773368703842 C-17.313229444938248,21.406654884784224 -17.313234110044945,21.409535311270556 -17.313243284856192,21.41236873007143 M-17.313245361182272,21.411876264103793 L-17.313245192075957,21.411827168784793 C-17.313234641214514,21.414914525144297 -17.313229444938248,21.417954451207507 -17.313229444938248,21.420995590926065 C-17.313229444938248,21.609130928977514 -17.33311603137942,21.792621505895685 -17.370737625860567,21.968710951505322 M-17.37101551336439,21.96812022468683 L-17.370819965588808,21.968361471004748 C-17.408850057529147,22.174125228281998 -17.493801344763625,22.362996570900947 -17.6141634667578,22.52379678267011 M-18.424324639805338,21.412892695526114 L-18.424324808911653,21.412941790845114 C-18.424335359773096,21.409854434485606 -18.42434055604936,21.4068145084224 -18.42434055604936,21.403773368703842 C-18.42434055604936,21.215479919383224 -18.40442052969514,21.031839041506057 -18.366737148791174,20.85561182654887 M-18.36629926208122,21.9686240865123 L-18.366572904393337,21.969925797150925 C-18.404478157760018,21.792398255790324 -18.42434055604936,21.609016479202054 -18.42434055604936,21.420995590926065 C-18.42434055604936,21.417938220724743 -18.42433530416031,21.41488207716784 -18.424324975614894,21.41187582113077"
           style="stroke:#a44646;stroke-width:0.25;"
           id="path262" />
      </g>
      <path
         d="M-48.84100722271602,19.537507553529 L11.15899277728397,19.537507553529 M-48.84100722271602,23.91250755352862 L-48.84100722271602,18.287507553529 M11.15899277728397,23.91250755352903 L11.15899277728397,18.287507553529 "
         style="stroke:#a44646;stroke-width:0.25;"
         id="path264" />
    </g>
    <!-- Rotated Dimension -->
    <g
       id="g266">
      <path
         d="M5.077322272558204,49.53750755352895 L5.493606930331045,47.03750755352895 L4.661037614785363,47.03750755352895 Z"
         style="stroke:#a44646;stroke-width:0.25;fill:#a44646;fill-rule:evenodd;"
         id="path268" />
      <path
         d="M5.077322272558204,24.53750755352903 L4.661037614785364,27.03750755352903 L5.493606930331045,27.03750755352903 Z"
         style="stroke:#a44646;stroke-width:0.25;fill:#a44646;fill-rule:evenodd;"
         id="path270" />
      <g
         id="g272">
        <path
           d="M4.452322272558204,36.620840886862325 L4.452322272558204,35.50972977575121 L2.6059333836693153,36.583340886862324 M2.606216702177714,36.58313944296057 L2.6062642487189756,36.583164211798604 C2.565195802408893,36.60712057621225 2.5174446459442024,36.620840886862325 2.466488939224871,36.620840886862325 C2.4321710744446503,36.620840886862325 2.3993067327888213,36.61461761457167 2.3690094830953843,36.60325551539082 M2.368965582820492,36.60319365380813 L2.368839048853878,36.60329985682229 C2.129228318289893,36.54148676993816 1.9523222725582041,36.324045361054836 1.9523222725582041,36.06528533130677 C1.9523222725582041,35.80654037866071 2.1292077034152124,35.589109232017435 2.3685054006756876,35.527356891923176"
           style="stroke:#a44646;stroke-width:0.25;"
           id="path274" />
        <path
           d="M1.9523222725582041,38.56528533130677 L1.9523222725582041,37.454174220195654 L3.0634333836693153,37.454174220195654 L3.0634333836693153,38.00972977575121 M3.618988939224871,38.56528533130677 C3.3121640782248707,38.56528533130677 3.0634333836693153,38.31655463675121 3.0634333836693153,38.00972977575121 M3.618988939224871,38.56528533130677 L3.8967667170026488,38.56528533130677 M4.452322272558204,38.00972977575121 C4.452322272558204,38.31655463675121 4.203591578002649,38.56528533130677 3.8967667170026488,38.56528533130677 M4.452322272558204,38.00972977575121 L4.452322272558204,37.454174220195654"
           style="stroke:#a44646;stroke-width:0.25;"
           id="path276" />
      </g>
      <path
         d="M5.077322272558204,49.53750755352895 L5.077322272558204,24.53750755352903 M10.53399277728396,49.53750755352895 L3.827322272558204,49.53750755352895 M10.53399277728397,24.53750755352903 L3.827322272558204,24.53750755352903 "
         style="stroke:#a44646;stroke-width:0.25;"
         id="path278" />
    </g>
  </g>
</svg>
