<?xml version="1.0" encoding="UTF-8" standalone="no"?>
<!-- 2016-12-11 20:49:33 Generated by QCAD SVG Exporter -->
<svg
   xmlns:dc="http://purl.org/dc/elements/1.1/"
   xmlns:cc="http://creativecommons.org/ns#"
   xmlns:rdf="http://www.w3.org/1999/02/22-rdf-syntax-ns#"
   xmlns:svg="http://www.w3.org/2000/svg"
   xmlns="http://www.w3.org/2000/svg"
   xmlns:sodipodi="http://sodipodi.sourceforge.net/DTD/sodipodi-0.dtd"
   xmlns:inkscape="http://www.inkscape.org/namespaces/inkscape"
   width="304.99999999999994mm"
   height="300mm"
   viewBox="-152.49999999999997 -150 304.99999999999994 300"
   version="1.1"
   style="stroke-linecap:round;stroke-linejoin:round;fill:none"
   id="svg2"
   inkscape:version="0.48.5 r10040"
   sodipodi:docname="cutting_line.svg">
  <metadata
     id="metadata124">
    <rdf:RDF>
      <cc:Work
         rdf:about="">
        <dc:format>image/svg+xml</dc:format>
        <dc:type
           rdf:resource="http://purl.org/dc/dcmitype/StillImage" />
      </cc:Work>
    </rdf:RDF>
  </metadata>
  <defs
     id="defs122" />
  <sodipodi:namedview
     pagecolor="#ffffff"
     bordercolor="#666666"
     borderopacity="1"
     objecttolerance="10"
     gridtolerance="10"
     guidetolerance="10"
     inkscape:pageopacity="0"
     inkscape:pageshadow="2"
     inkscape:window-width="1100"
     inkscape:window-height="755"
     id="namedview120"
     showgrid="false"
     inkscape:zoom="0.44402965"
     inkscape:cx="514.57342"
     inkscape:cy="487.74404"
     inkscape:window-x="19"
     inkscape:window-y="0"
     inkscape:window-maximized="0"
     inkscape:current-layer="svg2" />
  <rect
     style="fill:#ffffff;fill-opacity:1;stroke:#ffffff;stroke-width:0.28222227;stroke-opacity:1"
     id="rect3101"
     width="311.44067"
     height="304.44916"
     x="-152.5"
     y="-150.63559"
     ry="0.010477378" />
  <g
     transform="matrix(0.95342864,0,0,-0.95342864,1.7903513,0.6355932)"
     id="g4">
    <!-- Line -->
    <path
       d="m -152.5,-145 0,85"
       style="stroke:#a44646;stroke-width:0.26221156"
       id="path6"
       inkscape:connector-curvature="0" />
    <!-- Line -->
    <path
       d="m -82.5,-150 230,0"
       style="stroke:#a44646;stroke-width:0.26221156"
       id="path8"
       inkscape:connector-curvature="0" />
    <!-- Line -->
    <path
       d="m -152.5,-60 40,0"
       style="stroke:#a44646;stroke-width:0.26221156"
       id="path10"
       inkscape:connector-curvature="0" />
    <!-- Line -->
    <path
       d="m -82.5,-145 0,-5"
       style="stroke:#a44646;stroke-width:0.26221156"
       id="path12"
       inkscape:connector-curvature="0" />
    <!-- Line -->
    <path
       d="m -22.5,-105 0,25"
       style="stroke:#a44646;stroke-width:0.26221156"
       id="path14"
       inkscape:connector-curvature="0" />
    <!-- Line -->
    <path
       d="m -22.5,-105 -60,0"
       style="stroke:#a44646;stroke-width:0.26221156"
       id="path16"
       inkscape:connector-curvature="0" />
    <!-- Line -->
    <path
       d="m -112.5,-60 30,-45"
       style="stroke:#a44646;stroke-width:0.26221156"
       id="path18"
       inkscape:connector-curvature="0" />
    <!-- Line -->
    <path
       d="m 152.5,-90 0,45"
       style="stroke:#a44646;stroke-width:0.26221156"
       id="path20"
       inkscape:connector-curvature="0" />
    <!-- Line -->
    <path
       d="m 152.5,-45 0,45"
       style="stroke:#a44646;stroke-width:0.26221156"
       id="path22"
       inkscape:connector-curvature="0" />
    <!-- Line -->
    <path
       d="m 147.5,-150 0,45"
       style="stroke:#a44646;stroke-width:0.26221156"
       id="path24"
       inkscape:connector-curvature="0" />
    <!-- Line -->
    <path
       d="m 152.5,-90 -65,0"
       style="stroke:#a44646;stroke-width:0.26221156"
       id="path26"
       inkscape:connector-curvature="0" />
    <!-- Line -->
    <path
       d="m 152.5,0 -65,0"
       style="stroke:#a44646;stroke-width:0.26221156"
       id="path28"
       inkscape:connector-curvature="0" />
    <!-- Line -->
    <path
       d="m 151.90438,-44.913962 -64.999999,0"
       style="stroke:#a44646;stroke-width:0.26221156"
       id="path30"
       inkscape:connector-curvature="0" />
    <!-- Line -->
    <path
       d="m 82.5,-105 0,-4"
       style="stroke:#a44646;stroke-width:0.26221156"
       id="path32"
       inkscape:connector-curvature="0" />
    <!-- Line -->
    <path
       d="m 82.5,-109 -75,-4"
       style="stroke:#a44646;stroke-width:0.26221156"
       id="path34"
       inkscape:connector-curvature="0" />
    <!-- Line -->
    <path
       d="m -112.5,0 125,0"
       style="stroke:#a44646;stroke-width:0.26221156"
       id="path36"
       inkscape:connector-curvature="0" />
    <!-- Line -->
    <path
       d="m 12.5,0 0,-50"
       style="stroke:#a44646;stroke-width:0.26221156"
       id="path38"
       inkscape:connector-curvature="0" />
    <!-- Line -->
    <path
       d="m -112.5,0 0,-50"
       style="stroke:#a44646;stroke-width:0.26221156"
       id="path40"
       inkscape:connector-curvature="0" />
    <!-- Line -->
    <path
       d="m 12.5,-50 -60,-20"
       style="stroke:#a44646;stroke-width:0.26221156"
       id="path42"
       inkscape:connector-curvature="0" />
    <!-- Line -->
    <path
       d="m -52.5,-70 -60,20"
       style="stroke:#a44646;stroke-width:0.26221156"
       id="path44"
       inkscape:connector-curvature="0" />
    <!-- Line -->
    <path
       d="m -47.5,-70 -5,0"
       style="stroke:#a44646;stroke-width:0.26221156"
       id="path46"
       inkscape:connector-curvature="0" />
    <!-- Line -->
    <path
       d="m 87.5,0 0,-3"
       style="stroke:#a44646;stroke-width:0.26221156"
       id="path48"
       inkscape:connector-curvature="0" />
    <!-- Line -->
    <path
       d="m 87.5,-87 0,-3"
       style="stroke:#a44646;stroke-width:0.26221156"
       id="path50"
       inkscape:connector-curvature="0" />
    <!-- Line -->
    <path
       d="m 12.5,-4 75,1"
       style="stroke:#a44646;stroke-width:0.26221156"
       id="path52"
       inkscape:connector-curvature="0" />
    <!-- Line -->
    <path
       d="m -152.5,75 305,0"
       style="stroke:#a44646;stroke-width:0.26221156"
       id="path54"
       inkscape:connector-curvature="0" />
    <!-- Line -->
    <path
       d="m -152.5,0 305,0"
       style="stroke:#a44646;stroke-width:0.26221156"
       id="path56"
       inkscape:connector-curvature="0" />
    <!-- Line -->
    <path
       d="m 124.5,-105 0,-20"
       style="stroke:#a44646;stroke-width:0.26221156"
       id="path58"
       inkscape:connector-curvature="0" />
    <!-- Line -->
    <path
       d="m 124.5,-125 -32,0"
       style="stroke:#a44646;stroke-width:0.26221156"
       id="path60"
       inkscape:connector-curvature="0" />
    <!-- Line -->
    <path
       d="m 92.5,-125 0,20"
       style="stroke:#a44646;stroke-width:0.26221156"
       id="path62"
       inkscape:connector-curvature="0" />
    <!-- Line -->
    <path
       d="m 92.5,-105 -10,0"
       style="stroke:#a44646;stroke-width:0.26221156"
       id="path64"
       inkscape:connector-curvature="0" />
    <!-- Text: 机翼 -->
    <g
       id="g66">
      <path
         d="m 1.7150007,52.887553 -0.351794,-1.410969 1.8440382,0 C 2.3561272,49.911946 1.2988301,48.528917 0.02138367,47.327498 L 0.25295863,45.73492 c 0.87246697,0.977899 1.66804277,2.039618 2.38672727,3.185157 l -1.5778484,-6.328404 1.4528786,0 1.7136897,6.873233 c 0.1714609,-0.488949 0.3569668,-1.089659 0.573971,-1.788158 l 1.1726152,1.285239 c -0.4475277,0.726439 -0.9089879,1.396998 -1.3738936,1.997708 l 0.1288751,0.516889 1.5646384,0 0.351794,1.410969 -1.5646384,0 0.640892,2.570477 -1.4528786,0 -0.640892,-2.570477 z M 3.4361344,43.485752 4.372837,42.424033 c 0.9143394,1.033779 1.6330615,2.123438 2.1491999,3.241037 0.5301085,1.117599 0.9902169,2.458717 1.3838082,4.037326 l 0.9857198,3.953506 1.9837381,0 -2.3441324,-9.401801 C 8.3012854,43.332082 8.7137192,42.857103 9.7894082,42.857103 l 0.6286498,0 c 0.488949,0 0.87655,0.09779 1.145351,0.279399 0.279249,0.22352 0.50951,0.58674 0.697748,1.117599 0.188238,0.53086 0.432168,1.341119 0.696885,2.402838 l -1.236626,0.419099 c -0.369209,-1.480818 -0.609619,-2.332987 -0.714262,-2.528567 -0.05232,-0.09779 -0.101161,-0.18161 -0.170973,-0.23749 -0.06981,-0.05588 -0.160599,-0.08382 -0.272359,-0.08382 l -0.419099,0 c -0.09779,0 -0.122284,0.06985 -0.09094,0.19558 l 2.64368,10.60322 -4.917435,0 -1.3270645,-5.322565 C 6.0593752,48.123787 5.665521,46.936339 5.285374,46.140049 4.831969,45.21803 4.2039204,44.323951 3.4361344,43.485752 M 16.76262,55.1926 l -0.271683,-1.089658 0.628649,0 -0.537375,-0.6985 c 0.670635,-0.11176 1.327337,-0.279399 1.942166,-0.502919 -0.862543,-0.15367 -1.73209,-0.2794 -2.591188,-0.36322 l 0.01472,-1.117599 c 1.403815,0.25146 2.748229,0.54483 4.033242,0.880109 l -0.177638,-0.712469 1.369058,0 0.898642,3.604256 z m 1.111346,-1.089658 2.556507,0 -0.212469,-0.85217 c -0.384119,-0.08382 -0.768237,-0.167639 -1.180295,-0.251459 l 0.376814,0.558799 c -0.47513,0.22352 -0.988649,0.40513 -1.540557,0.54483 m 4.672228,1.089658 -0.271683,-1.089658 0.75438,0 -0.498986,-0.65659 c 0.656664,-0.11176 1.285426,-0.2794 1.907222,-0.474979 -0.813667,-0.12573 -1.648308,-0.22352 -2.479466,-0.30734 l 7.51e-4,-1.117599 c 1.354939,0.22352 2.660963,0.47498 3.932044,0.754379 l -0.177638,-0.712469 1.369059,0 0.898642,3.604256 z m 1.418686,-1.089658 2.374897,0 -0.205503,-0.82423 -1.058086,-0.209549 0.341908,0.530859 c -0.454156,0.19558 -0.943218,0.36322 -1.453216,0.50292 m -7.02158,-2.724148 -0.933473,-3.743956 1.746248,0 -0.125392,-0.50292 -2.402838,0 -0.25775,-1.033779 2.402838,0 -0.139325,-0.558799 -3.213096,0 -0.264717,-1.061719 3.827777,0 c -1.06846,-0.36322 -2.329054,-0.656589 -3.785266,-0.894079 l 0.269701,-1.159509 c 1.759956,0.39116 3.28935,0.866139 4.60912,1.452879 l -0.381086,0.600709 2.989577,0 -0.537375,-0.698499 c 1.37625,-0.30734 2.661789,-0.75438 3.8601,-1.327149 l 0.722206,1.103629 c -0.953705,0.377189 -1.966736,0.684529 -3.039092,0.922019 l 3.590286,0 0.264717,1.061719 -3.213097,0 0.139324,0.558799 2.472688,0 0.25775,1.033779 -2.472688,0 0.125392,0.50292 1.816098,0 0.933474,3.743956 z m 1.603487,-5.839454 0.139325,0.558799 3.073397,0 -0.139325,-0.558799 z m 3.470472,1.592578 -3.073397,0 0.125392,0.50292 3.073397,0 z m 2.125944,1.466849 -2.612387,0 0.118426,0.474979 2.612387,0 z m -3.925566,0 -2.598417,0 0.118425,0.474979 2.598418,0 z m -2.264039,1.341119 0.114943,0.461009 2.598417,0 -0.114942,-0.461009 z m 4.026539,0.461009 2.612387,0 -0.114942,-0.461009 -2.612388,0 z"
         style="fill:#a44646;fill-rule:evenodd"
         id="path68"
         inkscape:connector-curvature="0" />
    </g>
    <!-- Text: 机翼 -->
    <g
       id="g70">
      <path
         d="m 0.443546,129.17484 -0.35179401,-1.41097 1.84403821,0 c -0.8511178,-1.56464 -1.90841486,-2.94767 -3.1858613,-4.14909 l 0.231575,-1.59258 c 0.87246699,0.9779 1.66804276,2.03962 2.3867273,3.18516 l -1.5778484,-6.3284 1.4528786,0 1.7136896,6.87323 c 0.1714609,-0.48895 0.3569669,-1.08966 0.5739711,-1.78816 l 1.1726152,1.28524 c -0.4475278,0.72644 -0.9089879,1.397 -1.3738936,1.99771 l 0.128875,0.51689 1.5646385,0 0.351794,1.41097 -1.5646385,0 0.6408921,2.57048 -1.4528786,0 -0.6408921,-2.57048 z m 1.7211337,-9.4018 0.9367025,-1.06172 c 0.9143394,1.03378 1.6330615,2.12344 2.1492,3.24103 0.5301085,1.1176 0.9902168,2.45872 1.3838081,4.03733 l 0.9857199,3.95351 1.983738,0 -2.3441323,-9.4018 c -0.2298852,-0.92202 0.1825486,-1.397 1.2582375,-1.397 l 0.6286494,0 c 0.4889495,0 0.8765512,0.0978 1.1453512,0.2794 0.279249,0.22352 0.50951,0.58674 0.697748,1.1176 0.188238,0.53086 0.432169,1.34111 0.696885,2.40283 l -1.236626,0.4191 c -0.369209,-1.48082 -0.6096187,-2.33298 -0.7142622,-2.52856 -0.052322,-0.0978 -0.1011603,-0.18161 -0.1709727,-0.23749 -0.069812,-0.0559 -0.1605985,-0.0838 -0.2723584,-0.0838 l -0.4190996,0 c -0.09779,0 -0.1222843,0.0698 -0.090936,0.19558 l 2.6436789,10.60322 -4.9174343,0 -1.3270646,-5.32257 c -0.3935913,-1.57861 -0.7874454,-2.76606 -1.1675925,-3.56235 -0.453405,-0.92201 -1.0814535,-1.81609 -1.8492395,-2.65429 m 13.3264849,11.70685 -0.271683,-1.08966 0.62865,0 -0.537375,-0.6985 c 0.670634,-0.11176 1.327336,-0.2794 1.942166,-0.50292 -0.862544,-0.15367 -1.732091,-0.2794 -2.591189,-0.36322 l 0.01472,-1.1176 c 1.403815,0.25146 2.748229,0.54483 4.033242,0.88011 l -0.177638,-0.71247 1.369059,0 0.898642,3.60426 z m 1.111346,-1.08966 2.556508,0 -0.21247,-0.85217 c -0.384118,-0.0838 -0.768237,-0.16764 -1.180295,-0.25146 l 0.376814,0.5588 c -0.47513,0.22352 -0.988649,0.40513 -1.540557,0.54483 m 4.672228,1.08966 -0.271682,-1.08966 0.754379,0 -0.498986,-0.65659 c 0.656665,-0.11176 1.285427,-0.2794 1.907222,-0.47498 -0.813667,-0.12573 -1.648308,-0.22352 -2.479466,-0.30734 l 7.51e-4,-1.1176 c 1.354939,0.22352 2.660964,0.47498 3.932045,0.75438 l -0.177639,-0.71247 1.369059,0 0.898642,3.60426 z m 1.418686,-1.08966 2.374898,0 -0.205504,-0.82423 -1.058085,-0.20955 0.341908,0.53086 c -0.454156,0.19558 -0.943219,0.36322 -1.453217,0.50292 m -7.02158,-2.72415 -0.933473,-3.74396 1.746248,0 -0.125392,-0.50292 -2.402838,0 -0.25775,-1.03378 2.402838,0 -0.139324,-0.5588 -3.213097,0 -0.264716,-1.06171 3.827776,0 c -1.06846,-0.36322 -2.329054,-0.65659 -3.785266,-0.89408 l 0.269702,-1.15951 c 1.759955,0.39116 3.28935,0.86614 4.609119,1.45288 l -0.381086,0.60071 2.989577,0 -0.537375,-0.6985 c 1.37625,-0.30734 2.661789,-0.75438 3.860101,-1.32715 l 0.722205,1.10363 c -0.953705,0.37719 -1.966736,0.68453 -3.039092,0.92202 l 3.590287,0 0.264716,1.06171 -3.213097,0 0.139325,0.5588 2.472687,0 0.25775,1.03378 -2.472687,0 0.125392,0.50292 1.816098,0 0.933473,3.74396 z m 1.603487,-5.83946 0.139325,0.5588 3.073397,0 -0.139325,-0.5588 z m 3.470472,1.59258 -3.073397,0 0.125392,0.50292 3.073397,0 z m 2.125945,1.46685 -2.612388,0 0.118426,0.47498 2.612387,0 z m -3.925567,0 -2.598417,0 0.118426,0.47498 2.598417,0 z m -2.264039,1.34112 0.114943,0.46101 2.598417,0 -0.114942,-0.46101 z m 4.026539,0.46101 2.612388,0 -0.114943,-0.46101 -2.612387,0 z"
         style="fill:#a44646;fill-rule:evenodd"
         id="path72"
         inkscape:connector-curvature="0" />
    </g>
    <!-- Text: 尾翼 -->
    <g
       id="g74">
      <path
         d="m -49.413334,-14.988684 -0.289098,-1.159509 -7.543793,0 0.289098,1.159509 z m -8.160303,-2.472688 9.024611,0 0.954372,3.827776 -10.49146,0 -1.19819,-4.805675 c -0.689693,-2.710177 -1.687063,-4.917435 -2.995595,-6.635744 l 0.891272,-1.019809 c 1.622575,2.137408 2.818783,4.693916 3.571172,7.655553 z m 5.949918,-8.465812 c 0.530859,0 0.960371,0.09779 1.267598,0.26543 0.328163,0.19558 0.670033,0.782319 1.032577,1.788158 l -1.170259,0.40513 c -0.163781,-0.54483 -0.331195,-0.880109 -0.502243,-1.005839 -0.132659,-0.08382 -0.314231,-0.1397 -0.537751,-0.1397 l -2.724147,0 c -0.15367,0 -0.185206,0.15367 -0.115544,0.43307 l 0.15674,0.628649 4.829832,0.43307 0.31348,1.257298 -4.829832,-0.433069 0.205504,0.824229 3.914854,0.34925 0.30303,1.215388 -3.911371,-0.335279 0.198537,0.796289 c 1.267673,0.15367 2.535309,0.36322 3.771484,0.614679 l -0.377941,1.117599 c -1.952015,-0.433069 -4.497847,-0.726439 -7.627012,-0.894079 l 0.130002,-1.159509 c 0.876588,0.04191 1.74269,0.09779 2.612275,0.16764 l -0.191571,-0.768349 -2.842724,-0.25146 -0.306513,-1.229359 2.842723,0.25146 -0.208986,-0.838199 -3.499276,-0.30734 -0.309996,-1.243329 3.499275,0.30734 -0.205504,-0.824229 c -0.236851,-0.949959 0.06382,-1.424939 0.902022,-1.424939 z m 6.906769,12.461228 -0.271682,-1.089659 0.628649,0 -0.537375,-0.698499 c 0.670634,-0.11176 1.327336,-0.2794 1.942166,-0.50292 -0.862543,-0.15367 -1.73209,-0.279399 -2.591188,-0.363219 l 0.01472,-1.117599 c 1.403814,0.25146 2.748228,0.544829 4.033242,0.880109 l -0.177639,-0.712469 1.369059,0 0.898642,3.604256 z m 1.111346,-1.089659 2.556508,0 -0.21247,-0.852169 c -0.384118,-0.08382 -0.768236,-0.16764 -1.180295,-0.25146 l 0.376815,0.5588 c -0.47513,0.223519 -0.988649,0.405129 -1.540558,0.544829 m 4.672229,1.089659 -0.271683,-1.089659 0.754379,0 -0.498985,-0.656589 c 0.656664,-0.11176 1.285426,-0.2794 1.907222,-0.47498 -0.813667,-0.12573 -1.648308,-0.22352 -2.479466,-0.307339 l 7.51e-4,-1.117599 c 1.354938,0.223519 2.660963,0.474979 3.932044,0.754379 l -0.177638,-0.712469 1.369058,0 0.898642,3.604256 z m 1.418685,-1.089659 2.374898,0 -0.205503,-0.824229 -1.058086,-0.20955 0.341908,0.53086 c -0.454156,0.195579 -0.943218,0.363219 -1.453217,0.502919 m -7.02158,-2.724147 -0.933473,-3.743957 1.746248,0 -0.125391,-0.502919 -2.402838,0 -0.25775,-1.033779 2.402837,0 -0.139324,-0.558799 -3.213097,0 -0.264716,-1.061719 3.827776,0 c -1.06846,-0.36322 -2.329054,-0.65659 -3.785265,-0.89408 l 0.269701,-1.159508 c 1.759956,0.391159 3.28935,0.866139 4.609119,1.452878 l -0.381085,0.60071 2.989577,0 -0.537375,-0.6985 c 1.37625,-0.307339 2.661789,-0.754379 3.8601,-1.327148 l 0.722205,1.103628 c -0.953705,0.37719 -1.966735,0.68453 -3.039091,0.92202 l 3.590286,0 0.264716,1.061719 -3.213096,0 0.139324,0.558799 2.472688,0 0.25775,1.033779 -2.472688,0 0.125392,0.502919 1.816098,0 0.933473,3.743957 z m 1.603488,-5.839454 0.139324,0.558799 3.073397,0 -0.139324,-0.558799 z m 3.470471,1.592578 -3.073397,0 0.125392,0.502919 3.073397,0 z m 2.125945,1.466849 -2.612387,0 0.118425,0.474979 2.612388,0 z m -3.925566,0 -2.598418,0 0.118426,0.474979 2.598418,0 z m -2.264039,1.341118 0.114942,0.46101 2.598418,0 -0.114943,-0.46101 z m 4.026539,0.46101 2.612387,0 -0.114943,-0.46101 -2.612387,0 z"
         style="fill:#a44646;fill-rule:evenodd"
         id="path76"
         inkscape:connector-curvature="0" />
    </g>
    <!-- Text: 机头加强 -->
    <g
       id="g78">
      <path
         d="m 29.193617,-13.860383 -0.351794,-1.410969 1.844038,0 C 29.834744,-16.835991 28.777446,-18.219019 27.5,-19.420438 l 0.231575,-1.592578 c 0.872467,0.977899 1.668043,2.039618 2.386727,3.185156 l -1.577848,-6.328403 1.452878,0 1.71369,6.873233 c 0.171461,-0.48895 0.356967,-1.089659 0.573971,-1.788158 l 1.172615,1.285238 c -0.447527,0.72644 -0.908988,1.396999 -1.373893,1.997708 l 0.128875,0.51689 1.564638,0 0.351794,1.410969 -1.564638,0 0.640892,2.570477 -1.452879,0 -0.640892,-2.570477 z m 1.721134,-9.401801 0.936702,-1.061719 c 0.91434,1.033779 1.633062,2.123438 2.1492,3.241037 0.530109,1.117599 0.990217,2.458717 1.383808,4.037326 l 0.98572,3.953506 1.983738,0 -2.344132,-9.401801 c -0.229885,-0.922019 0.182549,-1.396999 1.258237,-1.396999 l 0.62865,0 c 0.488949,0 0.876551,0.09779 1.145351,0.2794 0.27925,0.22352 0.50951,0.586739 0.697748,1.117599 0.188238,0.530859 0.432169,1.341119 0.696885,2.402838 l -1.236625,0.419099 c -0.36921,-1.480818 -0.60962,-2.332987 -0.714263,-2.528567 -0.05232,-0.09779 -0.10116,-0.18161 -0.170973,-0.23749 -0.06981,-0.05588 -0.160598,-0.08382 -0.272358,-0.08382 l -0.4191,0 c -0.09779,0 -0.122284,0.06985 -0.09094,0.19558 l 2.64368,10.603219 -4.917436,0 -1.327064,-5.322564 c -0.393591,-1.578609 -0.787446,-2.766058 -1.167593,-3.562347 -0.453405,-0.922019 -1.081453,-1.816098 -1.849239,-2.654297 m 11.47257,5.615934 -0.355277,-1.424938 5.546084,0 c -0.279137,-0.39116 -0.58273,-0.76835 -0.907298,-1.117599 -1.116848,-1.117599 -2.998674,-2.053588 -5.614057,-2.793998 l 0.486293,-1.243328 c 2.576993,0.698499 4.563538,1.718308 5.956152,3.045457 l 0.397863,0.419099 c 1.747075,-1.229359 3.068008,-2.374897 3.959318,-3.450586 l 1.322952,1.047749 c -1.163781,1.159509 -2.634901,2.319017 -4.409878,3.492496 0.132584,0.19558 0.265167,0.39116 0.401234,0.60071 l 5.057135,0 0.355277,1.424938 -4.652006,0 c 0.306889,0.67056 0.568348,1.383029 0.787859,2.151378 l 1.044933,4.190996 -1.466849,0 -1.044933,-4.190996 c -0.233481,-0.768349 -0.508909,-1.480818 -0.843738,-2.151378 z m 2.13508,3.464557 -1.039995,-1.145539 c 0.96423,-0.44704 1.855239,-1.075689 2.679994,-1.858008 l 1.081866,1.201419 c -0.789773,0.698499 -1.701719,1.299208 -2.721865,1.802128 m 2.090512,2.221228 -1.036511,-1.131569 c 0.827975,-0.37719 1.60715,-0.894079 2.306099,-1.564639 l 1.060931,1.173479 c -0.677939,0.58674 -1.457113,1.103629 -2.330519,1.522729 m 22.897371,-0.838199 -4.861555,0 -2.793453,-11.20393 1.424938,0 0.208987,0.8382 2.011678,0 -0.208987,-0.8382 1.424939,0 z m -5.665806,-8.940792 1.877396,7.529823 2.011678,0 -1.877396,-7.529823 z m -4.051314,10.42161 -0.58168,-2.332988 -2.053588,0 -0.355277,-1.424938 2.053588,0 -0.104493,-0.4191 c -0.919616,-3.576316 -2.363763,-6.174734 -4.332442,-7.795252 l 0.926215,-1.047749 c 2.212985,1.871978 3.842,4.819645 4.887046,8.843001 l 0.104493,0.4191 1.341119,0 c -0.996245,-3.883656 -1.605901,-6.160764 -1.839457,-6.817354 -0.244081,-0.586739 -0.642019,-0.894079 -1.172879,-0.894079 -0.349249,0 -0.747413,0.02794 -1.20846,0.08382 l 0.03233,-1.327149 c 0.488987,-0.05588 0.85921,-0.08382 1.08273,-0.08382 1.229359,0 2.056733,0.516889 2.4507,1.536698 0.421832,1.131569 1.233584,4.107176 2.435256,8.926821 l -2.766057,0 0.581679,2.332988 z m 15.607929,-5.140955 -1.003135,-4.023356 2.891787,0 -0.452804,-1.816098 c -1.089584,-0.11176 -2.186172,-0.19558 -3.310699,-0.2794 l 9.38e-4,-1.396999 c 2.203625,0.20955 4.305939,0.46101 6.306942,0.75438 0.02817,-0.33528 0.0354,-0.6985 0.05311,-1.075689 l 1.393177,0.488949 c -0.01113,0.963929 -0.123598,2.025648 -0.32345,3.185157 l -1.389769,-0.363219 c 0.0491,-0.30734 0.09472,-0.62865 0.140338,-0.94996 -0.460972,-0.05588 -0.911457,-0.125729 -1.372429,-0.181609 l 0.407523,1.634488 2.863848,0 1.003135,4.023356 -2.863847,0 0.233368,0.935989 2.430778,0 0.947405,3.799836 -6.272523,0 -0.947406,-3.799836 2.388868,0 -0.233369,-0.935989 z m 5.198712,-2.793997 -1.550668,0 0.390108,1.564638 1.550669,0 z m -3.003547,0 -1.578608,0 0.390108,1.564638 1.578609,0 z m -5.331633,3.101337 2.458717,0 1.104146,4.428485 -4.023356,0 -0.334379,-1.341118 2.654298,0 -0.445838,-1.788158 -2.332988,0 -1.551185,-4.428486 2.905757,0 c -0.362243,-1.452879 -0.654975,-2.402838 -0.864224,-2.849877 -0.209249,-0.44704 -0.656139,-0.67056 -1.340668,-0.67056 -0.39116,0 -0.775353,0.02794 -1.145577,0.05588 l 0.01835,-1.327148 c 0.384193,-0.02794 0.754416,-0.05588 1.131606,-0.05588 1.306138,0.08382 2.140553,0.516889 2.510213,1.327148 0.341721,0.810259 0.822615,2.402838 1.414743,4.777736 l -2.863847,0 z m 9.103708,1.830068 -3.590286,0 0.348311,1.396999 3.590286,0 z"
         style="fill:#a44646;fill-rule:evenodd"
         id="path80"
         inkscape:connector-curvature="0" />
    </g>
    <!-- Text: 机头加强 -->
    <g
       id="g82">
      <path
         d="m 29.193617,-53.264284 -0.351794,-1.410968 1.844038,0 C 29.834744,-56.239891 28.777446,-57.62292 27.5,-58.824338 l 0.231575,-1.592579 c 0.872467,0.977899 1.668043,2.039618 2.386727,3.185157 l -1.577848,-6.328404 1.452878,0 1.71369,6.873234 c 0.171461,-0.48895 0.356967,-1.089659 0.573971,-1.788159 l 1.172615,1.285239 c -0.447527,0.726439 -0.908988,1.396999 -1.373893,1.997708 l 0.128875,0.51689 1.564638,0 0.351794,1.410968 -1.564638,0 0.640892,2.570478 -1.452879,0 -0.640892,-2.570478 z m 1.721134,-9.401801 0.936702,-1.061719 c 0.91434,1.033779 1.633062,2.123438 2.1492,3.241037 0.530109,1.117599 0.990217,2.458718 1.383808,4.037326 l 0.98572,3.953506 1.983738,0 -2.344132,-9.4018 c -0.229885,-0.922019 0.182549,-1.396999 1.258237,-1.396999 l 0.62865,0 c 0.488949,0 0.876551,0.09779 1.145351,0.2794 0.27925,0.22352 0.50951,0.586739 0.697748,1.117599 0.188238,0.530859 0.432169,1.341118 0.696885,2.402837 l -1.236625,0.4191 c -0.36921,-1.480819 -0.60962,-2.332988 -0.714263,-2.528568 -0.05232,-0.09779 -0.10116,-0.181609 -0.170973,-0.237489 -0.06981,-0.05588 -0.160598,-0.08382 -0.272358,-0.08382 l -0.4191,0 c -0.09779,0 -0.122284,0.06985 -0.09094,0.19558 l 2.64368,10.603219 -4.917436,0 -1.327064,-5.322565 c -0.393591,-1.578608 -0.787446,-2.766057 -1.167593,-3.562346 -0.453405,-0.922019 -1.081453,-1.816098 -1.849239,-2.654298 m 11.47257,5.615935 -0.355277,-1.424939 5.546084,0 c -0.279137,-0.391159 -0.58273,-0.768349 -0.907298,-1.117599 -1.116848,-1.117598 -2.998674,-2.053588 -5.614057,-2.793997 l 0.486293,-1.243329 c 2.576993,0.6985 4.563538,1.718309 5.956152,3.045457 l 0.397863,0.4191 c 1.747075,-1.229359 3.068008,-2.374898 3.959318,-3.450587 l 1.322952,1.047749 c -1.163781,1.159509 -2.634901,2.319018 -4.409878,3.492497 0.132584,0.19558 0.265167,0.39116 0.401234,0.600709 l 5.057135,0 0.355277,1.424939 -4.652006,0 c 0.306889,0.670559 0.568348,1.383029 0.787859,2.151378 l 1.044933,4.190996 -1.466849,0 -1.044933,-4.190996 c -0.233481,-0.768349 -0.508909,-1.480819 -0.843738,-2.151378 z m 2.13508,3.464557 -1.039995,-1.145539 c 0.96423,-0.44704 1.855239,-1.075689 2.679994,-1.858009 l 1.081866,1.201419 c -0.789773,0.6985 -1.701719,1.299209 -2.721865,1.802129 m 2.090512,2.221227 -1.036511,-1.131569 c 0.827975,-0.377189 1.60715,-0.894079 2.306099,-1.564638 l 1.060931,1.173479 c -0.677939,0.586739 -1.457113,1.103629 -2.330519,1.522728 m 22.897371,-0.838199 -4.861555,0 -2.793453,-11.203929 1.424938,0 0.208987,0.838199 2.011678,0 -0.208987,-0.838199 1.424939,0 z m -5.665806,-8.940791 1.877396,7.529823 2.011678,0 -1.877396,-7.529823 z m -4.051314,10.42161 -0.58168,-2.332988 -2.053588,0 -0.355277,-1.424939 2.053588,0 -0.104493,-0.419099 c -0.919616,-3.576317 -2.363763,-6.174734 -4.332442,-7.795253 l 0.926215,-1.047749 c 2.212985,1.871979 3.842,4.819646 4.887046,8.843002 l 0.104493,0.419099 1.341119,0 c -0.996245,-3.883656 -1.605901,-6.160764 -1.839457,-6.817353 -0.244081,-0.586739 -0.642019,-0.894079 -1.172879,-0.894079 -0.349249,0 -0.747413,0.02794 -1.20846,0.08382 l 0.03233,-1.327149 c 0.488987,-0.05588 0.85921,-0.08382 1.08273,-0.08382 1.229359,0 2.056733,0.51689 2.4507,1.536699 0.421832,1.131569 1.233584,4.107176 2.435256,8.926821 l -2.766057,0 0.581679,2.332988 z m 15.607929,-5.140955 -1.003135,-4.023356 2.891787,0 -0.452804,-1.816099 c -1.089584,-0.111759 -2.186172,-0.195579 -3.310699,-0.279399 l 9.38e-4,-1.396999 c 2.203625,0.20955 4.305939,0.46101 6.306942,0.754379 0.02817,-0.335279 0.0354,-0.698499 0.05311,-1.075689 l 1.393177,0.48895 c -0.01113,0.963929 -0.123598,2.025648 -0.32345,3.185157 l -1.389769,-0.36322 c 0.0491,-0.30734 0.09472,-0.628649 0.140338,-0.949959 -0.460972,-0.05588 -0.911457,-0.12573 -1.372429,-0.18161 l 0.407523,1.634489 2.863848,0 1.003135,4.023356 -2.863847,0 0.233368,0.935989 2.430778,0 0.947405,3.799836 -6.272523,0 -0.947406,-3.799836 2.388868,0 -0.233369,-0.935989 z m 5.198712,-2.793997 -1.550668,0 0.390108,1.564638 1.550669,0 z m -3.003547,0 -1.578608,0 0.390108,1.564638 1.578609,0 z m -5.331633,3.101336 2.458717,0 1.104146,4.428486 -4.023356,0 -0.334379,-1.341119 2.654298,0 -0.445838,-1.788158 -2.332988,0 -1.551185,-4.428485 2.905757,0 c -0.362243,-1.452879 -0.654975,-2.402838 -0.864224,-2.849878 -0.209249,-0.447039 -0.656139,-0.670559 -1.340668,-0.670559 -0.39116,0 -0.775353,0.02794 -1.145577,0.05588 l 0.01835,-1.327149 c 0.384193,-0.02794 0.754416,-0.05588 1.131606,-0.05588 1.306138,0.08382 2.140553,0.51689 2.510213,1.327149 0.341721,0.810259 0.822615,2.402838 1.414743,4.777735 l -2.863847,0 z m 9.103708,1.830069 -3.590286,0 0.348311,1.396998 3.590286,0 z"
         style="fill:#a44646;fill-rule:evenodd"
         id="path84"
         inkscape:connector-curvature="0" />
    </g>
    <!-- Text: 机身 -->
    <g
       id="g86">
      <path
         d="m 31.939745,-123.49127 -0.351794,-1.41097 1.844038,0 c -0.851118,-1.56464 -1.908415,-2.94767 -3.185861,-4.14909 l 0.231575,-1.59258 c 0.872467,0.9779 1.668043,2.03962 2.386727,3.18516 l -1.577848,-6.3284 1.452878,0 1.71369,6.87323 c 0.171461,-0.48895 0.356967,-1.08966 0.573971,-1.78816 l 1.172615,1.28524 c -0.447528,0.72644 -0.908988,1.397 -1.373893,1.99771 l 0.128875,0.51689 1.564638,0 0.351794,1.41097 -1.564638,0 0.640892,2.57047 -1.452879,0 -0.640892,-2.57047 z m 1.721134,-9.4018 0.936702,-1.06172 c 0.914339,1.03378 1.633062,2.12343 2.1492,3.24103 0.530109,1.1176 0.990217,2.45872 1.383808,4.03733 l 0.98572,3.95351 1.983738,0 -2.344132,-9.4018 c -0.229885,-0.92202 0.182548,-1.397 1.258237,-1.397 l 0.62865,0 c 0.488949,0 0.876551,0.0978 1.145351,0.2794 0.279249,0.22352 0.50951,0.58674 0.697748,1.1176 0.188238,0.53085 0.432168,1.34111 0.696885,2.40283 l -1.236626,0.4191 c -0.369209,-1.48082 -0.609619,-2.33299 -0.714262,-2.52857 -0.05232,-0.0978 -0.101161,-0.1816 -0.170973,-0.23748 -0.06981,-0.0559 -0.160599,-0.0838 -0.272358,-0.0838 l -0.4191,0 c -0.09779,0 -0.122284,0.0699 -0.09094,0.19557 l 2.643679,10.60322 -4.917435,0 -1.327064,-5.32256 c -0.393592,-1.57861 -0.787446,-2.76606 -1.167593,-3.56235 -0.453405,-0.92202 -1.081453,-1.81609 -1.849239,-2.65429 m 17.99568,12.11197 c -0.18483,-0.40513 -0.408087,-0.79629 -0.64183,-1.17347 l -2.835908,0 -1.640544,-6.57987 -1.564638,0 -0.334379,-1.34112 7.487913,0 c -1.857295,-1.06172 -4.518033,-1.87198 -8.01712,-2.45871 l 0.329177,-1.31318 c 2.856543,0.47498 5.405521,1.28524 7.650417,2.44474 0.244381,0.1397 0.485279,0.26543 0.72966,0.40513 l -0.341345,-1.36905 c -0.0627,-0.25146 -0.209287,-0.39116 -0.418837,-0.39116 l -1.379583,0.0699 0.01839,-1.38303 1.494789,0 c 0.866139,0 1.414151,0.46101 1.644036,1.38303 l 0.710554,2.84987 c 1.204301,0.90805 2.279277,1.96977 3.252867,3.18516 l -1.048275,0.78232 c -0.460521,-0.72644 -1.036323,-1.41097 -1.730889,-2.06756 l 1.442007,5.78358 -3.897626,0 c 0.216328,0.30733 0.4082,0.62864 0.575614,0.96392 z m -3.665403,-7.75334 0.254267,1.01981 5.392414,0 -0.254267,-1.01981 z m 0.56078,2.24917 0.222919,0.89408 5.392415,0 -0.222919,-0.89408 z m 0.52595,2.10947 0.233368,0.93599 5.392415,0 -0.233369,-0.93599 z"
         style="fill:#a44646;fill-rule:evenodd"
         id="path88"
         inkscape:connector-curvature="0" />
    </g>
    <!-- Line -->
    <path
       d="m 152.5,-45 -140,0"
       style="stroke:#a44646;stroke-width:0.26221156"
       id="path90"
       inkscape:connector-curvature="0" />
    <!-- Line -->
    <path
       d="m 152.5,-45 -140,0"
       style="stroke:#a44646;stroke-width:0.26221156"
       id="path92"
       inkscape:connector-curvature="0" />
    <!-- Line -->
    <path
       d="m 12.5,-4 0,-41"
       style="stroke:#a44646;stroke-width:0.26221156"
       id="path94"
       inkscape:connector-curvature="0" />
    <!-- Line -->
    <path
       d="m 12.5,-45 0,-41"
       style="stroke:#a44646;stroke-width:0.26221156"
       id="path96"
       inkscape:connector-curvature="0" />
    <!-- Line -->
    <path
       d="m 7.5,-113 0,23"
       style="stroke:#a44646;stroke-width:0.26221156"
       id="path98"
       inkscape:connector-curvature="0" />
    <!-- Line -->
    <path
       d="m -22.5,-80 30,-10"
       style="stroke:#a44646;stroke-width:0.26221156"
       id="path100"
       inkscape:connector-curvature="0" />
    <!-- Line -->
    <path
       d="m -152.5,0 0,75"
       style="stroke:#a44646;stroke-width:0.26221156"
       id="path102"
       inkscape:connector-curvature="0" />
    <!-- Line -->
    <path
       d="m -152.5,75 0,75"
       style="stroke:#a44646;stroke-width:0.26221156"
       id="path104"
       inkscape:connector-curvature="0" />
    <!-- Line -->
    <path
       d="m 152.5,75 0,75"
       style="stroke:#a44646;stroke-width:0.26221156"
       id="path106"
       inkscape:connector-curvature="0" />
    <!-- Line -->
    <path
       d="m 152.5,0 0,75"
       style="stroke:#a44646;stroke-width:0.26221156"
       id="path108"
       inkscape:connector-curvature="0" />
    <!-- Line -->
    <path
       d="m -152.5,150 305,0"
       style="stroke:#a44646;stroke-width:0.26221156"
       id="path110"
       inkscape:connector-curvature="0" />
    <!-- Line -->
    <path
       d="m -152.5,75 305,0"
       style="stroke:#a44646;stroke-width:0.26221156"
       id="path112"
       inkscape:connector-curvature="0" />
    <!-- Line -->
    <path
       d="m -152.5,-145 70,0"
       style="stroke:#a44646;stroke-width:0.26221156"
       id="path114"
       inkscape:connector-curvature="0" />
    <!-- Line -->
    <path
       d="m 124.5,-105 23,0"
       style="stroke:#a44646;stroke-width:0.26221156"
       id="path116"
       inkscape:connector-curvature="0" />
    <!-- Line -->
    <path
       d="m 12.5,-86 75,-1"
       style="stroke:#a44646;stroke-width:0.26221156"
       id="path118"
       inkscape:connector-curvature="0" />
  </g>
</svg>