<?xml version="1.0" encoding="UTF-8" standalone="no"?>
<!-- 2016-12-07 17:01:26 Generated by QCAD SVG Exporter -->

<svg
   xmlns:dc="http://purl.org/dc/elements/1.1/"
   xmlns:cc="http://creativecommons.org/ns#"
   xmlns:rdf="http://www.w3.org/1999/02/22-rdf-syntax-ns#"
   xmlns:svg="http://www.w3.org/2000/svg"
   xmlns="http://www.w3.org/2000/svg"
   xmlns:sodipodi="http://sodipodi.sourceforge.net/DTD/sodipodi-0.dtd"
   xmlns:inkscape="http://www.inkscape.org/namespaces/inkscape"
   width="90.69040218506353mm"
   height="142.80779887789828mm"
   viewBox="-45.345201092531745 -71.4038994389491 90.69040218506353 142.80779887789828"
   version="1.1"
   style="stroke-linecap:round;stroke-linejoin:round;fill:none"
   id="svg2"
   inkscape:version="0.48.5 r10040"
   sodipodi:docname="empennage.svg">
  <metadata
     id="metadata138">
    <rdf:RDF>
      <cc:Work
         rdf:about="">
        <dc:format>image/svg+xml</dc:format>
        <dc:type
           rdf:resource="http://purl.org/dc/dcmitype/StillImage" />
      </cc:Work>
    </rdf:RDF>
  </metadata>
  <defs
     id="defs136" />
  <sodipodi:namedview
     pagecolor="#ffffff"
     bordercolor="#666666"
     borderopacity="1"
     objecttolerance="10"
     gridtolerance="10"
     guidetolerance="10"
     inkscape:pageopacity="0"
     inkscape:pageshadow="2"
     inkscape:window-width="640"
     inkscape:window-height="480"
     id="namedview134"
     showgrid="false"
     inkscape:zoom="0.46639219"
     inkscape:cx="160.67197"
     inkscape:cy="253.00595"
     inkscape:window-x="0"
     inkscape:window-y="0"
     inkscape:window-maximized="0"
     inkscape:current-layer="svg2" />
  <rect
     style="fill:#ffffff;fill-opacity:1;stroke:#ffffff;stroke-opacity:1"
     id="rect3115"
     width="499.57956"
     height="587.4884"
     x="-83.620613"
     y="-36.450008"
     transform="matrix(0.28222223,0,0,0.28222223,-45.345201,-71.403904)"
     ry="20.561905" />
  <g
     transform="scale(1,-1)"
     id="g4">
    <!-- Line -->
    <path
       d="M-34.77326668574909,-61.64680275902131 L-34.77326668574909,63.35319724097869 "
       style="stroke:#a44646;stroke-width:0.25;"
       id="path6" />
    <!-- Line -->
    <path
       d="M-34.77326668574909,63.35319724097869 L15.226733314250907,63.35319724097869 "
       style="stroke:#a44646;stroke-width:0.25;"
       id="path8" />
    <!-- Line -->
    <path
       d="M-34.77326668574909,-61.64680275902131 L15.226733314250907,-61.64680275902131 "
       style="stroke:#a44646;stroke-width:0.25;"
       id="path10" />
    <!-- Line -->
    <path
       d="M15.226733314250907,63.35319724097869 L35.22673331425091,3.3531972409786874 "
       style="stroke:#a44646;stroke-width:0.25;"
       id="path12" />
    <!-- Line -->
    <path
       d="M35.226733314250794,-1.6468027590213126 L15.226733314250907,-61.64680275902131 "
       style="stroke:#a44646;stroke-width:0.25;"
       id="path14" />
    <!-- Line -->
    <path
       d="M35.22673331425091,3.3531972409786874 L35.226733314250794,-1.6468027590213126 "
       style="stroke:#a44646;stroke-width:0.25;"
       id="path16" />
    <!-- Text: 尾翼 -->
    <g
       id="g18">
      <path
         d="M-14.573116800331423,56.35215294289942 L-14.862214847273037,55.1926440752323 L-22.406007480288046,55.1926440752323 L-22.116909433346432,56.35215294289942 Z M-22.733419726221925,53.87946535763339 L-13.708808539318785,53.87946535763339 L-12.754436673511528,57.70724161957064 L-23.24589642794536,57.70724161957064 L-24.444085923703376,52.90156631261293 C-25.133779055924343,50.1913889592705 -26.131149841251126,47.98413111479574 -27.43968138868302,46.26582279283121 L-26.54840946432198,45.24601378873844 C-24.925834851549663,47.38342170142602 -23.729626450380987,49.939929204836666 -22.97723735617268,52.90156631261293 Z M-16.783501651555525,45.41365362502766 C-16.252642169972987,45.41365362502766 -15.823130802612292,45.51144352952971 -15.515903753829464,45.67908336581893 C-15.187740500690609,45.87466317482302 -14.845870113716058,46.4614026018353 -14.483326374907225,47.467241619570636 L-15.65358497245423,47.872371223936256 C-15.817366196141663,47.327541755996286 -15.984780730269394,46.992262083417835 -16.155828574837415,46.86653220620092 C-16.288487119692675,46.78271228805631 -16.470059391979085,46.72683234262657 -16.693579173698048,46.72683234262657 L-19.41772651339791,46.72683234262657 C-19.571396363329697,46.72683234262657 -19.60293209612461,46.88050219255836 -19.53326991613868,47.15990191970706 L-19.37653001117034,47.78855130579164 L-14.546698243379044,48.22162088287214 L-14.233218433442355,49.4789196550413 L-19.063050201233647,49.045850077960814 L-18.85754677027515,49.87007927304949 L-14.94269278335549,50.21932893198537 L-14.63966230041669,51.43471774508223 L-18.55103317833705,51.09943807250379 L-18.35249596537715,51.895727294877595 C-17.084822966930588,52.04939714480938 -15.817187518844278,52.25894694017091 -14.581012702832384,52.51040669460475 L-14.958953341688114,53.628005603199554 C-16.910967919847753,53.194936026119066 -19.45680079409901,52.90156631261293 -22.58596508708375,52.7339264763237 L-22.455963543302307,51.57441760865658 C-21.579375062143434,51.61632756772889 -20.7132734583427,51.67220751315863 -19.84368874554267,51.74205744494581 L-20.03525974050398,50.97370819528687 L-22.877982987620925,50.722248440853036 L-23.184496579559024,49.49288964139874 L-20.34177333244208,49.74434939583257 L-20.550759872399873,48.906150214386464 L-24.05003492795602,48.59881051452289 L-24.360031628893413,47.355481728711155 L-20.860756573337266,47.66282142857473 L-21.066260004295764,46.838592233486054 C-21.30311141624793,45.88863316118046 -21.002437531500956,45.41365362502766 -20.164238350054845,45.41365362502766 Z M-9.876732134960626,57.87488145585986 L-10.148414636905759,56.78522251997991 L-9.519765250821173,56.78522251997991 L-10.057140346079315,56.08672320210815 C-9.386505900201929,55.97496331124867 -8.729803890321726,55.807323474959446 -8.114974289153587,55.58380369324048 C-8.97751768323452,55.430133843308695 -9.8470648456743,55.30440396609178 -10.706162681116194,55.22058404794717 L-10.691441687553777,54.102985139352356 C-9.287627035252662,54.35444489378619 -7.943212987740832,54.647814607292325 -6.658199545018288,54.98309427987077 L-6.835838103982411,54.27062497564158 L-5.466779440953761,54.27062497564158 L-4.56813731913525,57.87488145585986 Z M-8.765385987519672,56.78522251997991 L-6.208878484109032,56.78522251997991 L-6.421348133066125,55.933053352176366 C-6.805466432355217,55.84923343403175 -7.189584731644313,55.76541351588715 -7.601643003648277,55.681593597742534 L-7.224828875600018,56.24039305203994 C-7.699958613193807,56.463912833758904 -8.213477650500362,56.64552265640556 -8.765385987519672,56.78522251997991 M-4.0931577829824555,57.87488145585986 L-4.364840284927581,56.78522251997991 L-3.610461021626083,56.78522251997991 L-4.109446817171467,56.12863316118046 C-3.452782357651511,56.01687327032098 -2.8240203204861842,55.84923343403175 -2.2022245013194457,55.65365362502766 C-3.0158917183294847,55.527923747810746 -3.850532690055804,55.430133843308695 -4.681690552782825,55.34631392516409 L-4.680939545577846,54.22871501656927 C-3.3260010703476297,54.45223479828824 -2.0199763225485547,54.70369455272207 -0.7488953158231979,54.98309427987077 L-0.9265338747873244,54.27062497564158 L0.4425247882413288,54.27062497564158 L1.3411669100598402,57.87488145585986 Z M-2.674471935677925,56.78522251997991 L-0.2995742549139422,56.78522251997991 L-0.5050776858724397,55.960993324891234 L-1.5631633385972208,55.75144352952971 L-1.2212554012624217,56.28230301111225 C-1.6754113841399416,56.477882820116335 -2.1644735577309184,56.64552265640556 -2.674471935677925,56.78522251997991 M-9.696051996816337,54.06107518028005 L-10.629525208627811,50.31711883648742 L-8.883276913948414,50.31711883648742 L-9.00866883792309,49.81419932761975 L-11.41150649140194,49.81419932761975 L-11.669256557349884,48.780420337169545 L-9.266418903871035,48.780420337169545 L-9.405743263842897,48.22162088287214 L-12.618840126052989,48.22162088287214 L-12.88355640999953,47.15990191970706 L-9.055780148062286,47.15990191970706 C-10.12424002706446,46.79668227441375 -11.38483415643168,46.50331256090761 -12.841045645163236,46.26582279283121 L-12.571344237807443,45.10631392516409 C-10.811388809292353,45.49747354317227 -9.281994481215314,45.97245307932507 -7.962225049220301,46.55919250633735 L-8.343310843833091,47.15990191970706 L-5.353733763341957,47.15990191970706 L-5.891108858600099,46.4614026018353 C-4.514858675411361,46.15406290197173 -3.229319527645334,45.7070233385338 -2.0310083063027093,45.134253897878956 L-1.3088031319203566,46.23788282011634 C-2.26250816574699,46.61507245176709 -3.2755387036424146,46.92241215163066 -4.347894745606624,47.15990191970706 L-0.7576082517457756,47.15990191970706 L-0.4928919677992383,48.22162088287214 L-3.705988830009332,48.22162088287214 L-3.5666644700374732,48.780420337169545 L-1.0939768847714397,48.780420337169545 L-0.8362268188234978,49.81419932761975 L-3.308914404089524,49.81419932761975 L-3.183522480114849,50.31711883648742 L-1.3674242536482737,50.31711883648742 L-0.4339510418367958,54.06107518028005 Z M-8.092564546243985,48.22162088287214 L-7.953240186272126,48.780420337169545 L-4.879843187636379,48.780420337169545 L-5.0191675476082445,48.22162088287214 Z M-4.622093121688437,49.81419932761975 L-7.69549012032418,49.81419932761975 L-7.570098196349505,50.31711883648742 L-4.496701197713762,50.31711883648742 Z M-2.4961483957254558,51.281047895150444 L-5.108535844565843,51.281047895150444 L-4.99011013858976,51.756027431303245 L-2.377722689749376,51.756027431303245 Z M-6.421714562164752,51.281047895150444 L-9.020132024647697,51.281047895150444 L-8.901706318671618,51.756027431303245 L-6.303288856188669,51.756027431303245 Z M-8.68575356071523,52.62216658546422 L-8.570810963738442,53.083176135259585 L-5.972393501255496,53.083176135259585 L-6.087336098232285,52.62216658546422 Z M-4.659214783656587,53.083176135259585 L-2.0468273348162,53.083176135259585 L-2.161769931792989,52.62216658546422 L-4.774157380633376,52.62216658546422 Z"
         style="fill:#a44646;fill-rule:evenodd;"
         id="path20" />
    </g>
    <!-- Rotated Dimension -->
    <g
       id="g22">
      <path
         d="M-34.7732666857491,68.2788994389491 L-32.2732666857491,68.69518409672193 L-32.2732666857491,67.86261478117626 Z"
         style="stroke:#a44646;stroke-width:0.25;fill:#a44646;fill-rule:evenodd;"
         id="path24" />
      <path
         d="M15.226733314251021,68.2788994389491 L12.726733314251021,67.86261478117626 L12.726733314251021,68.69518409672193 Z"
         style="stroke:#a44646;stroke-width:0.25;fill:#a44646;fill-rule:evenodd;"
         id="path26" />
      <g
         id="g28">
        <path
           d="M-10.189933352415705,71.4038994389491 L-11.301044463526818,71.4038994389491 L-11.301044463526818,70.29278832783798 L-10.74548890797126,70.29278832783798 M-10.189933352415705,69.73723277228243 C-10.189933352415705,70.04405763328243 -10.438664046971262,70.29278832783798 -10.74548890797126,70.29278832783798 M-10.189933352415705,69.73723277228243 L-10.189933352415705,69.45945499450465 M-10.74548890797126,68.9038994389491 C-10.438664046971262,68.9038994389491 -10.189933352415705,69.15263013350466 -10.189933352415705,69.45945499450465 M-10.74548890797126,68.9038994389491 L-11.301044463526818,68.9038994389491"
           style="stroke:#a44646;stroke-width:0.25;"
           id="path30" />
        <path
           d="M-8.546425131664316,71.26496115139862 L-8.546398120917686,71.26498684067339 C-8.600298146985793,71.34856719173327 -8.694209535861006,71.4038994389491 -8.801044463526818,71.4038994389491 C-8.907808125637468,71.4038994389491 -9.001665484818549,71.34864098722683 -9.055569574355204,71.26517469399629 M-9.055298621521153,71.26581816518963 L-9.05534398324159,71.26589008042008 C-9.17607433368619,71.1047672039889 -9.261225096981216,70.91547666873815 -9.299086757388565,70.71005984056542 M-9.298967542902474,69.59839279019485 L-9.299162896976366,69.59815176319493 C-9.261109760920174,69.39206112151949 -9.175986984142163,69.20290918950559 -9.055358140184252,69.04192769053566 M-9.055549351807455,69.0426600086135 L-9.055576218788488,69.04263447183435 C-9.001657773160236,68.95915335054426 -8.907803739606557,68.9038994389491 -8.801044463526818,68.9038994389491 C-8.694280801416166,68.9038994389491 -8.600423442235085,68.95915789067136 -8.546519352698429,69.0426241839019 M-8.546901416643593,69.04198071270856 L-8.546856054923156,69.04190879747811 C-8.426125704478554,69.2030316739093 -8.34097494118353,69.39232220916004 -8.30311328077618,69.59773903733277 M-8.303530201939404,69.59765983225175 L-8.303256559627286,69.59635812161312 C-8.265351306260605,69.77388566297373 -8.24548890797126,69.95726743956199 -8.24548890797126,70.14528832783799 C-8.24548890797126,70.14816984391837 -8.24549357307796,70.1510502704047 -8.245502747889203,70.15388368920557 M-8.245504824215285,70.15339122323793 L-8.24550465510897,70.15334212791893 C-8.245494104247527,70.15642948427845 -8.24548890797126,70.15946941034164 -8.24548890797126,70.1625105500602 C-8.24548890797126,70.35064588811166 -8.26537549441243,70.53413646502983 -8.30299708889358,70.71022591063947 M-8.303274976397406,70.70963518382098 L-8.303079428621821,70.70987643013889 C-8.34110952056216,70.91564018741614 -8.426060807796638,71.1045115300351 -8.546422929790815,71.26531174180425 M-9.356584102838351,70.15440765466026 L-9.356584271944666,70.15445674997926 C-9.356594822806107,70.15136939361975 -9.356600019082373,70.14832946755654 -9.356600019082373,70.14528832783799 C-9.356600019082373,69.95699487851736 -9.336679992728152,69.7733540006402 -9.298996611824185,69.59712678568302 M-9.298558725114232,70.71013904564644 L-9.29883236742635,70.71144075628507 C-9.336737620793029,70.53391321492447 -9.356600019082373,70.35053143833619 -9.356600019082373,70.1625105500602 C-9.356600019082373,70.15945317985889 -9.356594767193322,70.15639703630198 -9.356584438647907,70.15339078026491"
           style="stroke:#a44646;stroke-width:0.25;"
           id="path32" />
      </g>
      <path
         d="M-34.7732666857491,68.2788994389491 L15.226733314251021,68.2788994389491 M-34.7732666857491,63.978197240978695 L-34.7732666857491,69.5288994389491 M15.226733314251021,63.97819724097869 L15.226733314251021,69.5288994389491 "
         style="stroke:#a44646;stroke-width:0.25;"
         id="path34" />
    </g>
    <!-- Rotated Dimension -->
    <g
       id="g36">
      <path
         d="M-34.77326668574908,-70.15389943894917 L-32.27326668574908,-69.73761478117633 L-32.27326668574908,-70.570184096722 Z"
         style="stroke:#a44646;stroke-width:0.25;fill:#a44646;fill-rule:evenodd;"
         id="path38" />
      <path
         d="M15.22673331425078,-70.15389943894917 L12.72673331425078,-70.570184096722 L12.72673331425078,-69.73761478117633 Z"
         style="stroke:#a44646;stroke-width:0.25;fill:#a44646;fill-rule:evenodd;"
         id="path40" />
      <g
         id="g42">
        <path
           d="M-10.189933352415816,-67.02889943894917 L-11.301044463526928,-67.02889943894917 L-11.301044463526928,-68.14001055006028 L-10.745488907971371,-68.14001055006028 M-10.189933352415816,-68.69556610561584 C-10.189933352415816,-68.38874124461583 -10.438664046971372,-68.14001055006028 -10.745488907971371,-68.14001055006028 M-10.189933352415816,-68.69556610561584 L-10.189933352415816,-68.97334388339361 M-10.745488907971371,-69.52889943894917 C-10.438664046971372,-69.52889943894917 -10.189933352415816,-69.2801687443936 -10.189933352415816,-68.97334388339361 M-10.745488907971371,-69.52889943894917 L-11.301044463526928,-69.52889943894917"
           style="stroke:#a44646;stroke-width:0.25;"
           id="path44" />
        <path
           d="M-8.546425131664426,-67.16783772649964 L-8.546398120917797,-67.16781203722488 C-8.600298146985903,-67.084231686165 -8.694209535861116,-67.02889943894917 -8.801044463526928,-67.02889943894917 C-8.907808125637578,-67.02889943894917 -9.001665484818659,-67.08415789067143 -9.055569574355314,-67.16762418390198 M-9.055298621521263,-67.16698071270864 L-9.0553439832417,-67.16690879747819 C-9.1760743336863,-67.32803167390936 -9.261225096981326,-67.51732220916011 -9.299086757388675,-67.72273903733284 M-9.298967542902584,-68.83440608770341 L-9.299162896976476,-68.83464711470333 C-9.261109760920284,-69.04073775637877 -9.175986984142273,-69.22988968839267 -9.055358140184362,-69.3908711873626 M-9.055549351807565,-69.39013886928477 L-9.055576218788598,-69.39016440606392 C-9.001657773160346,-69.47364552735401 -8.907803739606667,-69.52889943894917 -8.801044463526928,-69.52889943894917 C-8.694280801416276,-69.52889943894917 -8.600423442235195,-69.4736409872269 -8.546519352698539,-69.39017469399636 M-8.546901416643703,-69.3908181651897 L-8.546856054923266,-69.39089008042015 C-8.426125704478665,-69.22976720398897 -8.34097494118364,-69.04047666873822 -8.30311328077629,-68.83505984056549 M-8.303530201939514,-68.83513904564651 L-8.303256559627396,-68.83644075628514 C-8.265351306260715,-68.65891321492454 -8.245488907971371,-68.47553143833628 -8.245488907971371,-68.28751055006028 C-8.245488907971371,-68.2846290339799 -8.24549357307807,-68.28174860749357 -8.245502747889313,-68.2789151886927 M-8.245504824215395,-68.27940765466033 L-8.24550465510908,-68.27945674997933 C-8.245494104247637,-68.27636939361982 -8.245488907971371,-68.27332946755662 -8.245488907971371,-68.27028832783806 C-8.245488907971371,-68.08215298978661 -8.26537549441254,-67.89866241286843 -8.30299708889369,-67.7225729672588 M-8.303274976397516,-67.72316369407729 L-8.303079428621931,-67.72292244775937 C-8.34110952056227,-67.51715869048212 -8.426060807796748,-67.32828734786318 -8.546422929790925,-67.16748713609401 M-9.356584102838461,-68.278391223238 L-9.356584271944776,-68.278342127919 C-9.356594822806217,-68.28142948427852 -9.356600019082483,-68.28446941034173 -9.356600019082483,-68.28751055006028 C-9.356600019082483,-68.4758039993809 -9.336679992728262,-68.65944487725807 -9.298996611824295,-68.83567209221525 M-9.298558725114342,-67.72265983225182 L-9.29883236742646,-67.72135812161319 C-9.336737620793139,-67.8988856629738 -9.356600019082483,-68.08226743956207 -9.356600019082483,-68.27028832783806 C-9.356600019082483,-68.27334569803938 -9.356594767193432,-68.27640184159628 -9.356584438648017,-68.27940809763335"
           style="stroke:#a44646;stroke-width:0.25;"
           id="path46" />
      </g>
      <path
         d="M-34.77326668574908,-70.15389943894917 L15.22673331425078,-70.15389943894917 M-34.77326668574908,-62.271802759021334 L-34.77326668574908,-71.40389943894917 M15.226733314250776,-62.27180275902125 L15.22673331425078,-71.40389943894917 "
         style="stroke:#a44646;stroke-width:0.25;"
         id="path48" />
    </g>
    <!-- Rotated Dimension -->
    <g
       id="g50">
      <path
         d="M15.226733314251021,68.16920610219378 L17.72673331425102,68.58549075996662 L17.72673331425102,67.75292144442095 Z"
         style="stroke:#a44646;stroke-width:0.25;fill:#a44646;fill-rule:evenodd;"
         id="path52" />
      <path
         d="M35.22673331425091,68.16920610219378 L32.72673331425091,67.75292144442095 L32.72673331425091,68.58549075996662 Z"
         style="stroke:#a44646;stroke-width:0.25;fill:#a44646;fill-rule:evenodd;"
         id="path54" />
      <g
         id="g56">
        <path
           d="M24.810066647584296,68.79420610219378 L23.698955536473186,68.79420610219378 L24.7725666475843,70.64059499108268 M24.772365203682547,70.64031167257427 L24.772389972520575,70.64026412603302 C24.796346336934224,70.6813325723431 24.810066647584296,70.72908372880778 24.810066647584296,70.78003943552712 C24.810066647584296,70.81435730030734 24.803843375293642,70.84722164196316 24.79248127611279,70.8775188916566 M24.7924194145301,70.8775627919315 L24.792525617544268,70.8776893258981 C24.73071253066014,71.1173000564621 24.51327112177681,71.29420610219378 24.254511092028743,71.29420610219378 C23.995766139382685,71.29420610219378 23.778334992739406,71.11732067133677 23.71658265264515,70.8780229740763"
           style="stroke:#a44646;stroke-width:0.25;"
           id="path58" />
        <path
           d="M26.453574868335686,71.15526781464331 L26.453601879082317,71.15529350391807 C26.39970185301421,71.23887385497795 26.305790464138997,71.29420610219378 26.198955536473186,71.29420610219378 C26.092191874362534,71.29420610219378 25.998334515181455,71.23894765047152 25.9444304256448,71.15548135724097 M25.94470137847885,71.15612482843432 L25.944656016758415,71.15619674366476 C25.823925666313812,70.99507386723359 25.738774903018786,70.80578333198284 25.70091324261144,70.60036650381011 M25.70103245709753,69.48869945343954 L25.700837103023638,69.48845842643962 C25.73889023907983,69.28236778476418 25.82401301585784,69.09321585275028 25.944641859815754,68.93223435378034 M25.94445064819255,68.93296667185818 L25.944423781211515,68.93294113507903 C25.998342226839767,68.84946001378894 26.092196260393447,68.79420610219378 26.198955536473186,68.79420610219378 C26.305719198583837,68.79420610219378 26.399576557764917,68.84946455391605 26.453480647301575,68.9329308471466 M26.45309858335641,68.93228737595325 L26.45314394507685,68.9322154607228 C26.57387429552145,69.09333833715398 26.659025058816475,69.28262887240473 26.696886719223823,69.48804570057746 M26.6964697980606,69.48796649549644 L26.696743440372718,69.48666478485781 C26.7346486937394,69.66419232621841 26.754511092028743,69.84757410280668 26.754511092028743,70.03559499108268 C26.754511092028743,70.03847650716305 26.754506426922045,70.04135693364938 26.754497252110802,70.04419035245026 M26.75449517578472,70.04369788648262 L26.754495344891033,70.04364879116362 C26.754505895752477,70.04673614752313 26.754511092028743,70.04977607358633 26.754511092028743,70.05281721330489 C26.754511092028743,70.24095255135634 26.734624505587576,70.42444312827452 26.697002911106424,70.60053257388415 M26.6967250236026,70.59994184706567 L26.696920571378183,70.60018309338358 C26.658890479437844,70.80594685066083 26.573939192203365,70.99481819327977 26.45357707020919,71.15561840504894 M25.643415897161653,70.04471431790495 L25.643415728055338,70.04476341322395 C25.643405177193895,70.04167605686443 25.643399980917632,70.03863613080122 25.643399980917632,70.03559499108268 C25.643399980917632,69.84730154176205 25.66332000727185,69.66366066388488 25.70100338817582,69.4874334489277 M25.701441274885774,70.60044570889113 L25.701167632573654,70.60174741952976 C25.663262379206973,70.42421987816915 25.643399980917632,70.24083810158088 25.643399980917632,70.05281721330489 C25.643399980917632,70.04975984310357 25.643405232806682,70.04670369954667 25.643415561352096,70.0436974435096"
           style="stroke:#a44646;stroke-width:0.25;"
           id="path60" />
      </g>
      <path
         d="M15.226733314251021,68.16920610219378 L35.22673331425091,68.16920610219378 M15.226733314251021,63.97819724097869 L15.226733314251021,69.41920610219378 M35.22673331425091,3.978197240978846 L35.22673331425091,69.41920610219378 "
         style="stroke:#a44646;stroke-width:0.25;"
         id="path62" />
    </g>
    <!-- Rotated Dimension -->
    <g
       id="g64">
      <path
         d="M35.226733314250794,-70.15389943894913 L32.726733314250794,-70.57018409672196 L32.726733314250794,-69.73761478117629 Z"
         style="stroke:#a44646;stroke-width:0.25;fill:#a44646;fill-rule:evenodd;"
         id="path66" />
      <path
         d="M15.226733314250776,-70.15389943894913 L17.726733314250776,-69.73761478117629 L17.726733314250776,-70.57018409672196 Z"
         style="stroke:#a44646;stroke-width:0.25;fill:#a44646;fill-rule:evenodd;"
         id="path68" />
      <g
         id="g70">
        <path
           d="M24.81006664758412,-69.52889943894913 L23.698955536473008,-69.52889943894913 L24.77256664758412,-67.68251055006024 M24.77236520368237,-67.68279386856864 L24.772389972520397,-67.68284141510989 C24.796346336934047,-67.64177296879981 24.81006664758412,-67.59402181233513 24.81006664758412,-67.5430661056158 C24.81006664758412,-67.50874824083557 24.803843375293464,-67.47588389917975 24.792481276112614,-67.4455866494863 M24.792419414529924,-67.44554274921141 L24.79252561754409,-67.4454162152448 C24.73071253065996,-67.20580548468081 24.513271121776633,-67.02889943894913 24.254511092028565,-67.02889943894913 C23.995766139382507,-67.02889943894913 23.77833499273923,-67.20578486980614 23.716582652644973,-67.4450825670666"
           style="stroke:#a44646;stroke-width:0.25;"
           id="path72" />
        <path
           d="M26.453574868335508,-67.1678377264996 L26.45360187908214,-67.16781203722483 C26.399701853014033,-67.08423168616496 26.30579046413882,-67.02889943894913 26.198955536473008,-67.02889943894913 C26.092191874362356,-67.02889943894913 25.998334515181277,-67.08415789067139 25.944430425644622,-67.16762418390194 M25.944701378478673,-67.1669807127086 L25.944656016758238,-67.16690879747814 C25.823925666313635,-67.32803167390932 25.73877490301861,-67.51732220916007 25.70091324261126,-67.7227390373328 M25.70103245709735,-68.83440608770337 L25.70083710302346,-68.83464711470329 C25.73889023907965,-69.04073775637873 25.824013015857663,-69.22988968839263 25.944641859815576,-69.39087118736256 M25.944450648192372,-69.39013886928473 L25.944423781211338,-69.39016440606387 C25.99834222683959,-69.47364552735397 26.09219626039327,-69.52889943894913 26.198955536473008,-69.52889943894913 C26.30571919858366,-69.52889943894913 26.39957655776474,-69.47364098722686 26.453480647301397,-69.39017469399631 M26.453098583356233,-69.39081816518966 L26.453143945076672,-69.3908900804201 C26.57387429552127,-69.22976720398893 26.659025058816297,-69.04047666873818 26.696886719223645,-68.83505984056545 M26.696469798060424,-68.83513904564647 L26.69674344037254,-68.8364407562851 C26.73464869373922,-68.6589132149245 26.754511092028565,-68.47553143833623 26.754511092028565,-68.28751055006023 C26.754511092028565,-68.28462903397985 26.754506426921868,-68.28174860749353 26.754497252110625,-68.27891518869265 M26.75449517578454,-68.27940765466029 L26.754495344890856,-68.27945674997929 C26.7545058957523,-68.27636939361977 26.754511092028565,-68.27332946755658 26.754511092028565,-68.27028832783802 C26.754511092028565,-68.08215298978656 26.734624505587398,-67.89866241286839 26.697002911106246,-67.72257296725876 M26.696725023602422,-67.72316369407724 L26.696920571378005,-67.72292244775933 C26.658890479437666,-67.51715869048208 26.573939192203188,-67.32828734786312 26.45357707020901,-67.16748713609397 M25.643415897161475,-68.27839122323796 L25.64341572805516,-68.27834212791896 C25.643405177193717,-68.28142948427848 25.643399980917454,-68.28446941034169 25.643399980917454,-68.28751055006023 C25.643399980917454,-68.47580399938086 25.663320007271672,-68.65944487725803 25.701003388175643,-68.8356720922152 M25.701441274885596,-67.72265983225178 L25.701167632573476,-67.72135812161315 C25.663262379206795,-67.89888566297375 25.643399980917454,-68.08226743956203 25.643399980917454,-68.27028832783802 C25.643399980917454,-68.27334569803934 25.643405232806504,-68.27640184159624 25.64341556135192,-68.27940809763331"
           style="stroke:#a44646;stroke-width:0.25;"
           id="path74" />
      </g>
      <path
         d="M35.226733314250794,-70.15389943894913 L15.226733314250776,-70.15389943894913 M35.226733314250794,-2.271802759021419 L35.226733314250794,-71.40389943894913 M15.226733314250776,-62.27180275902125 L15.226733314250776,-71.40389943894913 "
         style="stroke:#a44646;stroke-width:0.25;"
         id="path76" />
    </g>
    <!-- Rotated Dimension -->
    <g
       id="g78">
      <path
         d="M-42.220201092531745,63.353197240978695 L-41.803916434758904,60.853197240978695 L-42.63648575030459,60.853197240978695 Z"
         style="stroke:#a44646;stroke-width:0.25;fill:#a44646;fill-rule:evenodd;"
         id="path80" />
      <path
         d="M-42.220201092531745,-61.64680275902133 L-42.63648575030459,-59.14680275902133 L-41.803916434758904,-59.14680275902133 Z"
         style="stroke:#a44646;stroke-width:0.25;fill:#a44646;fill-rule:evenodd;"
         id="path82" />
      <g
         id="g84">
        <path
           d="M-44.78964553697619,-1.3690249812435382 L-45.345201092531745,-0.8134694256879826 L-42.845201092531745,-0.8134694256879826"
           style="stroke:#a44646;stroke-width:0.25;"
           id="path86" />
        <path
           d="M-42.845201092531745,1.1309750187564618 L-42.845201092531745,0.01986390764535062 L-44.691589981420634,1.0934750187564621 M-44.69130666291223,1.0932735748547133 L-44.69125911637097,1.0932983436927388 C-44.73232756268106,1.1172547081063884 -44.78007871914575,1.1309750187564618 -44.83103442586508,1.1309750187564618 C-44.8653522906453,1.1309750187564618 -44.89821663230113,1.124751746465807 -44.92851388199456,1.1133896472849567 M-44.92855778226946,1.1133277857022643 L-44.92868431623607,1.1134339887164308 C-45.168295046800054,1.0516209018323017 -45.345201092531745,0.8341794929489759 -45.345201092531745,0.5754194632009062 C-45.345201092531745,0.3166745105548501 -45.16831566167474,0.09924336391157129 -44.929017964414264,0.037491023817316727"
           style="stroke:#a44646;stroke-width:0.25;"
           id="path88" />
        <path
           d="M-45.345201092531745,3.075419463200906 L-45.345201092531745,1.9643083520897948 L-44.23408998142063,1.9643083520897948 L-44.23408998142063,2.51986390764535 M-43.67853442586508,3.075419463200906 C-43.98535928686508,3.075419463200906 -44.23408998142063,2.82668876864535 -44.23408998142063,2.51986390764535 M-43.67853442586508,3.075419463200906 L-43.4007566480873,3.075419463200906 M-42.845201092531745,2.51986390764535 C-42.845201092531745,2.82668876864535 -43.0939317870873,3.075419463200906 -43.4007566480873,3.075419463200906 M-42.845201092531745,2.51986390764535 L-42.845201092531745,1.9643083520897948"
           style="stroke:#a44646;stroke-width:0.25;"
           id="path90" />
      </g>
      <path
         d="M-42.220201092531745,63.353197240978695 L-42.220201092531745,-61.64680275902133 M-35.3982666857491,63.353197240978695 L-43.470201092531745,63.353197240978695 M-35.39826668574908,-61.646802759021334 L-43.470201092531745,-61.64680275902133 "
         style="stroke:#a44646;stroke-width:0.25;"
         id="path92" />
    </g>
    <!-- Rotated Dimension -->
    <g
       id="g94">
      <path
         d="M44.095201092531795,3.353197240978846 L43.67891643475895,5.8531972409788455 L44.51148575030464,5.8531972409788455 Z"
         style="stroke:#a44646;stroke-width:0.25;fill:#a44646;fill-rule:evenodd;"
         id="path96" />
      <path
         d="M44.095201092531795,-1.6468027590214178 L44.51148575030464,-4.146802759021417 L43.67891643475895,-4.146802759021417 Z"
         style="stroke:#a44646;stroke-width:0.25;fill:#a44646;fill-rule:evenodd;"
         id="path98" />
      <g
         id="g100">
        <path
           d="M40.970201092531795,1.4087527965342699 L40.970201092531795,0.2976416854231587 L42.08131220364291,0.2976416854231587 L42.08131220364291,0.8531972409787143 M42.63686775919846,1.4087527965342699 C42.330042898198464,1.4087527965342699 42.08131220364291,1.1600221019787142 42.08131220364291,0.8531972409787143 M42.63686775919846,1.4087527965342699 L42.91464553697624,1.4087527965342699 M43.470201092531795,0.8531972409787141 C43.470201092531795,1.1600221019787142 43.22147039797624,1.4087527965342699 42.91464553697624,1.4087527965342699 M43.470201092531795,0.8531972409787143 L43.470201092531795,0.2976416854231587"
           style="stroke:#a44646;stroke-width:0.25;"
           id="path102" />
      </g>
      <path
         d="M44.095201092531795,8.353197240978846 L44.095201092531795,-6.646802759021417 M35.85173331425091,3.353197240978846 L45.345201092531795,3.353197240978846 M35.851733314250794,-1.646802759021419 L45.345201092531795,-1.6468027590214178 "
         style="stroke:#a44646;stroke-width:0.25;"
         id="path104" />
    </g>
    <!-- Rotated Dimension -->
    <g
       id="g106">
      <path
         d="M43.67891643475901,63.35319724097869 L44.09520109253185,60.85319724097869 L43.26263177698617,60.85319724097869 Z"
         style="stroke:#a44646;stroke-width:0.25;fill:#a44646;fill-rule:evenodd;"
         id="path108" />
      <path
         d="M43.67891643475901,3.3531972409788438 L43.26263177698617,5.853197240978844 L44.09520109253185,5.853197240978844 Z"
         style="stroke:#a44646;stroke-width:0.25;fill:#a44646;fill-rule:evenodd;"
         id="path110" />
      <g
         id="g112">
        <path
           d="M40.553997168832325,32.65875279653432 L40.55379336104497,32.65855081233011 C40.84206189203414,32.1604537824333 41.380591637904665,31.825419463200987 41.99737284180639,31.825419463200987 L42.498483952917496,31.825419463200987 C42.8053088139175,31.825419463200987 43.05403950847305,32.07415015775654 43.05403950847305,32.380975018756544 C43.05403950847305,32.68779987975655 42.8053088139175,32.9365305743121 42.498483952917496,32.9365305743121 L42.22070617513972,32.9365305743121 C41.91388131413972,32.9365305743121 41.66515061958417,32.68779987975655 41.66515061958417,32.380975018756544 L41.66515061958417,31.858863907645432"
           style="stroke:#a44646;stroke-width:0.25;"
           id="path114" />
        <path
           d="M40.69297779602353,34.58003879506349 L40.69295210674876,34.580065805810115 C40.60937175568889,34.526165779742016 40.55403950847305,34.4322543908668 40.55403950847305,34.32541946320099 C40.55403950847305,34.218655801090335 40.60929796019533,34.124798441909256 40.692764253425864,34.0708943523726 M40.69212078223252,34.07116530520665 L40.69204886700207,34.07111994348622 C40.85317174343326,33.95038959304161 41.042462278684006,33.86523882974659 41.247879106856736,33.82737716933924 M42.35954615722729,33.82749638382533 L42.359787184227216,33.82730102975144 C42.56587782590265,33.86535416580763 42.75502975791656,33.950476942585645 42.91601125688649,34.071105786543555 M42.91527893880866,34.07091457492035 L42.9153044755878,34.07088770793932 C42.9987855968779,34.12480615356757 43.05403950847305,34.218660187121245 43.05403950847305,34.32541946320099 C43.05403950847305,34.43218312531164 42.99878105675078,34.52604048449272 42.915314763520236,34.579944574029376 M42.915958234713585,34.579562510084216 L42.916030149944035,34.57960787180465 C42.75490727351285,34.70033822224925 42.5656167382621,34.785488985544276 42.36019991008938,34.82335064595162 M42.3602791151704,34.8229337247884 L42.36158082580903,34.823207367100515 C42.184053284448424,34.861112620467196 42.000671507860154,34.880975018756544 41.81265061958416,34.880975018756544 C41.80976910350378,34.880975018756544 41.80688867701745,34.88097035364984 41.80405525821657,34.880961178838604 M41.80454772418422,34.88095910251252 L41.80459681950322,34.880959271618835 C41.80150946314371,34.88096982248028 41.7984695370805,34.880975018756544 41.795428397361945,34.880975018756544 C41.60729305931049,34.880975018756544 41.42380248239232,34.86108843231538 41.247713036782685,34.823466837834225 M41.24830376360117,34.8231889503304 L41.24806251728326,34.82338449810599 C41.042298760006005,34.785354406165645 40.85342741738706,34.70040311893117 40.692627205617896,34.580040996936994 M41.80353129276189,33.769879823889454 L41.8034821974429,33.76987965478314 C41.806569553802404,33.7698691039217 41.80960947986561,33.76986390764543 41.81265061958416,33.76986390764543 C42.000944068904786,33.76986390764543 42.184584946781946,33.78978393399965 42.36081216173913,33.82746731490362 M41.24779990177571,33.827905201613575 L41.246498191137086,33.82763155930146 C41.42402573249768,33.78972630593478 41.60740750908595,33.76986390764543 41.795428397361945,33.76986390764543 C41.798485767563264,33.76986390764543 41.80154191112017,33.76986915953449 41.804548167157236,33.7698794880799"
           style="stroke:#a44646;stroke-width:0.25;"
           id="path116" />
      </g>
      <path
         d="M43.67891643475901,63.35319724097869 L43.67891643475901,3.3531972409788438 M15.851733314251021,63.35319724097869 L44.92891643475901,63.35319724097869 M35.85173331425091,3.353197240978846 L44.92891643475901,3.3531972409788433 "
         style="stroke:#a44646;stroke-width:0.25;"
         id="path118" />
    </g>
    <!-- Rotated Dimension -->
    <g
       id="g120">
      <path
         d="M43.95628517705438,-1.646802759021419 L44.372569834827225,-4.146802759021419 L43.54000051928154,-4.146802759021419 Z"
         style="stroke:#a44646;stroke-width:0.25;fill:#a44646;fill-rule:evenodd;"
         id="path122" />
      <path
         d="M43.95628517705438,-61.64680275902125 L43.54000051928154,-59.14680275902125 L44.372569834827225,-59.14680275902125 Z"
         style="stroke:#a44646;stroke-width:0.25;fill:#a44646;fill-rule:evenodd;"
         id="path124" />
      <g
         id="g126">
        <path
           d="M40.8313659111277,-32.34124720346578 L40.83116210334033,-32.34144918766999 C41.11943063432951,-32.8395462175668 41.65796038020004,-33.17458053679911 42.27474158410176,-33.17458053679911 L42.77585269521287,-33.17458053679911 C43.08267755621287,-33.17458053679911 43.331408250768426,-32.92584984224356 43.331408250768426,-32.619024981243555 C43.331408250768426,-32.31220012024355 43.08267755621287,-32.063469425688 42.77585269521287,-32.063469425688 L42.49807491743509,-32.063469425688 C42.191250056435095,-32.063469425688 41.94251936187954,-32.31220012024355 41.94251936187954,-32.619024981243555 L41.94251936187954,-33.141136092354664"
           style="stroke:#a44646;stroke-width:0.25;"
           id="path128" />
        <path
           d="M40.9703465383189,-30.419961204936612 L40.970320849044136,-30.41993419418998 C40.88674049798426,-30.473834220258087 40.831408250768426,-30.5677456091333 40.831408250768426,-30.674580536799112 C40.831408250768426,-30.781344198909764 40.8866667024907,-30.875201558090843 40.970132995721244,-30.929105647627498 M40.969489524527894,-30.928834694793448 L40.969417609297444,-30.928880056513883 C41.13054048572863,-31.049610406958486 41.31983102097938,-31.134761170253512 41.52524784915211,-31.17262283066086 M42.636914899522665,-31.17250361617477 L42.63715592652258,-31.17269897024866 C42.843246568198026,-31.13464583419247 43.03239850021193,-31.049523057414458 43.193379999181865,-30.928894213456545 M43.192647681104035,-30.929085425079748 L43.192673217883176,-30.929112292060783 C43.276154339173274,-30.87519384643253 43.331408250768426,-30.78133981287885 43.331408250768426,-30.674580536799112 C43.331408250768426,-30.56781687468846 43.27614979904615,-30.47395951550738 43.19268350581561,-30.420055425970723 M43.19332697700896,-30.420437489915887 L43.19339889223941,-30.42039212819545 C43.03227601580822,-30.29966177775085 42.84298548055747,-30.214511014455823 42.63756865238475,-30.176649354048475 M42.63764785746577,-30.177066275211697 L42.6389495681044,-30.17679263289958 C42.4614220267438,-30.1388873795329 42.27804025015553,-30.119024981243555 42.090019361879534,-30.119024981243555 C42.087137845799155,-30.119024981243555 42.08425741931282,-30.119029646350253 42.081424000511944,-30.119038821161496 M42.08191646647959,-30.11904089748758 L42.08196556179859,-30.119040728381265 C42.07887820543908,-30.11903017751982 42.07583827937587,-30.119024981243555 42.07279713965732,-30.119024981243555 C41.884661801605866,-30.119024981243555 41.70117122468769,-30.138911567684723 41.52508177907806,-30.176533162165875 M41.525672505896544,-30.1768110496697 L41.52543125957863,-30.176615501894116 C41.31966750230138,-30.214645593834454 41.13079615968243,-30.299596881068933 40.96999594791327,-30.41995900306311 M42.08090003505727,-31.230120176110646 L42.08085093973827,-31.23012034521696 C42.08393829609777,-31.230130896078403 42.08697822216098,-31.230136092354666 42.090019361879534,-31.230136092354666 C42.27831281120016,-31.230136092354666 42.46195368907732,-31.21021606600045 42.638180904034506,-31.172532685096478 M41.52516864407108,-31.172094798386524 L41.52386693343246,-31.172368440698644 C41.701394474793055,-31.210273694065325 41.884776251381325,-31.230136092354666 42.07279713965732,-31.230136092354666 C42.07585450985864,-31.230136092354666 42.07891065341554,-31.230130840465616 42.08191690945261,-31.2301205119202"
           style="stroke:#a44646;stroke-width:0.25;"
           id="path130" />
      </g>
      <path
         d="M43.95628517705438,-1.646802759021419 L43.95628517705438,-61.64680275902125 M35.851733314250794,-1.646802759021419 L45.20628517705438,-1.646802759021419 M15.851733314250776,-61.64680275902125 L45.20628517705438,-61.64680275902125 "
         style="stroke:#a44646;stroke-width:0.25;"
         id="path132" />
    </g>
  </g>
</svg>
