<?xml version="1.0" encoding="UTF-8" standalone="no"?>
<!-- 2016-12-07 19:31:33 Generated by QCAD SVG Exporter -->

<svg
   xmlns:dc="http://purl.org/dc/elements/1.1/"
   xmlns:cc="http://creativecommons.org/ns#"
   xmlns:rdf="http://www.w3.org/1999/02/22-rdf-syntax-ns#"
   xmlns:svg="http://www.w3.org/2000/svg"
   xmlns="http://www.w3.org/2000/svg"
   xmlns:sodipodi="http://sodipodi.sourceforge.net/DTD/sodipodi-0.dtd"
   xmlns:inkscape="http://www.inkscape.org/namespaces/inkscape"
   width="155.45200465923057mm"
   height="58.575065423212mm"
   viewBox="-77.72600232961528 -29.28753271160598 155.45200465923057 58.575065423212"
   version="1.1"
   style="stroke-linecap:round;stroke-linejoin:round;fill:none"
   id="svg2"
   inkscape:version="0.48.5 r10040"
   sodipodi:docname="head_strengthen.svg">
  <metadata
     id="metadata96">
    <rdf:RDF>
      <cc:Work
         rdf:about="">
        <dc:format>image/svg+xml</dc:format>
        <dc:type
           rdf:resource="http://purl.org/dc/dcmitype/StillImage" />
      </cc:Work>
    </rdf:RDF>
  </metadata>
  <defs
     id="defs94" />
  <sodipodi:namedview
     pagecolor="#ffffff"
     bordercolor="#666666"
     borderopacity="1"
     objecttolerance="10"
     gridtolerance="10"
     guidetolerance="10"
     inkscape:pageopacity="0"
     inkscape:pageshadow="2"
     inkscape:window-width="896"
     inkscape:window-height="690"
     id="namedview92"
     showgrid="false"
     inkscape:zoom="0.60455957"
     inkscape:cx="275.4071"
     inkscape:cy="103.77472"
     inkscape:window-x="0"
     inkscape:window-y="0"
     inkscape:window-maximized="0"
     inkscape:current-layer="svg2" />
  <rect
     style="fill:#ffffff;fill-opacity:1;stroke:#ffffff;stroke-opacity:1"
     id="rect3073"
     width="607.05353"
     height="249.7686"
     x="-11.578677"
     y="-14.099523"
     transform="matrix(0.28222223,0,0,0.28222223,-77.726007,-29.287533)"
     ry="0.13044524" />
  <g
     transform="scale(1,-1)"
     id="g4">
    <!-- Line -->
    <path
       d="M70.49494284553761,-23.904175275771294 L70.49494284553761,21.09582472422872 "
       style="stroke:#a44646;stroke-width:0.25;"
       id="path6" />
    <!-- Line -->
    <path
       d="M70.49494284553761,21.09582472422872 L5.494942845537594,21.09582472422872 "
       style="stroke:#a44646;stroke-width:0.25;"
       id="path8" />
    <!-- Line -->
    <path
       d="M5.494942845537594,21.09582472422872 L5.494942845537594,18.09582472422872 "
       style="stroke:#a44646;stroke-width:0.25;"
       id="path10" />
    <!-- Line -->
    <path
       d="M-69.50505715446234,17.09582472422872 L5.494942845537594,18.09582472422872 "
       style="stroke:#a44646;stroke-width:0.25;"
       id="path12" />
    <!-- Text: 机头加强 -->
    <g
       id="g14">
      <path
         d="M-52.8114400728787,7.23544127386454 L-53.16323408180766,5.8244726517635845 L-51.31919588262621,5.8244726517635845 C-52.17031364034278,4.259834179730843 -53.22761073550234,2.876805530344758 -54.50505715446231,1.6753867036053314 L-54.27348219429753,0.08280825885771703 C-53.401015178262185,1.060707303878182 -52.60543941273311,2.1224262670432568 -51.886754897710304,3.2679651483529444 L-53.46460327439164,-3.060438671565201 L-52.01172469321838,-3.060438671565201 L-50.29803506556448,3.8127946162929156 C-50.126574167033716,3.3238450937826842 -49.941068181425024,2.7231356804129723 -49.724064013381664,2.024636362541211 L-48.551448817642836,3.309875107425248 C-48.998976535764,4.03631439801188 -49.46043668988235,4.706873743168769 -49.92534240263974,5.307583156538483 L-49.79646736966577,5.8244726517635845 L-48.23182889763303,5.8244726517635845 L-47.880034888704074,7.23544127386454 L-49.44467336073682,7.23544127386454 L-48.803781304866256,9.805918763632617 L-50.256659886039515,9.805918763632617 L-50.89755194191008,7.23544127386454 Z M-51.09030639939164,-2.166359544689348 L-50.15360385659875,-3.228078507854425 C-49.23926443185135,-2.194299517404218 -48.5205423664683,-1.1046405815242735 -48.00440387844817,0.01295832707054112 C-47.47429540407062,1.130557235665358 -47.01418706292123,2.4716759259791363 -46.62059574600072,4.050284384369315 L-45.63487589919979,8.003790523523476 L-43.65113783644399,8.003790523523476 L-45.99527019297058,-1.3980102950304132 C-46.22515538692414,-2.320029394621136 -45.8127216113177,-2.7950089307739314 -44.73703266179518,-2.7950089307739314 L-44.108383275710594,-2.7950089307739314 C-43.61943375320037,-2.7950089307739314 -43.23183234491198,-2.697219026271888 -42.96303214620216,-2.5156092036252278 C-42.683782620494455,-2.292089421906266 -42.45352192293839,-1.9288697766129506 -42.26528383553538,-1.3980102950304132 C-42.07704574813237,-0.8671508134478758 -41.83311546710087,-0.05689160471663479 -41.56839918315433,1.00482735844844 L-42.8050246034892,1.4239269491714954 C-43.174234157414645,-0.05689160471663479 -43.4146437790866,-0.9090607725201796 -43.519287250506494,-1.1046405815242735 C-43.57160898621645,-1.2024304860263215 -43.620447612927094,-1.2862504041709313 -43.69025999435402,-1.3421303496006733 C-43.76007237578095,-1.3980102950304132 -43.850858511924145,-1.425950267745283 -43.96261840278363,-1.425950267745283 L-44.38171799350668,-1.425950267745283 C-44.479507898008734,-1.425950267745283 -44.50400231208455,-1.3561003359581072 -44.47265433109089,-1.2303704587411914 L-41.828974600624804,9.372849186552124 L-46.746409798441995,9.372849186552124 L-48.07347432717398,4.050284384369315 C-48.46706564409449,2.4716759259791363 -48.860919813536746,1.2842270855971436 -49.24106684914331,0.48793786322333865 C-49.69447182481584,-0.43408123636738427 -50.322520405136444,-1.3281603632432373 -51.09030639939164,-2.166359544689348 M-39.61773641796365,3.4495749709996 L-39.973013535891894,2.024636362541211 L-34.42692895199012,2.024636362541211 C-34.706065826617085,1.6334767445330232 -35.00965956495962,1.256287112882276 -35.33422705801843,0.9070374539463963 C-36.45107495940827,-0.21056145464842047 -38.332901652538496,-1.1465505405965795 -40.948284055694934,-1.8869598175406446 L-40.46199153425852,-3.130288603352377 C-37.88499843081484,-2.431789285480618 -35.898453165544225,-1.4119802813878493 -34.50583884744598,-0.08483157743150471 L-34.107975863960945,0.33426801329155076 C-32.360901461356065,-0.8950907861627457 -31.039967968193334,-2.0406296674724325 -30.14865849347204,-3.1163186169949433 L-28.82570635535973,-2.0685696401873024 C-29.989486889591376,-0.9090607725201796 -31.4606071236866,0.250448095146941 -33.235583948646095,1.4239269491714954 C-33.103000504511336,1.6195067581755893 -32.97041706037657,1.8150865671796832 -32.83435050724251,2.024636362541211 L-27.77721544585097,2.024636362541211 L-27.42193832792272,3.4495749709996 L-32.07394378494864,3.4495749709996 C-31.767054689408056,4.1201343161564905 -31.50559621229932,4.832603620385686 -31.286085244623138,5.600952870044621 L-30.241152544834172,9.79194877727518 L-31.70800111236487,9.79194877727518 L-32.752933812153834,5.600952870044621 C-32.98641476618745,4.832603620385686 -33.26184322965362,4.1201343161564905 -33.59667229790908,3.4495749709996 Z M-37.482656627611505,6.9141315876435305 L-38.52265082885532,5.768592706333844 C-37.558421367310295,5.321553142895917 -36.667412295471,4.692903756811333 -35.84265739533884,3.9105845207949628 L-34.760790785382966,5.112003347534389 C-35.550564394081164,5.810502665406149 -36.46250967027649,6.411212078775863 -37.482656627611505,6.9141315876435305 M-35.39214379740548,9.135359418475728 L-36.42865488964999,8.003790523523476 C-35.60067973304028,7.626600891872725 -34.821505652780964,7.109711396647623 -34.12255573058622,6.4391520514907326 L-33.06162532498637,7.6126309055152905 C-33.739563942104596,8.19937033252757 -34.518738022363905,8.71625982775267 -35.39214379740548,9.135359418475728 M-12.494772902165451,8.297160237029614 L-17.356328154552898,8.297160237029614 L-20.14978157198874,-2.9067688216334155 L-18.72484296353035,-2.9067688216334155 L-18.515856423572558,-2.0685696401873024 L-16.50417838810189,-2.0685696401873024 L-16.713164928059683,-2.9067688216334155 L-15.288226319601286,-2.9067688216334155 Z M-18.160579305644305,-0.643631031728912 L-16.283183555023463,6.886191614928659 L-14.271505519552804,6.886191614928659 L-16.14890127017364,-0.643631031728912 Z M-22.21189349830823,9.777978790917746 L-22.793572701190755,7.4449910692260675 L-24.84716069573373,7.4449910692260675 L-25.20243781366198,6.020052460767677 L-23.148849819119,6.020052460767677 L-23.253343089097896,5.600952870044621 C-24.172958965632688,2.024636362541211 -25.617106461875657,-0.5737810999417361 -27.585785577826794,-2.194299517404218 L-26.659569912392048,-3.242048494211859 C-24.446585011806903,-1.3700703223155433 -22.817569886079482,1.5775967991032855 -21.77252453520977,5.600952870044621 L-21.668031265230873,6.020052460767677 L-20.326912574917095,6.020052460767677 C-21.3231568494364,2.136396253400693 -21.93281357539405,-0.14071152286124455 -22.16636963014816,-0.7973008816606999 C-22.410450112620666,-1.3840403086729771 -22.8083881968262,-1.691380008536553 -23.339247678408732,-1.691380008536553 C-23.688497337344614,-1.691380008536553 -24.086660723711645,-1.6634400358216808 -24.547707823867256,-1.607560090391941 L-24.515383533507112,-2.9347087943482832 C-24.026396460636633,-2.9905887397780253 -23.656173046984478,-3.0185287124928974 -23.432653265265508,-3.0185287124928974 C-22.20329446581121,-3.0185287124928974 -21.37592011496548,-2.501639217267794 -20.981953294442484,-1.4818302131750252 C-20.560121601925104,-0.3502613182227723 -19.748369453287765,2.625345775910924 -18.546696848530452,7.4449910692260675 L-21.312754147302627,7.4449910692260675 L-20.7310749444201,9.777978790917746 Z M-6.603964103910201,4.637023811381593 L-7.607099495707615,0.6136677404402544 L-4.715312319718535,0.6136677404402544 L-5.1681164896270815,-1.2024304860263215 C-6.257700324786526,-1.3141903768858012 -7.354287928304821,-1.3980102950304132 -8.478815504537977,-1.4818302131750252 L-8.47787674553176,-2.8788288489185434 C-6.274252211497284,-2.6692790535570157 -4.171938241324412,-2.417819299123184 -2.170934835013121,-2.1244495856170422 C-2.142769560136763,-2.459729258195488 -2.1355404896164245,-2.8229489034888036 -2.117824541737953,-3.200138535139553 L-0.724646968235966,-2.7111890126293217 C-0.7357722017183406,-1.7472599539662927 -0.8482455494225505,-0.685540990801218 -1.048097024991172,0.4739678768659026 L-2.437866590214348,0.11074823157258917 C-2.38876511098195,-0.19659146829098662 -2.343146740748864,-0.517901154511994 -2.2975283705157707,-0.8392108407330037 C-2.7585003699508803,-0.8950907861627457 -3.2089854920278498,-0.9649407179499216 -3.6699574914629736,-1.0208206633796637 L-3.262433738545269,0.6136677404402544 L-0.3985865352710647,0.6136677404402544 L0.6045488565263568,4.637023811381593 L-2.259298346747862,4.637023811381593 L-2.0259300437950003,5.573012897329752 L0.4048475823987374,5.573012897329752 L1.3522532302073955,9.372849186552124 L-4.920270644281018,9.372849186552124 L-5.867676292089676,5.573012897329752 L-3.478808624968252,5.573012897329752 L-3.7121769279211208,4.637023811381593 Z M-1.4052516609318673,1.8430265398945531 L-2.95592014660717,1.8430265398945531 L-2.565811938685954,3.407665011927296 L-1.0151434530106513,3.407665011927296 Z M-4.408798727780436,1.8430265398945531 L-5.987407186170614,1.8430265398945531 L-5.597298978249398,3.407665011927296 L-4.01869051985922,3.407665011927296 Z M-9.740432568135773,4.944363511245168 L-7.281714969227188,4.944363511245168 L-6.177569416450183,9.372849186552124 L-10.200925487391515,9.372849186552124 L-10.535303951323975,8.031730496238346 L-7.881006543411289,8.031730496238346 L-8.326844495321254,6.24357224248664 L-10.659832217012934,6.24357224248664 L-12.211017333227865,1.8150865671796832 L-9.30526017088134,1.8150865671796832 C-9.667503506808188,0.3622079860064229 -9.960234864190092,-0.5877510862991722 -10.169484256669634,-1.0347906497370976 C-10.378733649149169,-1.4818302131750252 -10.8256230111461,-1.7053499948939868 -11.510152342660426,-1.7053499948939868 C-11.901311960668608,-1.7053499948939868 -12.2855053606782,-1.6774100221791168 -12.655728774330356,-1.649470049464247 L-12.637374470327643,-2.9766187534205915 C-12.253181070318057,-3.004558726135459 -11.882957656665901,-3.0324986988503313 -11.50576802501515,-3.0324986988503313 C-10.199630626135331,-2.9486787807057193 -9.365214956570505,-2.5156092036252278 -8.995554798322082,-1.7053499948939868 C-8.653834612788529,-0.8950907861627457 -8.172940268724119,0.6974876585848664 -7.5808117388437,3.072385339348852 L-10.444658942117918,3.072385339348852 Z M-0.6367237339755434,6.774431724069179 L-4.227010227836388,6.774431724069179 L-3.8786993279067374,8.171430359812698 L-0.2884128340458858,8.171430359812698 Z"
         style="fill:#a44646;fill-rule:evenodd;"
         id="path16" />
    </g>
    <!-- Line -->
    <path
       d="M70.49494284553761,-23.904175275771294 L-69.50505715446234,-23.904175275771294 "
       style="stroke:#a44646;stroke-width:0.25;"
       id="path18" />
    <!-- Line -->
    <path
       d="M-69.50505715446234,17.095824724228606 L-69.50505715446234,-23.904175275771294 "
       style="stroke:#a44646;stroke-width:0.25;"
       id="path20" />
    <!-- Rotated Dimension -->
    <g
       id="g22">
      <path
         d="M-69.50505715446236,-28.037532711606023 L-67.00505715446236,-27.62124805383318 L-67.00505715446236,-28.453817369378864 Z"
         style="stroke:#a44646;stroke-width:0.25;fill:#a44646;fill-rule:evenodd;"
         id="path24" />
      <path
         d="M70.49494284553757,-28.037532711606023 L67.99494284553757,-28.453817369378864 L67.99494284553757,-27.62124805383318 Z"
         style="stroke:#a44646;stroke-width:0.25;fill:#a44646;fill-rule:evenodd;"
         id="path26" />
      <g
         id="g28">
        <path
           d="M-1.8661682655735103,-25.46808826716158 L-1.3106127100179545,-24.912532711606023 L-1.3106127100179545,-27.412532711606023"
           style="stroke:#a44646;stroke-width:0.25;"
           id="path30" />
        <path
           d="M0.49494284553760093,-27.412532711606023 L0.49494284553760093,-26.301421600494912 M0.9116095122042674,-26.856977156050466 L-0.4772793766846214,-26.856977156050466 L0.07827617887093419,-24.912532711606023"
           style="stroke:#a44646;stroke-width:0.25;"
           id="path32" />
        <path
           d="M2.5551177329556576,-25.051470999156496 L2.5551447437022863,-25.051445309881736 C2.5012447176341808,-24.967864958821856 2.4073333287589693,-24.912532711606023 2.3004984010931557,-24.912532711606023 C2.193734738982506,-24.912532711606023 2.099877379801424,-24.967791163328297 2.045973290264769,-25.051257456558837 M2.0462442430988195,-25.050613985365494 L2.0461988813783836,-25.050542070135045 C1.9254685309337831,-25.211664946566223 1.840317767638758,-25.400955481816972 1.8024561072314094,-25.606372309989702 M1.8025753217174993,-26.71803936036026 L1.8023799676436076,-26.71828038736018 C1.8404331036997994,-26.924371029035623 1.9255558804778108,-27.11352296104953 2.0461847244357214,-27.274504460019465 M2.045993512812519,-27.27377214194163 L2.0459666458314856,-27.273797678720776 C2.0998850914597385,-27.35727880001087 2.193739125013416,-27.412532711606023 2.3004984010931557,-27.412532711606023 C2.4072620632038073,-27.412532711606023 2.5011194223848885,-27.35727425988375 2.555023511921543,-27.27380796665321 M2.554641447976382,-27.27445143784655 L2.5546868096968187,-27.274523353077 C2.6754171601414183,-27.113400476645822 2.7605679234364433,-26.924109941395074 2.798429583843793,-26.718693113222344 M2.7980126626805695,-26.71877231830337 L2.7982863049926867,-26.720074028941994 C2.8361915583593684,-26.542546487581397 2.856053956648712,-26.359164710993124 2.856053956648712,-26.171143822717134 C2.856053956648712,-26.168262306636752 2.8560492915420137,-26.16538188015042 2.8560401167307705,-26.162548461349544 M2.856038040404689,-26.163040927317184 L2.8560382095110044,-26.163090022636183 C2.8560487603724467,-26.16000266627668 2.856053956648712,-26.15696274021347 2.856053956648712,-26.15392160049491 C2.856053956648712,-25.965786262443462 2.836167370207544,-25.78229568552529 2.7985457757263936,-25.606206239915654 M2.798267888222568,-25.606796966734144 L2.7984634359981526,-25.606555720416228 C2.7604333440578146,-25.40079196313898 2.6754820568233373,-25.21192062052003 2.5551199348291598,-25.051120408750865 M1.7449587617816236,-26.162024495894862 L1.744958592675308,-26.161975400575862 C1.744948041813866,-26.16506275693537 1.7449428455376008,-26.168102682998576 1.7449428455376008,-26.171143822717134 C1.7449428455376008,-26.359437272037752 1.7648628718918205,-26.54307814991492 1.8025462527957887,-26.719305364872106 M1.802984139505742,-25.606293104908676 L1.8027104971936248,-25.60499139427005 C1.764805243826944,-25.78251893563065 1.7449428455376008,-25.96590071221892 1.7449428455376008,-26.15392160049491 C1.7449428455376008,-26.15697897069623 1.744948097426653,-26.160035114253137 1.7449584259720674,-26.163041370290205"
           style="stroke:#a44646;stroke-width:0.25;"
           id="path34" />
      </g>
      <path
         d="M-69.50505715446236,-28.037532711606023 L70.49494284553757,-28.037532711606023 M-69.50505715446236,-24.52917527577118 L-69.50505715446236,-29.287532711606023 M70.49494284553757,-24.529175275771326 L70.49494284553757,-29.287532711606023 "
         style="stroke:#a44646;stroke-width:0.25;"
         id="path36" />
    </g>
    <!-- Rotated Dimension -->
    <g
       id="g38">
      <path
         d="M70.49494284553765,26.162409637891933 L67.99494284553765,25.74612498011909 L67.99494284553765,26.578694295664775 Z"
         style="stroke:#a44646;stroke-width:0.25;fill:#a44646;fill-rule:evenodd;"
         id="path40" />
      <path
         d="M5.494942845537565,26.162409637891933 L7.994942845537565,26.578694295664775 L7.994942845537565,25.74612498011909 Z"
         style="stroke:#a44646;stroke-width:0.25;fill:#a44646;fill-rule:evenodd;"
         id="path42" />
      <g
         id="g44">
        <path
           d="M37.300498401093165,29.287328903818622 L37.300296416888955,29.28753271160598 C36.80219938699214,28.999264180616805 36.46716506775983,28.46073443474628 36.46716506775983,27.843953230844555 L36.46716506775983,27.342842119733447 C36.46716506775983,27.036017258733445 36.715895762315384,26.78728656417789 37.02272062331539,26.78728656417789 C37.32954548431539,26.78728656417789 37.578276178870944,27.036017258733445 37.578276178870944,27.342842119733447 L37.578276178870944,27.620619897511222 C37.578276178870944,27.927444758511225 37.32954548431539,28.17617545306678 37.02272062331539,28.17617545306678 L36.50060951220428,28.17617545306678"
           style="stroke:#a44646;stroke-width:0.25;"
           id="path46" />
        <path
           d="M39.52272062331539,29.28728656417789 L38.41160951220427,29.28728656417789 L38.41160951220427,28.17617545306678 L38.96716506775983,28.17617545306678 M39.52272062331539,27.620619897511222 C39.52272062331539,27.927444758511225 39.27398992875983,28.17617545306678 38.96716506775983,28.17617545306678 M39.52272062331539,27.620619897511222 L39.52272062331539,27.342842119733447 M38.96716506775983,26.78728656417789 C39.27398992875983,26.78728656417789 39.52272062331539,27.036017258733445 39.52272062331539,27.342842119733447 M38.96716506775983,26.78728656417789 L38.41160951220427,26.78728656417789"
           style="stroke:#a44646;stroke-width:0.25;"
           id="path48" />
      </g>
      <path
         d="M70.49494284553765,26.162409637891933 L5.494942845537565,26.162409637891933 M70.49494284553765,21.72082472422874 L70.49494284553765,27.412409637891933 M5.49494284553756,21.720824724228706 L5.494942845537567,27.412409637891933 "
         style="stroke:#a44646;stroke-width:0.25;"
         id="path50" />
    </g>
    <!-- Rotated Dimension -->
    <g
       id="g52">
      <path
         d="M76.47600232961528,21.09582472422874 L76.89228698738812,18.59582472422874 L76.05971767184245,18.59582472422874 Z"
         style="stroke:#a44646;stroke-width:0.25;fill:#a44646;fill-rule:evenodd;"
         id="path54" />
      <path
         d="M76.47600232961528,-23.904175275771326 L76.05971767184245,-21.404175275771326 L76.89228698738812,-21.404175275771326 Z"
         style="stroke:#a44646;stroke-width:0.25;fill:#a44646;fill-rule:evenodd;"
         id="path56" />
      <g
         id="g58">
        <path
           d="M75.85100232961528,-2.0986197202157366 L74.73989121850417,-2.0986197202157366 M75.29544677405973,-1.6819530535490699 L75.29544677405973,-3.0708419424379585 L73.35100232961528,-2.515286386882403"
           style="stroke:#a44646;stroke-width:0.25;"
           id="path60" />
        <path
           d="M73.35100232961528,0.2624913908953743 L73.35100232961528,-0.8486197202157364 L74.4621134407264,-0.8486197202157364 L74.4621134407264,-0.29306416466018104 M75.01766899628196,0.2624913908953743 C74.71084413528195,0.2624913908953743 74.4621134407264,0.013760696339818912 74.4621134407264,-0.29306416466018104 M75.01766899628196,0.2624913908953743 L75.29544677405973,0.2624913908953743 M75.85100232961528,-0.2930641646601815 C75.85100232961528,0.013760696339818912 75.60227163505972,0.2624913908953743 75.29544677405973,0.2624913908953743 M75.85100232961528,-0.29306416466018104 L75.85100232961528,-0.8486197202157364"
           style="stroke:#a44646;stroke-width:0.25;"
           id="path62" />
      </g>
      <path
         d="M76.47600232961528,21.09582472422874 L76.47600232961528,-23.904175275771326 M71.11994284553765,21.09582472422874 L77.72600232961528,21.09582472422874 M71.11994284553757,-23.904175275771326 L77.72600232961528,-23.904175275771326 "
         style="stroke:#a44646;stroke-width:0.25;"
         id="path64" />
    </g>
    <!-- Rotated Dimension -->
    <g
       id="g66">
      <path
         d="M-74.60100232961528,17.095824724228788 L-74.18471767184245,14.595824724228788 L-75.01728698738812,14.595824724228788 Z"
         style="stroke:#a44646;stroke-width:0.25;fill:#a44646;fill-rule:evenodd;"
         id="path68" />
      <path
         d="M-74.60100232961528,-23.90417527577118 L-75.01728698738812,-21.40417527577118 L-74.18471767184245,-21.40417527577118 Z"
         style="stroke:#a44646;stroke-width:0.25;fill:#a44646;fill-rule:evenodd;"
         id="path70" />
      <g
         id="g72">
        <path
           d="M-75.22600232961528,-3.8208419424378626 L-76.3371134407264,-3.8208419424378626 M-75.78155788517084,-3.404175275771196 L-75.78155788517084,-4.793064164660085 L-77.72600232961528,-4.2375086091045295"
           style="stroke:#a44646;stroke-width:0.25;"
           id="path74" />
        <path
           d="M-77.17044677405973,-2.5708419424378626 L-77.72600232961528,-2.015286386882307 L-75.22600232961528,-2.015286386882307"
           style="stroke:#a44646;stroke-width:0.25;"
           id="path76" />
      </g>
      <path
         d="M-74.60100232961528,17.095824724228788 L-74.60100232961528,-23.90417527577118 M-70.13005715446235,17.095824724228788 L-75.85100232961528,17.095824724228788 M-70.13005715446236,-23.90417527577118 L-75.85100232961528,-23.90417527577118 "
         style="stroke:#a44646;stroke-width:0.25;"
         id="path78" />
    </g>
    <!-- Rotated Dimension -->
    <g
       id="g80">
      <path
         d="M12.069683568639974,21.09582472422872 L11.653398910867134,23.59582472422872 L12.485968226412815,23.59582472422872 Z"
         style="stroke:#a44646;stroke-width:0.25;fill:#a44646;fill-rule:evenodd;"
         id="path82" />
      <path
         d="M12.069683568639974,18.095824724228724 L12.485968226412814,15.595824724228724 L11.653398910867134,15.595824724228724 Z"
         style="stroke:#a44646;stroke-width:0.25;fill:#a44646;fill-rule:evenodd;"
         id="path84" />
      <g
         id="g86">
        <path
           d="M8.944683568639974,19.040269168673163 L8.944683568639974,19.59582472422872 M10.055794679751084,19.59582472422872 C10.055794679751084,19.90264958522872 9.80706398519553,20.151380279784277 9.500239124195529,20.151380279784277 C9.193414263195528,20.151380279784277 8.944683568639974,19.90264958522872 8.944683568639974,19.59582472422872 M10.055794679751084,19.59582472422872 L10.055794679751084,19.31804694645094 M10.61135023530664,20.151380279784277 C10.30452537430664,20.151380279784277 10.055794679751084,19.90264958522872 10.055794679751084,19.59582472422872 M10.61135023530664,20.151380279784277 L10.889128013084418,20.151380279784277 M11.444683568639974,19.59582472422872 C11.444683568639974,19.90264958522872 11.195952874084417,20.151380279784277 10.889128013084418,20.151380279784277 M11.444683568639974,19.59582472422872 L11.444683568639974,19.040269168673163"
           style="stroke:#a44646;stroke-width:0.25;"
           id="path88" />
      </g>
      <path
         d="M12.069683568639974,26.09582472422872 L12.069683568639974,13.095824724228724 M6.119942845537594,21.09582472422872 L13.319683568639974,21.09582472422872 M6.119942845537594,18.095824724228724 L13.319683568639974,18.095824724228724 "
         style="stroke:#a44646;stroke-width:0.25;"
         id="path90" />
    </g>
  </g>
</svg>
