<?xml version="1.0" encoding="UTF-8" standalone="no"?>
<!-- 2016-12-07 16:40:31 Generated by QCAD SVG Exporter -->

<svg
   xmlns:dc="http://purl.org/dc/elements/1.1/"
   xmlns:cc="http://creativecommons.org/ns#"
   xmlns:rdf="http://www.w3.org/1999/02/22-rdf-syntax-ns#"
   xmlns:svg="http://www.w3.org/2000/svg"
   xmlns="http://www.w3.org/2000/svg"
   xmlns:sodipodi="http://sodipodi.sourceforge.net/DTD/sodipodi-0.dtd"
   xmlns:inkscape="http://www.inkscape.org/namespaces/inkscape"
   width="334.5676845263472mm"
   height="94.80774857486603mm"
   viewBox="-163.24100722271635 -48.84525612839567 334.5676845263472 94.80774857486603"
   version="1.1"
   style="stroke-linecap:round;stroke-linejoin:round;fill:none"
   id="svg2"
   inkscape:version="0.48.5 r10040"
   sodipodi:docname="motor_and_battery_place.svg">
  <metadata
     id="metadata68">
    <rdf:RDF>
      <cc:Work
         rdf:about="">
        <dc:format>image/svg+xml</dc:format>
        <dc:type
           rdf:resource="http://purl.org/dc/dcmitype/StillImage" />
      </cc:Work>
    </rdf:RDF>
  </metadata>
  <defs
     id="defs66" />
  <sodipodi:namedview
     pagecolor="#ffffff"
     bordercolor="#666666"
     borderopacity="1"
     objecttolerance="10"
     gridtolerance="10"
     guidetolerance="10"
     inkscape:pageopacity="0"
     inkscape:pageshadow="2"
     inkscape:window-width="976"
     inkscape:window-height="707"
     id="namedview64"
     showgrid="false"
     inkscape:zoom="0.53480624"
     inkscape:cx="603.86356"
     inkscape:cy="167.96648"
     inkscape:window-x="185"
     inkscape:window-y="21"
     inkscape:window-maximized="0"
     inkscape:current-layer="svg2" />
  <rect
     style="fill:#ffffff;fill-opacity:1;stroke:#ffffff;stroke-opacity:1"
     id="rect3011"
     width="1475.3007"
     height="525.42395"
     x="-99.101311"
     y="-77.300819"
     transform="matrix(0.28222223,0,0,0.28222223,-163.24102,-48.845256)"
     ry="0.46220756" />
  <g
     transform="matrix(0.92773599,0,0,-0.92773599,0.85954059,-0.89120753)"
     id="g4">
    <!-- Line -->
    <path
       d="m -163.24101,-40.962492 0,85"
       style="stroke:#a44646;stroke-width:0.26947322"
       id="path6"
       inkscape:connector-curvature="0" />
    <!-- Line -->
    <path
       d="m -163.24101,44.037508 40,0"
       style="stroke:#a44646;stroke-width:0.26947322"
       id="path8"
       inkscape:connector-curvature="0" />
    <!-- Line -->
    <path
       d="m -163.24101,-40.962492 70.000003,0"
       style="stroke:#a44646;stroke-width:0.26947322"
       id="path10"
       inkscape:connector-curvature="0" />
    <!-- Line -->
    <path
       d="m -93.241007,-40.962492 0,-5"
       style="stroke:#a44646;stroke-width:0.26947322"
       id="path12"
       inkscape:connector-curvature="0" />
    <!-- Line -->
    <path
       d="m -33.241007,-0.96249245 0,25.00000045"
       style="stroke:#a44646;stroke-width:0.26947322"
       id="path14"
       inkscape:connector-curvature="0" />
    <!-- Line -->
    <path
       d="m -33.241007,-0.96249245 -60,0"
       style="stroke:#a44646;stroke-width:0.26947322"
       id="path16"
       inkscape:connector-curvature="0" />
    <!-- Line -->
    <path
       d="M -123.24101,44.037508 -93.241007,-0.96249245"
       style="stroke:#a44646;stroke-width:0.26947322"
       id="path18"
       inkscape:connector-curvature="0" />
    <!-- Line -->
    <path
       d="m 136.75899,-45.962492 0,44.99999955"
       style="stroke:#a44646;stroke-width:0.26947322"
       id="path20"
       inkscape:connector-curvature="0" />
    <!-- Line -->
    <path
       d="m 71.758993,-0.96249245 0,-3.99999995"
       style="stroke:#a44646;stroke-width:0.26947322"
       id="path22"
       inkscape:connector-curvature="0" />
    <!-- Line -->
    <path
       d="m 71.758993,-4.9624924 -75.0000002,-4"
       style="stroke:#a44646;stroke-width:0.26947322"
       id="path24"
       inkscape:connector-curvature="0" />
    <!-- Hatch -->
    <!-- Line -->
    <path
       d="m 136.75899,-0.96249245 -23,0"
       style="stroke:#a44646;stroke-width:0.26947322"
       id="path26"
       inkscape:connector-curvature="0" />
    <!-- Line -->
    <path
       d="m 113.75899,-0.96249245 0,-19.99999955"
       style="stroke:#a44646;stroke-width:0.26947322"
       id="path28"
       inkscape:connector-curvature="0" />
    <!-- Line -->
    <path
       d="m 113.75899,-20.962492 -31.999997,0"
       style="stroke:#a44646;stroke-width:0.26947322"
       id="path30"
       inkscape:connector-curvature="0" />
    <!-- Line -->
    <path
       d="m 81.758993,-20.962492 0,19.99999955"
       style="stroke:#a44646;stroke-width:0.26947322"
       id="path32"
       inkscape:connector-curvature="0" />
    <!-- Line -->
    <path
       d="m 81.758993,-0.96249245 -10,0"
       style="stroke:#a44646;stroke-width:0.26947322"
       id="path34"
       inkscape:connector-curvature="0" />
    <!-- Text: 机身 -->
    <g
       id="g36">
      <path
         d="m 21.198738,-19.453766 -0.351794,-1.410968 1.844038,0 c -0.851118,-1.564639 -1.908415,-2.947667 -3.185861,-4.149086 l 0.231574,-1.592579 c 0.872468,0.977899 1.668043,2.039618 2.386728,3.185157 l -1.577849,-6.328404 1.452879,0 1.71369,6.873234 c 0.171461,-0.48895 0.356967,-1.089659 0.573971,-1.788159 l 1.172615,1.285239 c -0.447528,0.726439 -0.908988,1.396999 -1.373894,1.997708 l 0.128875,0.51689 1.564639,0 0.351794,1.410968 -1.564639,0 0.640892,2.570478 -1.452878,0 -0.640892,-2.570478 z m 1.721133,-9.401801 0.936703,-1.061719 c 0.914339,1.033779 1.633061,2.123438 2.1492,3.241037 0.530108,1.117599 0.990217,2.458718 1.383808,4.037326 l 0.98572,3.953507 1.983738,0 -2.344133,-9.401801 c -0.229885,-0.922019 0.182549,-1.396999 1.258238,-1.396999 l 0.628649,0 c 0.48895,0 0.876551,0.09779 1.145352,0.2794 0.279249,0.22352 0.50951,0.586739 0.697748,1.117599 0.188238,0.530859 0.432168,1.341118 0.696885,2.402837 l -1.236626,0.4191 c -0.369209,-1.480819 -0.609619,-2.332988 -0.714263,-2.528568 -0.05232,-0.09779 -0.10116,-0.181609 -0.170972,-0.237489 -0.06981,-0.05588 -0.160599,-0.08382 -0.272359,-0.08382 l -0.419099,0 c -0.09779,0 -0.122285,0.06985 -0.09094,0.19558 l 2.64368,10.603219 -4.917435,0 -1.327065,-5.322565 c -0.393591,-1.578608 -0.787445,-2.766057 -1.167592,-3.562346 -0.453405,-0.922019 -1.081454,-1.816098 -1.84924,-2.654298 m 17.995681,12.111979 c -0.18483,-0.40513 -0.408087,-0.79629 -0.641831,-1.173479 l -2.835907,0 -1.640544,-6.579864 -1.564639,0 -0.334378,-1.341118 7.487913,0 c -1.857295,-1.061719 -4.518033,-1.871979 -8.01712,-2.458718 l 0.329177,-1.313179 c 2.856543,0.47498 5.405521,1.285239 7.650417,2.444748 0.244381,0.1397 0.485279,0.26543 0.729659,0.405129 l -0.341344,-1.369058 c -0.0627,-0.25146 -0.209287,-0.39116 -0.418837,-0.39116 l -1.379583,0.06985 0.01839,-1.383029 1.494788,0 c 0.866139,0 1.414152,0.46101 1.644037,1.383029 l 0.710554,2.849877 c 1.204301,0.908049 2.279277,1.969768 3.252867,3.185157 l -1.048275,0.782319 c -0.460522,-0.726439 -1.036323,-1.410968 -1.730889,-2.067558 l 1.442007,5.783575 -3.897626,0 c 0.216328,0.307339 0.4082,0.628649 0.575614,0.963929 z m -3.665404,-7.753343 0.254267,1.019809 5.392415,0 -0.254267,-1.019809 z m 0.560781,2.249168 0.222919,0.894079 5.392415,0 -0.222919,-0.894079 z m 0.525949,2.109468 0.233369,0.935989 5.392414,0 -0.233368,-0.935989 z"
         style="fill:#a44646;fill-rule:evenodd"
         id="path38"
         inkscape:connector-curvature="0" />
    </g>
    <!-- Text: 电池槽 -->
    <g
       id="g40">
      <path
         d="m 139.72659,14.120072 2.36931,0 -0.32045,-1.285238 -2.36931,0 z m 1.77857,-2.369309 -0.30094,-1.207007 c -0.28143,-1.128775 0.10173,-1.6987505 1.16345,-1.6987505 l 2.86105,0 c 0.5588,0 0.96386,0.1005839 1.22358,0.2905757 0.25411,0.2123438 0.5359,0.8046712 0.85377,1.7658058 l -1.02564,0.368808 c -0.19793,-0.659383 -0.35134,-1.050543 -0.4714,-1.173479 -0.12845,-0.1117596 -0.29884,-0.1676396 -0.51119,-0.1676396 l -2.39166,0 c -0.45821,0 -0.61486,0.2682236 -0.48389,0.7934956 l 0.25635,1.028191 3.59867,0 1.45455,5.833866 -3.59867,0 0.3511,1.408175 -1.17348,0 -0.3511,-1.408175 -3.53161,0 -1.66911,-6.694417 1.16231,0 0.21456,0.860551 z m 1.44377,1.084071 0.32045,1.285238 2.44754,0 -0.32045,-1.285238 z m 3.03549,2.358133 -2.44754,0 0.32323,1.296415 2.44755,0 z m -3.29778,1.296415 -0.32324,-1.296415 -2.36931,0 0.32324,1.296415 z m 13.39669,-7.5437926 c 0.64821,0 1.1259,0.1229359 1.43029,0.3576317 0.30996,0.2570477 0.64476,0.9723109 1.02675,2.1457899 l -1.00329,0.368808 c -0.26484,-0.882904 -0.48243,-1.396999 -0.64437,-1.553463 -0.17873,-0.134112 -0.43293,-0.212344 -0.74586,-0.212344 l -2.87223,0 c -0.35763,0 -0.49186,0.178816 -0.40548,0.525272 l 1.02821,4.12394 1.32968,0.402335 -0.98921,-3.967476 1.15113,0 1.08394,4.34746 1.42744,0.435864 c -0.3288,-1.318767 -0.54342,-2.08991 -0.61872,-2.302254 -0.0837,-0.245872 -0.19532,-0.379984 -0.32943,-0.379984 -0.20117,0 -0.44426,0.01118 -0.72366,0.01118 l 0.0538,-1.084071 0.17881,0 c 0.84938,0 1.408,0.268224 1.6619,0.793495 0.24551,0.536448 0.68035,2.056382 1.30453,4.559804 l -2.65096,-0.815847 0.58238,2.335782 -1.15113,0 -0.6799,-2.726942 -1.33246,-0.413511 0.535,2.14579 -1.1623,0 -0.63253,-2.53695 -0.86037,-0.268224 -0.29258,-1.173479 0.85758,0.257048 -0.97806,-3.922772 c -0.23963,-0.9611351 0.10715,-1.4528786 1.06829,-1.4528786 z m -4.99116,9.9242786 -1.02765,-0.804671 c 0.69891,-0.603504 1.205,-1.173479 1.53504,-1.687575 l 1.0444,0.827023 c -0.39712,0.5588 -0.91997,1.106423 -1.55179,1.665223 m -0.88385,-2.738118 -1.02765,-0.804671 c 0.64859,-0.581151 1.11835,-1.117599 1.41486,-1.631694 l 1.036,0.838199 c -0.35799,0.536447 -0.8417,1.061719 -1.42321,1.598166 m 0.14175,-3.062221 c -0.78702,-1.318766 -1.65509,-2.604005 -2.59581,-3.8668918 l 1.0453,-0.5140955 c 0.86531,1.2293588 1.70821,2.5481253 2.50635,3.9563003 z m 14.34745,3.755133 -0.91118,-3.654549 6.02386,0 0.91118,3.654549 -1.60934,0 0.13375,0.536447 1.84404,0 0.23685,0.949959 -1.84404,0 0.18112,0.72644 -1.05054,0 -0.18112,-0.72644 -0.72644,0 0.18112,0.72644 -1.05054,0 -0.18113,-0.72644 -1.86639,0 -0.23685,-0.949959 1.86639,0 -0.13375,-0.536447 z m 3.49772,0.536447 -0.13375,-0.536447 -0.72644,0 0.13376,0.536447 z m 0.86287,-3.442204 -0.81585,0 0.17555,0.704087 0.81585,0 z m -1.68758,0 -0.79349,0 0.17555,0.704087 0.79349,0 z m -1.66522,0 -0.79349,0 0.17555,0.704087 0.79349,0 z m -0.43682,1.430526 0.1644,0.659384 0.7935,0 -0.16441,-0.659384 z m 1.82962,0.659384 0.7935,0 -0.16441,-0.659384 -0.79349,0 z m 1.66522,0 0.81585,0 -0.1644,-0.659384 -0.81585,0 z m 0.52471,-3.319269 -5.27506,0 -1.00871,-4.0457083 1.07289,0 0.10032,0.4023356 3.14045,0 -0.10031,-0.4023356 1.06171,0 z m -4.88764,-2.7492936 0.13932,0.5587996 3.14045,0 -0.13932,-0.5587996 z m 0.33995,1.3634706 0.13932,0.5588 3.14045,0 -0.13932,-0.5588 z m -2.16443,2.793997 c 0.12314,-0.312927 0.25752,-0.715263 0.40593,-1.19583 l 0.83199,0.916431 c -0.29654,0.558799 -0.60143,1.084071 -0.92027,1.553462 l 0.12261,0.491744 1.00584,0 0.26472,1.061719 -1.00584,0 0.52107,2.08991 -1.09525,0 -0.52107,-2.08991 -1.25171,0 -0.26472,-1.061719 1.19583,0 c -0.61944,-1.229359 -1.38426,-2.324606 -2.31681,-3.285741 l 0.17969,-1.296415 c 0.60021,0.748791 1.15008,1.564639 1.66078,2.447542 l -1.25949,-5.0515473 1.09525,0 z"
         style="fill:#a44646;fill-rule:evenodd"
         id="path42"
         inkscape:connector-curvature="0" />
    </g>
    <!-- Leader -->
    <path
       d="m -27.099664,22.739031 1.014562,2.322489 0.697843,-0.454078 z"
       style="fill:#a44646;fill-rule:evenodd;stroke:#a44646;stroke-width:0.26947322"
       id="path44"
       inkscape:connector-curvature="0" />
    <path
       d="m -27.099664,22.739031 13.858657,21.298477"
       style="stroke:#a44646;stroke-width:0.26947322"
       id="path46"
       inkscape:connector-curvature="0" />
    <!-- Leader -->
    <path
       d="m 97.463447,-9.0100307 1.945846,1.6238769 0.421212,-0.7181584 z"
       style="fill:#a44646;fill-rule:evenodd;stroke:#a44646;stroke-width:0.26947322"
       id="path48"
       inkscape:connector-curvature="0" />
    <path
       d="M 97.463447,-9.0100307 136.75899,14.037508"
       style="stroke:#a44646;stroke-width:0.26947322"
       id="path50"
       inkscape:connector-curvature="0" />
    <!-- Text: 粘电机处
 -->
    <g
       id="g52">
      <path
         d="m -8.1180234,42.541998 c 0.1511612,-0.424687 0.3079856,-0.961135 0.4872219,-1.58699 l 0.9073808,0.994663 c -0.3636252,0.603503 -0.7411828,1.151127 -1.1326729,1.64287 l 0.083595,0.33528 1.5311105,0 0.2702893,1.084071 -1.5311105,0 0.9501921,3.811012 -1.1175989,0 -0.9501921,-3.811012 -1.5646388,0 -0.270289,-1.084071 1.3969987,0 C -9.6829022,42.89963 -10.478583,41.994375 -11.439177,41.189704 l 0.182413,-1.195831 c 0.748281,0.759967 1.4294451,1.609342 2.0211417,2.548125 l -1.0059217,-4.034532 1.1175987,0 z m 2.069436,5.520939 c -0.2760124,-0.882903 -0.6275304,-1.665222 -1.0629434,-2.335782 l 0.7489715,-0.268224 c 0.4940494,0.72644 0.9014173,1.553463 1.2109276,2.48107 z M -8.6441132,47.917649 -9.599465,47.627073 c 0.056361,-0.715263 0.056871,-1.47523 0.018281,-2.257549 l 0.8939289,0.223519 c 0.060882,0.871727 0.07712,1.654047 0.043142,2.324606 m 5.707513,0.927607 -1.2093354,-4.850379 -1.6763984,0 -1.3709517,-5.498587 1.106423,0 0.1198189,0.480568 2.7269413,0 -0.1170324,-0.469392 1.1175989,0 1.36816521,5.487411 -2.13461391,0 0.4625569,1.855214 2.44754158,0 0.27307574,1.095247 -2.44754162,0 0.4737028,1.899918 z m -2.7573678,-8.773151 0.7077677,2.838701 2.7269413,0 -0.7077677,-2.838701 z m 8.1977759,3.878068 2.3693097,0 -0.320446,-1.285239 -2.3693097,0 z m 1.7785744,-2.36931 -0.3009406,-1.207007 c -0.2814352,-1.128774 0.1017255,-1.69875 1.1634444,-1.69875 l 2.8610532,0 c 0.5587995,0 0.9638615,0.100584 1.2235756,0.290576 0.254111,0.212344 0.5359067,0.804671 0.853776,1.765806 L 9.0576466,41.100296 C 8.8597159,40.440912 8.7063089,40.049753 8.5862496,39.926817 8.4578009,39.815057 8.2874046,39.759177 8.0750608,39.759177 l -2.3916617,0 c -0.4582155,0 -0.6148596,0.268224 -0.4838947,0.793495 l 0.2563568,1.028191 3.5986685,0 1.4545463,5.833867 -3.5986685,0 0.3510974,1.408174 -1.1734788,0 -0.3510974,-1.408174 -3.5316126,0 -1.66910582,-6.694418 1.16230282,0 0.2145596,0.860551 z m 1.4437682,1.084071 0.320446,1.285239 2.4475416,0 -0.320446,-1.285239 z m 3.0354904,2.358134 -2.4475416,0 0.3232325,1.296415 2.4475416,0 z m -3.297788,1.296415 -0.3232325,-1.296415 -2.3693097,0 0.3232325,1.296415 z m 7.079674,0.469391 -0.281436,-1.128775 1.475231,0 C 13.056428,44.408388 12.21059,43.301966 11.188633,42.34083 l 0.18526,-1.274062 c 0.697974,0.782319 1.334434,1.631694 1.909382,2.548125 l -1.262279,-5.062723 1.162303,0 1.370952,5.498587 c 0.137168,-0.39116 0.285573,-0.871727 0.459176,-1.430527 l 0.938093,1.028191 c -0.358023,0.581152 -0.727191,1.117599 -1.099115,1.598167 l 0.1031,0.413511 1.251711,0 0.281435,1.128775 -1.251711,0 0.512714,2.056382 -1.162303,0 -0.512714,-2.056382 z m 1.376907,-7.521441 0.749362,-0.849375 c 0.731471,0.827024 1.306449,1.698751 1.71936,2.59283 0.424086,0.894079 0.792173,1.966974 1.107046,3.229861 l 0.788576,3.162805 1.58699,0 -1.875306,-7.521441 c -0.183908,-0.737615 0.146039,-1.117599 1.006591,-1.117599 l 0.502919,0 c 0.39116,0 0.701241,0.07823 0.916281,0.22352 0.2234,0.178816 0.407608,0.469391 0.558199,0.894079 0.15059,0.424687 0.345734,1.072895 0.557507,1.92227 l -0.9893,0.33528 c -0.295368,-1.184655 -0.487695,-1.866391 -0.57141,-2.022854 -0.04186,-0.07823 -0.08093,-0.145288 -0.136778,-0.189992 -0.05585,-0.0447 -0.128479,-0.06706 -0.217887,-0.06706 l -0.33528,0 c -0.07823,0 -0.09783,0.05588 -0.07275,0.156464 l 2.114944,8.482575 -3.933948,0 -1.061652,-4.258051 C 16.019025,42.977858 15.703942,42.027899 15.399824,41.390867 15.0371,40.653252 14.534661,39.937989 13.920433,39.267429 m 12.234065,9.577823 C 25.23954,46.654762 24.092371,44.922484 22.70742,43.626069 l 0.542711,-1.005839 c 0.39092,0.357632 0.76506,0.737615 1.127994,1.162303 0.04246,-0.815847 0.143523,-1.53111 0.294804,-2.134614 -0.826482,-0.804671 -1.759242,-1.452878 -2.801065,-1.955798 l 0.347207,-1.117599 c 1.04461,0.514096 2.010897,1.162303 2.879297,1.955798 0.137079,-0.257048 0.293693,-0.480567 0.483805,-0.659383 0.833136,-0.782319 2.431573,-1.184655 4.789707,-1.184655 l 1.251711,0 0.538423,1.218183 c -0.71802,-0.05588 -1.408115,-0.08941 -2.067498,-0.08941 -1.760234,0.02235 -2.978627,0.33528 -3.635614,0.927607 -0.184509,0.156464 -0.349513,0.39116 -0.478232,0.681735 1.136294,1.285239 2.071209,2.883406 2.801959,4.783324 l 0.259144,1.039367 -2.436366,0 c 0.223219,0.447039 0.426873,0.905255 0.638887,1.396998 z m -0.771436,-3.721604 c 0.21492,0.324103 0.421451,0.659383 0.633554,1.017015 l 1.609342,0 C 27.073634,44.8219 26.39268,43.659597 25.611022,42.67611 c -0.126173,0.659384 -0.20216,1.475231 -0.227959,2.447542 m 5.197158,3.6769 -2.062,-8.270232 1.173478,0 1.04772,4.202172 c 0.436194,-0.491743 0.956313,-1.139951 1.532432,-1.966974 l 0.954841,1.050543 c -0.715804,0.804671 -1.442724,1.519935 -2.18076,2.14579 l 0.707768,2.838701 z"
         style="fill:#a44646;fill-rule:evenodd"
         id="path54"
         inkscape:connector-curvature="0" />
      <path
         d="M -11.439177,28.932307"
         style="stroke:#a44646;stroke-width:0.26947322"
         id="path56"
         inkscape:connector-curvature="0" />
    </g>
    <!-- Line -->
    <path
       d="m -3.2410072,-8.9624924 0,23.0000004"
       style="stroke:#a44646;stroke-width:0.26947322"
       id="path58"
       inkscape:connector-curvature="0" />
    <!-- Line -->
    <path
       d="m -33.241007,24.037508 29.9999998,-10"
       style="stroke:#a44646;stroke-width:0.26947322"
       id="path60"
       inkscape:connector-curvature="0" />
    <!-- Line -->
    <path
       d="m -93.241007,-45.962492 229.999997,0"
       style="stroke:#a44646;stroke-width:0.26947322"
       id="path62"
       inkscape:connector-curvature="0" />
  </g>
</svg>
