<?xml version="1.0" encoding="UTF-8" standalone="no"?>
<!-- 2016-12-07 19:38:04 Generated by QCAD SVG Exporter -->

<svg
   xmlns:dc="http://purl.org/dc/elements/1.1/"
   xmlns:cc="http://creativecommons.org/ns#"
   xmlns:rdf="http://www.w3.org/1999/02/22-rdf-syntax-ns#"
   xmlns:svg="http://www.w3.org/2000/svg"
   xmlns="http://www.w3.org/2000/svg"
   xmlns:sodipodi="http://sodipodi.sourceforge.net/DTD/sodipodi-0.dtd"
   xmlns:inkscape="http://www.inkscape.org/namespaces/inkscape"
   width="314.9970179433487mm"
   height="83.4243474586583mm"
   viewBox="-157.49850897167434 -41.71217372932922 314.9970179433487 83.4243474586583"
   version="1.1"
   style="stroke-linecap:round;stroke-linejoin:round;fill:none"
   id="svg2"
   inkscape:version="0.48.5 r10040"
   sodipodi:docname="wing.svg">
  <metadata
     id="metadata52">
    <rdf:RDF>
      <cc:Work
         rdf:about="">
        <dc:format>image/svg+xml</dc:format>
        <dc:type
           rdf:resource="http://purl.org/dc/dcmitype/StillImage" />
      </cc:Work>
    </rdf:RDF>
  </metadata>
  <defs
     id="defs50" />
  <sodipodi:namedview
     pagecolor="#ffffff"
     bordercolor="#666666"
     borderopacity="1"
     objecttolerance="10"
     gridtolerance="10"
     guidetolerance="10"
     inkscape:pageopacity="0"
     inkscape:pageshadow="2"
     inkscape:window-width="835"
     inkscape:window-height="582"
     id="namedview48"
     showgrid="false"
     showguides="true"
     inkscape:guide-bbox="true"
     inkscape:zoom="0.63433408"
     inkscape:cx="558.06555"
     inkscape:cy="147.79904"
     inkscape:window-x="211"
     inkscape:window-y="0"
     inkscape:window-maximized="0"
     inkscape:current-layer="svg2" />
  <rect
     style="fill:#ffffff;fill-opacity:1;stroke:#ffffff;stroke-opacity:1"
     id="rect3048"
     width="1136.625"
     height="335.78522"
     x="-6.3058252"
     y="-11.810906"
     transform="matrix(0.28222224,0,0,0.28222224,-157.49851,-41.712176)"
     ry="0.13044524" />
  <g
     transform="matrix(0.96608505,0,0,-0.96608505,-0.45177137,0.52908342)"
     id="g4">
    <!-- Line -->
    <path
       d="m -147.50149,-33.287826 305,0"
       style="stroke:#a44646;stroke-width:0.2587764"
       id="path6"
       inkscape:connector-curvature="0" />
    <!-- Text: 机翼 -->
    <g
       id="g8">
      <path
         d="m 9.1921261,33.44789 -0.3517941,-1.410969 1.844038,0 C 9.8332525,30.472283 8.7759554,29.089254 7.498509,27.887835 l 0.2315749,-1.592578 c 0.872467,0.977899 1.6680428,2.039618 2.3867271,3.185157 l -1.5778481,-6.328404 1.4528785,0 1.7136896,6.873233 c 0.171461,-0.488949 0.356967,-1.089659 0.573971,-1.788158 l 1.172615,1.285239 c -0.447527,0.726439 -0.908988,1.396998 -1.373893,1.997708 l 0.128875,0.516889 1.564638,0 0.351794,1.410969 -1.564638,0 0.640892,2.570477 -1.452879,0 -0.640892,-2.570477 z M 10.91326,24.046089 11.849962,22.98437 c 0.91434,1.033779 1.633062,2.123438 2.1492,3.241037 0.530109,1.117599 0.990217,2.458718 1.383808,4.037326 l 0.98572,3.953506 1.983738,0 -2.344132,-9.401801 c -0.229885,-0.922019 0.182549,-1.396998 1.258237,-1.396998 l 0.62865,0 c 0.488949,0 0.876551,0.09779 1.145351,0.279399 0.27925,0.22352 0.50951,0.58674 0.697748,1.117599 0.188238,0.53086 0.432169,1.341119 0.696885,2.402838 l -1.236625,0.4191 c -0.36921,-1.480819 -0.60962,-2.332988 -0.714263,-2.528568 -0.05232,-0.09779 -0.10116,-0.18161 -0.170973,-0.23749 -0.06981,-0.05588 -0.160598,-0.08382 -0.272358,-0.08382 l -0.4191,0 c -0.09779,0 -0.122284,0.06985 -0.09094,0.19558 l 2.64368,10.60322 -4.917436,0 -1.327064,-5.322565 C 13.5365,28.684125 13.142646,27.496676 12.762499,26.700387 12.309094,25.778367 11.681046,24.884288 10.91326,24.046089 m 13.326485,11.706849 -0.271683,-1.089659 0.62865,0 -0.537375,-0.6985 c 0.670634,-0.111759 1.327336,-0.279399 1.942166,-0.502919 -0.862544,-0.15367 -1.732091,-0.2794 -2.591189,-0.36322 l 0.01472,-1.117599 c 1.403815,0.25146 2.748229,0.54483 4.033242,0.88011 l -0.177638,-0.71247 1.369059,0 0.898642,3.604257 z m 1.111346,-1.089659 2.556508,0 -0.21247,-0.852169 c -0.384118,-0.08382 -0.768237,-0.16764 -1.180295,-0.25146 l 0.376814,0.558799 c -0.47513,0.22352 -0.988649,0.40513 -1.540557,0.54483 m 4.672228,1.089659 -0.271682,-1.089659 0.754379,0 -0.498986,-0.65659 c 0.656665,-0.111759 1.285427,-0.279399 1.907223,-0.474979 -0.813668,-0.12573 -1.648309,-0.22352 -2.479467,-0.30734 l 7.51e-4,-1.117599 c 1.354939,0.22352 2.660964,0.47498 3.932045,0.75438 l -0.177639,-0.71247 1.369059,0 0.898642,3.604257 z m 1.418686,-1.089659 2.374898,0 -0.205504,-0.824229 -1.058085,-0.20955 0.341908,0.530859 c -0.454156,0.19558 -0.943219,0.36322 -1.453217,0.50292 m -7.02158,-2.724148 -0.933473,-3.743956 1.746248,0 -0.125392,-0.502919 -2.402837,0 -0.257751,-1.033779 2.402838,0 -0.139324,-0.5588 -3.213097,0 -0.264716,-1.061719 3.827776,0 c -1.06846,-0.363219 -2.329054,-0.656589 -3.785266,-0.894079 l 0.269702,-1.159509 c 1.759955,0.39116 3.28935,0.866139 4.609119,1.452879 l -0.381086,0.600709 2.989577,0 -0.537375,-0.698499 c 1.37625,-0.30734 2.66179,-0.754379 3.860101,-1.327149 l 0.722205,1.103629 c -0.953705,0.37719 -1.966736,0.684529 -3.039092,0.922019 l 3.590287,0 0.264716,1.061719 -3.213097,0 0.139325,0.5588 2.472687,0 0.25775,1.033779 -2.472687,0 0.125392,0.502919 1.816098,0 0.933473,3.743956 z m 1.603487,-5.839454 0.139325,0.5588 3.073397,0 -0.139325,-0.5588 z m 3.470472,1.592579 -3.073397,0 0.125392,0.502919 3.073397,0 z m 2.125945,1.466848 -2.612388,0 0.118426,0.47498 2.612387,0 z m -3.925567,0 -2.598417,0 0.118426,0.47498 2.598417,0 z m -2.264039,1.341119 0.114943,0.461009 2.598418,0 -0.114943,-0.461009 z m 4.026539,0.461009 2.612388,0 -0.114943,-0.461009 -2.612387,0 z"
         style="fill:#a44646;fill-rule:evenodd"
         id="path10"
         inkscape:connector-curvature="0" />
    </g>
    <!-- Line -->
    <path
       d="m -147.50149,-33.287826 0,75"
       style="stroke:#a44646;stroke-width:0.2587764"
       id="path12"
       inkscape:connector-curvature="0" />
    <!-- Line -->
    <path
       d="m 157.49851,-33.287826 0,75"
       style="stroke:#a44646;stroke-width:0.2587764"
       id="path14"
       inkscape:connector-curvature="0" />
    <!-- Line -->
    <path
       d="m -147.50149,41.712174 305,0"
       style="stroke:#a44646;stroke-width:0.2587764"
       id="path16"
       inkscape:connector-curvature="0" />
    <!-- Rotated Dimension -->
    <g
       id="g18">
      <path
         d="m -154.37351,41.712174 0.41629,-2.5 -0.83257,0 z"
         style="fill:#a44646;fill-rule:evenodd;stroke:#a44646;stroke-width:0.2587764"
         id="path20"
         inkscape:connector-curvature="0" />
      <path
         d="m -154.37351,-33.287826 -0.41628,2.5 0.83257,0 z"
         style="fill:#a44646;fill-rule:evenodd;stroke:#a44646;stroke-width:0.2587764"
         id="path22"
         inkscape:connector-curvature="0" />
      <g
         id="g24">
        <path
           d="m -157.49851,2.684396 0,1.1111111 2.5,-0.6944445 m -1.38889,0.1388889 0,0.5555556"
           style="stroke:#a44646;stroke-width:0.2587764"
           id="path26"
           inkscape:connector-curvature="0" />
        <path
           d="m -157.49851,5.7399515 0,-1.1111111 1.11111,0 0,0.5555556 m 0.55556,0.5555555 c -0.30683,0 -0.55556,-0.2487307 -0.55556,-0.5555555 m 0.55556,0.5555555 0.27778,0 m 0.55555,-0.5555555 c 0,0.3068248 -0.24873,0.5555555 -0.55555,0.5555555 m 0.55555,-0.5555555 0,-0.5555556"
           style="stroke:#a44646;stroke-width:0.2587764"
           id="path28"
           inkscape:connector-curvature="0" />
      </g>
      <path
         d="m -154.37351,41.712174 0,-75 m 6.24702,75 -7.49702,0 m 7.49702,-75 -7.49702,0"
         style="stroke:#a44646;stroke-width:0.2587764"
         id="path30"
         inkscape:connector-curvature="0" />
    </g>
    <!-- Rotated Dimension -->
    <g
       id="g32">
      <path
         d="m -147.50149,-40.462174 2.5,0.416285 0,-0.832569 z"
         style="fill:#a44646;fill-rule:evenodd;stroke:#a44646;stroke-width:0.2587764"
         id="path34"
         inkscape:connector-curvature="0" />
      <path
         d="m 157.49851,-40.462174 -2.5,-0.416284 0,0.832569 z"
         style="fill:#a44646;fill-rule:evenodd;stroke:#a44646;stroke-width:0.2587764"
         id="path36"
         inkscape:connector-curvature="0" />
      <g
         id="g38">
        <path
           d="m 2.498509,-37.337174 0.5555555,0 m 0,-1.111111 c 0.3068249,0 0.5555556,0.248731 0.5555556,0.555556 0,0.306825 -0.2487307,0.555555 -0.5555556,0.555555 m 0,-1.111111 -0.2777778,0 m 0.8333334,-0.555555 c 0,0.306824 -0.2487307,0.555555 -0.5555556,0.555555 m 0.5555556,-0.555555 0,-0.277778 m -0.5555556,-0.555556 c 0.3068249,0 0.5555556,0.248731 0.5555556,0.555556 m -0.5555556,-0.555556 -0.5555555,0"
           style="stroke:#a44646;stroke-width:0.2587764"
           id="path40"
           inkscape:connector-curvature="0" />
        <path
           d="m 5.2531283,-37.476112 2.7e-5,2.6e-5 c -0.0539,0.08358 -0.1478114,0.138912 -0.2546463,0.138912 -0.1067637,0 -0.200621,-0.05526 -0.2545251,-0.138724 m 2.709e-4,6.43e-4 -4.53e-5,7.2e-5 c -0.1207304,-0.161123 -0.2058812,-0.350413 -0.2437428,-0.55583 m 1.192e-4,-1.111667 -1.954e-4,-2.41e-4 c 0.038053,-0.206091 0.123176,-0.395243 0.2438048,-0.556224 m -1.912e-4,7.32e-4 -2.69e-5,-2.6e-5 c 0.053918,-0.08348 0.1477725,-0.138735 0.2545318,-0.138735 0.1067636,0 0.200621,0.05526 0.2545251,0.138725 m -3.821e-4,-6.43e-4 4.54e-5,-7.2e-5 c 0.1207303,0.161123 0.2058811,0.350413 0.2437428,0.55583 m -4.17e-4,-7.9e-5 2.737e-4,-0.0013 c 0.037905,0.177527 0.057768,0.360909 0.057768,0.54893 0,0.0029 -4.6e-6,0.0058 -1.38e-5,0.0086 m -2.1e-6,-4.93e-4 2e-7,-4.9e-5 c 1.05e-5,0.0031 1.57e-5,0.0061 1.57e-5,0.0092 0,0.188136 -0.019887,0.371626 -0.057508,0.547716 m -2.778e-4,-5.91e-4 1.955e-4,2.41e-4 c -0.03803,0.205764 -0.1229814,0.394635 -0.2433435,0.555436 m -0.8101612,-1.110905 -10e-8,5e-5 c -1.06e-5,-0.0031 -1.58e-5,-0.0061 -1.58e-5,-0.0092 0,-0.188293 0.01992,-0.371934 0.057603,-0.548161 m 4.379e-4,1.113012 -2.736e-4,0.0013 c -0.037905,-0.177528 -0.057768,-0.36091 -0.057768,-0.548931 0,-0.0031 5.3e-6,-0.0061 1.56e-5,-0.0091"
           style="stroke:#a44646;stroke-width:0.2587764"
           id="path42"
           inkscape:connector-curvature="0" />
        <path
           d="m 7.498509,-37.337174 -1.1111111,0 0,-1.111111 0.5555555,0 M 7.498509,-39.00384 c 0,0.306824 -0.2487307,0.555555 -0.5555556,0.555555 m 0.5555556,-0.555555 0,-0.277778 m -0.5555556,-0.555556 c 0.3068249,0 0.5555556,0.248731 0.5555556,0.555556 m -0.5555556,-0.555556 -0.5555555,0"
           style="stroke:#a44646;stroke-width:0.2587764"
           id="path44"
           inkscape:connector-curvature="0" />
      </g>
      <path
         d="m -147.50149,-40.462174 305,0 m -305,6.549348 0,-7.799348 m 305,7.799348 0,-7.799348"
         style="stroke:#a44646;stroke-width:0.2587764"
         id="path46"
         inkscape:connector-curvature="0" />
    </g>
  </g>
</svg>
