<?xml version="1.0" encoding="UTF-8" standalone="no"?>
<!-- 2016-12-07 20:11:49 Generated by QCAD SVG Exporter -->

<svg
   xmlns:dc="http://purl.org/dc/elements/1.1/"
   xmlns:cc="http://creativecommons.org/ns#"
   xmlns:rdf="http://www.w3.org/1999/02/22-rdf-syntax-ns#"
   xmlns:svg="http://www.w3.org/2000/svg"
   xmlns="http://www.w3.org/2000/svg"
   xmlns:sodipodi="http://sodipodi.sourceforge.net/DTD/sodipodi-0.dtd"
   xmlns:inkscape="http://www.inkscape.org/namespaces/inkscape"
   width="189.1910163991787mm"
   height="62.97671135257413mm"
   viewBox="-119.91090611822713 -33.969600312574116 189.1910163991787 62.97671135257413"
   version="1.1"
   style="stroke-linecap:round;stroke-linejoin:round;fill:none"
   id="svg2"
   inkscape:version="0.48.5 r10040"
   sodipodi:docname="wing_cut.svg">
  <metadata
     id="metadata130">
    <rdf:RDF>
      <cc:Work
         rdf:about="">
        <dc:format>image/svg+xml</dc:format>
        <dc:type
           rdf:resource="http://purl.org/dc/dcmitype/StillImage" />
      </cc:Work>
    </rdf:RDF>
  </metadata>
  <defs
     id="defs128" />
  <sodipodi:namedview
     pagecolor="#ffffff"
     bordercolor="#666666"
     borderopacity="1"
     objecttolerance="10"
     gridtolerance="10"
     guidetolerance="10"
     inkscape:pageopacity="0"
     inkscape:pageshadow="2"
     inkscape:window-width="640"
     inkscape:window-height="480"
     id="namedview126"
     showgrid="false"
     inkscape:zoom="0.49674667"
     inkscape:cx="335.18091"
     inkscape:cy="111.57291"
     inkscape:window-x="149"
     inkscape:window-y="65"
     inkscape:window-maximized="0"
     inkscape:current-layer="svg2" />
  <rect
     style="fill:#ffffff;fill-opacity:1;stroke:#ffffff;stroke-opacity:1"
     id="rect3107"
     width="734.78094"
     height="251.63731"
     x="-16.104788"
     y="-10.373603"
     transform="matrix(0.28222224,0,0,0.28222224,-119.91091,-33.969603)"
     ry="0.13044524" />
  <g
     transform="matrix(0.93709955,0,0,-0.93709955,-1.3007589,0.12799923)"
     id="g4">
    <!-- Line -->
    <path
       d="m -111.32101,18.9696 0,5"
       style="stroke:#a44646;stroke-width:0.26678061"
       id="path6"
       inkscape:connector-curvature="0" />
    <!-- Line -->
    <path
       d="m -111.32101,23.9696 0,5"
       style="stroke:#a44646;stroke-width:0.26678061"
       id="path8"
       inkscape:connector-curvature="0" />
    <!-- Line -->
    <path
       d="m -116.59408,-22.573535 29.999999,0"
       style="stroke:#a44646;stroke-width:0.26678061"
       id="path10"
       inkscape:connector-curvature="0" />
    <!-- Line -->
    <path
       d="m -86.594081,-22.573535 35,0"
       style="stroke:#a44646;stroke-width:0.26678061"
       id="path12"
       inkscape:connector-curvature="0" />
    <!-- Line -->
    <path
       d="m -51.594081,-22.573535 10,0"
       style="stroke:#a44646;stroke-width:0.26678061"
       id="path14"
       inkscape:connector-curvature="0" />
    <!-- Line -->
    <path
       d="m -86.594081,-12.573535 35,0"
       style="stroke:#a44646;stroke-width:0.26678061"
       id="path16"
       inkscape:connector-curvature="0" />
    <!-- Line -->
    <path
       d="m -51.594081,-12.573535 10,-10"
       style="stroke:#a44646;stroke-width:0.26678061"
       id="path18"
       inkscape:connector-curvature="0" />
    <!-- Line -->
    <path
       d="m -86.594081,-12.573535 -29.999999,-10"
       style="stroke:#a44646;stroke-width:0.26678061"
       id="path20"
       inkscape:connector-curvature="0" />
    <!-- Line -->
    <path
       d="m -51.594081,-17.573535 -35,0"
       style="stroke:#a44646;stroke-width:0.26678061"
       id="path22"
       inkscape:connector-curvature="0" />
    <!-- Line -->
    <path
       d="m -86.594081,-17.573535 -14.999999,0"
       style="stroke:#a44646;stroke-width:0.26678061"
       id="path24"
       inkscape:connector-curvature="0" />
    <!-- Line -->
    <path
       d="m -51.594081,-17.573535 5,0"
       style="stroke:#a44646;stroke-width:0.26678061"
       id="path26"
       inkscape:connector-curvature="0" />
    <!-- Text: 切割后机翼侧面图 -->
    <g
       id="g28">
      <path
         d="m -13.088815,-12.287323 -0.217346,-0.871727 c -0.830463,-3.196333 -2.505299,-5.520939 -5.024508,-6.973818 l 0.757751,-0.860551 c 2.681126,1.654047 4.49268,4.258052 5.42906,7.834369 l 0.217346,0.871727 1.654047,0 c -0.808142,-3.151629 -1.298654,-4.984491 -1.499461,-5.520939 -0.384775,-1.184655 -0.848173,-1.788158 -1.406973,-1.788158 -0.391159,0 -0.854978,0.02235 -1.394242,0.05588 l 0.02586,-1.061719 c 0.61471,-0.0447 1.045,-0.06706 1.302048,-0.06706 1.117599,0 1.946898,0.771143 2.465545,2.31343 0.337466,0.905255 0.9924402,3.308092 1.9621377,7.197337 l -6.0126817,0 -0.281436,-1.128775 z m -1.661985,-0.659384 -2.234927,-0.402335 0.657611,2.637533 -1.184655,0 -0.713341,-2.861053 -1.441522,-0.268224 -0.105406,-1.139951 1.254347,0.234696 -0.649252,-2.604005 C -19.262685,-17.73003 -19.541905,-17.998254 -20,-18.17707 l 0.05384,-1.128774 c 1.477717,0.458215 2.745846,0.972311 3.793212,1.542286 l -0.02586,1.061719 c -0.625645,-0.312928 -1.242931,-0.592327 -1.851857,-0.838199 l 0.752352,3.017517 2.436065,0.447039 z m 7.3493095,-1.631694 -0.222919,-0.894079 1.5422865,0 -0.1393244,-0.5588 -2.2799018,0 -0.2284919,-0.916431 2.2799018,0 -0.1309649,-0.525271 1.1399508,0 0.1309649,0.525271 2.3246058,0 0.2284919,0.916431 -2.3246057,0 0.1393244,0.5588 1.5534624,0 0.222919,0.894079 -1.5534625,0 0.1309649,0.525271 2.0116781,0 0.1727622,0.692912 0.5364474,0 0.5043542,2.022854 -2.6040054,0 c -0.014173,0.301751 -0.033918,0.581151 -0.062024,0.827023 l -1.2012837,-0.201168 c 0.042038,-0.189992 0.067326,-0.402335 0.1010045,-0.625855 l -2.3022537,0 -0.5071407,-2.03403 0.3464556,0 -0.1699757,-0.681736 2.03403,0 -0.1309649,-0.525271 z m 4.5057488,1.441703 -1.4640546,0 0.1365379,0.547623 -1.1399509,0 -0.1365379,-0.547623 -1.2852388,0 0.1978406,0.793495 3.8892442,0 z m 1.92403519,1.53111 -1.69418419,-6.795001 1.0952469,0 1.69418422,6.795001 z m -0.27602799,-9.175487 c 0.73761532,0 1.21233951,0.379984 1.39903415,1.128775 l 2.26262765,9.074903 -1.1399509,0 -2.19017897,-8.784327 c -0.0668757,-0.268224 -0.22324943,-0.402336 -0.46912113,-0.402336 -0.3911597,0 -0.7851358,0.03353 -1.1986774,0.07823 l -0.03838,-1.095247 z m -2.1842372,3.162805 -5.0403711,0 -0.8080812,-3.241037 1.0952469,0 0.086381,0.346456 2.8610532,0 -0.097527,-0.39116 1.084071,0 z m -4.4271864,-1.933446 0.2396379,0.961135 2.8610532,0 -0.2396379,-0.961135 z m 12.7178477,4.794499 7.9014244,0 0.284222,1.139951 -7.9014247,0 0.3120866,1.251711 c 2.7213083,0.06706 5.2161901,0.301751 7.4846451,0.704087 l -0.308045,1.050543 c -2.413713,-0.44704 -5.1097631,-0.681735 -8.0657972,-0.704087 l -0.8777434,-3.520437 c -0.6020315,-2.190494 -1.4306996,-3.90042 -2.4748285,-5.129779 l 0.6432352,-0.916431 c 1.2898204,1.497583 2.2859181,3.520437 2.9827201,6.04621 z m 6.7818504,-1.218183 -6.3144342,0 -1.2288409,-4.928611 1.1734789,0 0.1058865,0.424688 3.9674761,0 -0.1058865,-0.424688 1.1734791,0 z m -5.979688,-3.363972 0.5600839,2.246373 3.9674761,0 -0.5600839,-2.246373 z m 8.79657,6.727945 -0.281435,-1.128775 1.475231,0 c -0.680895,-1.251711 -1.526732,-2.358134 -2.548689,-3.319269 l 0.18526,-1.274062 c 0.697973,0.782319 1.334434,1.631694 1.909381,2.548125 l -1.262278,-5.062723 1.162303,0 1.370951,5.498587 c 0.137169,-0.39116 0.285574,-0.871727 0.459177,-1.430527 l 0.938092,1.028191 c -0.358022,0.581151 -0.72719,1.117599 -1.099115,1.598166 l 0.1031,0.413512 1.251711,0 0.281435,1.128775 -1.25171,0 0.512713,2.056382 -1.162303,0 -0.512713,-2.056382 z m 1.376907,-7.521441 0.749362,-0.849375 c 0.731472,0.827023 1.306449,1.698751 1.71936,2.59283 0.424087,0.894079 0.792174,1.966974 1.107047,3.22986 l 0.788576,3.162805 1.58699,0 -1.875306,-7.52144 c -0.183908,-0.737616 0.146039,-1.117599 1.00659,-1.117599 l 0.50292,0 c 0.391159,0 0.701241,0.07823 0.916281,0.22352 0.223399,0.178815 0.407608,0.469391 0.558198,0.894079 0.150591,0.424687 0.345735,1.072895 0.557508,1.92227 l -0.9893,0.33528 c -0.295368,-1.184655 -0.487696,-1.866391 -0.57141,-2.022854 -0.04186,-0.07823 -0.08093,-0.145288 -0.136779,-0.189992 -0.05585,-0.0447 -0.128478,-0.06706 -0.217886,-0.06706 l -0.33528,0 c -0.07823,0 -0.09783,0.05588 -0.07275,0.156464 l 2.114944,8.482575 -3.933948,0 -1.061652,-4.258052 c -0.314873,-1.262886 -0.629956,-2.212845 -0.934074,-2.849877 -0.362724,-0.737615 -0.865163,-1.452878 -1.479392,-2.123438 m 10.661188,9.365479 -0.217346,-0.871727 0.50292,0 -0.4299,-0.558799 c 0.536507,-0.08941 1.061869,-0.22352 1.553733,-0.402336 -0.690035,-0.122936 -1.385673,-0.22352 -2.072951,-0.290576 l 0.01178,-0.894079 c 1.123051,0.201168 2.198583,0.435864 3.226593,0.704087 l -0.14211,-0.569975 1.095247,0 0.718913,2.883405 z m 0.889077,-0.871727 2.045206,0 -0.169975,-0.681735 c -0.307295,-0.06706 -0.61459,-0.134112 -0.944236,-0.201168 l 0.301451,0.447039 c -0.380104,0.178816 -0.790919,0.324104 -1.232446,0.435864 m 3.737783,0.871727 -0.217346,-0.871727 0.603503,0 -0.399188,-0.525271 c 0.525331,-0.08941 1.028341,-0.22352 1.525778,-0.379984 -0.650934,-0.100584 -1.318647,-0.178816 -1.983573,-0.245872 l 6e-4,-0.894079 c 1.083951,0.178816 2.128771,0.379984 3.145636,0.603503 l -0.142111,-0.569975 1.095247,0 0.718914,2.883405 z m 1.134949,-0.871727 1.899918,0 -0.164403,-0.659383 -0.846469,-0.16764 0.273527,0.424687 c -0.363325,0.156464 -0.754575,0.290576 -1.162573,0.402336 m -5.617264,-2.179318 -0.746779,-2.995165 1.396999,0 -0.100314,-0.402336 -1.92227,0 -0.2062,-0.827023 1.92227,0 -0.111459,-0.447039 -2.570478,0 -0.211773,-0.849375 3.062221,0 c -0.854768,-0.290576 -1.863243,-0.525272 -3.028212,-0.715264 l 0.215761,-0.927607 c 1.407964,0.312928 2.63148,0.692911 3.687295,1.162303 l -0.304869,0.480568 2.391662,0 -0.4299,-0.5588 c 1.101,-0.245872 2.129431,-0.603503 3.08808,-1.061719 l 0.577765,0.882903 c -0.762964,0.301752 -1.573389,0.547624 -2.431274,0.737616 l 2.87223,0 0.211773,0.849375 -2.570478,0 0.11146,0.447039 1.97815,0 0.2062,0.827023 -1.97815,0 0.100313,0.402336 1.452879,0 0.746778,2.995165 z m 1.282789,-4.671563 0.11146,0.447039 2.458718,0 -0.11146,-0.447039 z m 2.776378,1.274062 -2.458718,0 0.100314,0.402336 2.458717,0 z m 1.700755,1.173479 -2.08991,0 0.09474,0.379984 2.08991,0 z m -3.140453,0 -2.078734,0 0.09474,0.379984 2.078734,0 z m -1.811231,1.072895 0.09195,0.368808 2.078734,0 -0.09195,-0.368808 z m 3.221231,0.368808 2.08991,0 -0.09195,-0.368808 -2.08991,0 z m 13.067961,3.509261 -3.822188,0 -1.741554,-6.984994 1.028191,0 1.493557,5.99033 1.765806,0 -1.476838,-5.923274 1.028191,0 z m -2.925969,-7.342625 -0.876849,-0.692912 c 0.444673,-0.637031 0.755205,-1.229358 0.939985,-1.788158 l 1.008084,0.815847 c -0.263011,0.5588 -0.629393,1.106423 -1.07122,1.665223 m 0.219525,5.945626 -0.911182,-3.654549 c -0.278738,-0.983487 -0.621867,-1.776982 -1.023782,-2.402837 -0.410334,-0.569976 -1.044249,-1.050543 -1.876605,-1.430527 l 0.358263,-0.938783 c 0.86867,0.39116 1.566794,0.949959 2.094371,1.676398 0.549899,0.771144 1.007424,1.799335 1.364185,3.095749 l 0.911181,3.654549 z m -4.035546,-2.64871 -1.437828,-5.76681 1.072895,0 1.922676,7.711433 c 0.491263,0.715263 0.946182,1.464054 1.342403,2.246373 l -0.88602,0.480568 c -0.853806,-1.721102 -1.872616,-3.207509 -3.070393,-4.470396 l 0.07626,-1.218183 c 0.340642,0.33528 0.670109,0.67056 0.98001,1.017015 m 6.477499,-5.666226 c 0.715263,0 1.178811,0.379984 1.365506,1.128775 l 2.265414,9.086079 -1.117599,0 -2.195752,-8.806679 c -0.06688,-0.268224 -0.226036,-0.413512 -0.449555,-0.413512 -0.346456,0 -0.706904,0.03353 -1.075742,0.07823 l -0.02163,-1.072895 z m 0.697869,9.253719 -1.71369,-6.873233 0.994663,0 1.71369,6.873233 z m 4.207324,0.648207 -0.278649,-1.117599 4.481572,0 c -0.170186,-0.368807 -0.359937,-0.726439 -0.58043,-1.072895 l -3.643373,0 -1.953327,-7.834368 1.128775,0 0.108673,0.435864 6.761473,0 -0.108673,-0.435864 1.128775,0 1.953327,7.834368 -4.202172,0 c 0.220493,0.346456 0.410245,0.704088 0.591607,1.072895 l 4.380988,0 0.278648,1.117599 z m -0.469257,-8.516103 1.312436,5.26389 1.173479,0 -1.312436,-5.26389 z m 2.25755,0 0.278649,1.117599 2.212846,0 -0.278649,-1.117599 z m 3.296917,0 1.312435,5.26389 1.207007,0 -1.312435,-5.26389 z m -2.770271,2.112262 0.267503,1.072895 2.212846,0 -0.267503,-1.072895 z m 0.518287,2.078734 0.267503,1.072894 2.212845,0 -0.267502,-1.072894 z m 11.81649,3.151628 c -0.527547,-0.771143 -1.351333,-1.430526 -2.446219,-1.966974 l 0.425258,-0.849375 c 0.413361,0.22352 0.809944,0.469392 1.178571,0.737615 0.184569,-0.245871 0.416629,-0.480567 0.673827,-0.704087 -0.810064,-0.290576 -1.748697,-0.514095 -2.829862,-0.681735 l 0.271642,-0.927607 c 1.296234,0.268223 2.410806,0.614679 3.354892,1.039367 0.648478,-0.402336 1.447786,-0.737616 2.397925,-1.005839 l 0.82085,0.871727 c -0.802005,0.189992 -1.503456,0.424687 -2.112743,0.715263 0.6619,0.413512 1.20362,0.882903 1.602808,1.408175 l 0.192268,0.771143 -2.849877,0 c 0.114456,0.145288 0.220523,0.301752 0.32659,0.458216 z m 0.909604,-2.313429 c -0.394126,0.257047 -0.724013,0.547623 -1.003623,0.860551 0.0028,0.01118 0.01675,0.02235 0.03071,0.03353 l 2.224022,0 c -0.337856,-0.324104 -0.759547,-0.625856 -1.25111,-0.894079 m -2.886965,-3.017517 -0.672775,-0.860551 c 1.416744,-0.2794 2.749744,-0.67056 4.010174,-1.173479 l 0.616835,0.949959 c -1.235262,0.469391 -2.554269,0.827023 -3.954234,1.084071 m 1.490988,1.497582 -0.703577,-0.759967 c 0.779683,-0.234696 1.514722,-0.5588 2.213507,-0.983487 l 0.742647,0.827023 c -0.659623,0.357632 -1.411411,0.659383 -2.252577,0.916431 m 6.738573,4.973315 -9.432535,0 -2.48276,-9.957806 1.139951,0 0.09195,0.368808 7.152633,0 -0.09195,-0.368808 1.139951,0 z m -10.427033,-8.560807 1.878093,7.532616 7.152633,0 -1.878093,-7.532616 z"
         style="fill:#a44646;fill-rule:evenodd"
         id="path30"
         inkscape:connector-curvature="0" />
    </g>
    <!-- Text: 切割前机翼侧面图 -->
    <g
       id="g32">
      <path
         d="m -13.088815,27.712677 -0.217346,-0.871727 c -0.830463,-3.196333 -2.505299,-5.520939 -5.024508,-6.973818 l 0.757751,-0.860551 c 2.681126,1.654047 4.49268,4.258052 5.42906,7.834369 l 0.217346,0.871727 1.654047,0 c -0.808142,-3.151629 -1.298654,-4.984491 -1.499461,-5.520939 -0.384775,-1.184655 -0.848173,-1.788158 -1.406973,-1.788158 -0.391159,0 -0.854978,0.02235 -1.394242,0.05588 l 0.02586,-1.061719 c 0.61471,-0.0447 1.045,-0.06706 1.302048,-0.06706 1.117599,0 1.946898,0.771143 2.465545,2.31343 0.337466,0.905255 0.9924402,3.308092 1.9621377,7.197337 l -6.0126817,0 -0.281436,-1.128775 z m -1.661985,-0.659384 -2.234927,-0.402335 0.657611,2.637533 -1.184655,0 -0.713341,-2.861053 -1.441522,-0.268224 -0.105406,-1.139951 1.254347,0.234696 -0.649252,-2.604005 C -19.262685,22.26997 -19.541905,22.001746 -20,21.82293 l 0.05384,-1.128774 c 1.477717,0.458215 2.745846,0.972311 3.793212,1.542286 l -0.02586,1.061719 c -0.625645,-0.312928 -1.242931,-0.592327 -1.851857,-0.838199 l 0.752352,3.017517 2.436065,0.447039 z m 7.3493095,-1.631694 -0.222919,-0.894079 1.5422865,0 -0.1393244,-0.5588 -2.2799018,0 -0.2284919,-0.916431 2.2799018,0 -0.1309649,-0.525271 1.1399508,0 0.1309649,0.525271 2.3246058,0 0.2284919,0.916431 -2.3246057,0 0.1393244,0.5588 1.5534624,0 0.222919,0.894079 -1.5534625,0 0.1309649,0.525271 2.0116781,0 0.1727622,0.692912 0.5364474,0 0.5043542,2.022854 -2.6040054,0 c -0.014173,0.301751 -0.033918,0.581151 -0.062024,0.827023 l -1.2012837,-0.201168 c 0.042038,-0.189992 0.067326,-0.402335 0.1010045,-0.625855 l -2.3022537,0 -0.5071407,-2.03403 0.3464556,0 -0.1699757,-0.681736 2.03403,0 -0.1309649,-0.525271 z m 4.5057488,1.441703 -1.4640546,0 0.1365379,0.547623 -1.1399509,0 -0.1365379,-0.547623 -1.2852388,0 0.1978406,0.793495 3.8892442,0 z m 1.92403519,1.53111 -1.69418419,-6.795001 1.0952469,0 1.69418422,6.795001 z M -1.2477345,19.218925 c 0.73761532,0 1.21233951,0.379984 1.39903415,1.128775 l 2.26262765,9.074903 -1.1399509,0 -2.19017897,-8.784327 C -0.98307826,20.370052 -1.139452,20.23594 -1.3853237,20.23594 c -0.3911597,0 -0.7851358,0.03353 -1.1986774,0.07823 l -0.03838,-1.095247 z m -2.1842372,3.162805 -5.0403711,0 -0.8080812,-3.241037 1.0952469,0 0.086381,0.346456 2.8610532,0 -0.097527,-0.39116 1.084071,0 z m -4.4271864,-1.933446 0.2396379,0.961135 2.8610532,0 -0.2396379,-0.961135 z M 10.608654,29.523187 C 10.256925,29.053795 9.8772422,28.606756 9.458428,28.182068 l -1.9557981,0 C 7.3933561,28.640284 7.2841123,29.053795 7.1497601,29.411427 L 5.8702446,29.210259 c 0.1566741,-0.312927 0.2826368,-0.659383 0.3694985,-1.028191 l -2.8387012,0 -0.2842217,-1.139951 10.1142698,0 0.284222,1.139951 -2.749293,0 c 0.295968,0.290576 0.586334,0.603504 0.871096,0.938783 z M 5.0890814,19.174221 c 0.7264393,0 1.2094929,0.458216 1.4351984,1.363471 l 1.4712652,5.900922 -4.3251078,0 -1.8335086,-7.353801 1.1399509,0 0.5823759,2.335782 2.0563819,0 -0.1560432,-0.625856 C 5.373213,20.448284 5.2056933,20.269468 4.9821735,20.269468 l -0.7935253,0.0447 0.028706,-1.139951 z m -1.2734692,3.274565 0.2340649,0.938783 2.056382,0 -0.2340649,-0.938783 z m 0.4904217,1.966974 0.2340649,0.938783 2.056382,0 -0.2340649,-0.938783 z m 5.1500427,-5.208011 c 0.7599674,0 1.2374784,0.39116 1.4325324,1.173479 l 1.563219,6.26973 -1.162303,0 -1.4879841,-5.967978 c -0.072449,-0.290576 -0.2427848,-0.435864 -0.4886566,-0.435864 -0.4358636,0 -0.8773302,0.02235 -1.3355758,0.06706 l -0.02999,-1.106423 z m -0.6777918,6.60501 -1.1842571,-4.749796 1.1399509,0 1.1842571,4.749796 z m 5.6791372,1.575814 -0.281435,-1.128775 1.475231,0 c -0.680895,-1.251711 -1.526732,-2.358134 -2.548689,-3.319269 l 0.18526,-1.274062 c 0.697973,0.782319 1.334434,1.631694 1.909381,2.548125 l -1.262278,-5.062723 1.162303,0 1.370951,5.498587 c 0.137169,-0.39116 0.285574,-0.871727 0.459177,-1.430527 l 0.938092,1.028191 c -0.358022,0.581151 -0.72719,1.117599 -1.099115,1.598166 l 0.1031,0.413512 1.251711,0 0.281435,1.128775 -1.25171,0 0.512713,2.056382 -1.162303,0 -0.512713,-2.056382 z m 1.376907,-7.521441 0.749362,-0.849375 c 0.731472,0.827023 1.306449,1.698751 1.71936,2.59283 0.424087,0.894079 0.792174,1.966974 1.107047,3.22986 l 0.788576,3.162805 1.58699,0 -1.875306,-7.52144 c -0.183908,-0.737616 0.146039,-1.117599 1.00659,-1.117599 l 0.50292,0 c 0.391159,0 0.701241,0.07823 0.916281,0.22352 0.223399,0.178815 0.407608,0.469391 0.558198,0.894079 0.150591,0.424687 0.345735,1.072895 0.557508,1.92227 l -0.9893,0.33528 c -0.295368,-1.184655 -0.487696,-1.866391 -0.57141,-2.022854 -0.04186,-0.07823 -0.08093,-0.145288 -0.136779,-0.189992 -0.05585,-0.0447 -0.128478,-0.06706 -0.217886,-0.06706 l -0.33528,0 c -0.07823,0 -0.09783,0.05588 -0.07275,0.156464 l 2.114944,8.482575 -3.933948,0 -1.061652,-4.258052 C 17.932922,23.577561 17.617839,22.627602 17.313721,21.99057 16.950997,21.252955 16.448558,20.537692 15.834329,19.867132 m 10.661188,9.365479 -0.217346,-0.871727 0.50292,0 -0.4299,-0.558799 c 0.536507,-0.08941 1.061869,-0.22352 1.553733,-0.402336 -0.690035,-0.122936 -1.385673,-0.22352 -2.072951,-0.290576 l 0.01178,-0.894079 c 1.123051,0.201168 2.198583,0.435864 3.226593,0.704087 l -0.14211,-0.569975 1.095247,0 0.718913,2.883405 z m 0.889077,-0.871727 2.045206,0 -0.169975,-0.681735 c -0.307295,-0.06706 -0.61459,-0.134112 -0.944236,-0.201168 l 0.301451,0.447039 c -0.380104,0.178816 -0.790919,0.324104 -1.232446,0.435864 m 3.737783,0.871727 -0.217346,-0.871727 0.603503,0 -0.399188,-0.525271 c 0.525331,-0.08941 1.028341,-0.22352 1.525778,-0.379984 -0.650934,-0.100584 -1.318647,-0.178816 -1.983573,-0.245872 l 6e-4,-0.894079 c 1.083951,0.178816 2.128771,0.379984 3.145636,0.603503 l -0.142111,-0.569975 1.095247,0 0.718914,2.883405 z m 1.134949,-0.871727 1.899918,0 -0.164403,-0.659383 -0.846469,-0.16764 0.273527,0.424687 c -0.363325,0.156464 -0.754575,0.290576 -1.162573,0.402336 m -5.617264,-2.179318 -0.746779,-2.995165 1.396999,0 -0.100314,-0.402336 -1.92227,0 -0.2062,-0.827023 1.92227,0 -0.111459,-0.447039 -2.570478,0 -0.211773,-0.849375 3.062221,0 c -0.854768,-0.290576 -1.863243,-0.525272 -3.028212,-0.715264 l 0.215761,-0.927607 c 1.407964,0.312928 2.63148,0.692911 3.687295,1.162303 l -0.304869,0.480568 2.391662,0 -0.4299,-0.5588 c 1.101,-0.245872 2.129431,-0.603503 3.08808,-1.061719 l 0.577765,0.882903 c -0.762964,0.301752 -1.573389,0.547624 -2.431274,0.737616 l 2.87223,0 0.211773,0.849375 -2.570478,0 0.11146,0.447039 1.97815,0 0.2062,0.827023 -1.97815,0 0.100313,0.402336 1.452879,0 0.746778,2.995165 z m 1.282789,-4.671563 0.11146,0.447039 2.458718,0 -0.11146,-0.447039 z m 2.776378,1.274062 -2.458718,0 0.100314,0.402336 2.458717,0 z m 1.700755,1.173479 -2.08991,0 0.09474,0.379984 2.08991,0 z m -3.140453,0 -2.078734,0 0.09474,0.379984 2.078734,0 z m -1.811231,1.072895 0.09195,0.368808 2.078734,0 -0.09195,-0.368808 z m 3.221231,0.368808 2.08991,0 -0.09195,-0.368808 -2.08991,0 z m 13.067961,3.509261 -3.822188,0 -1.741554,-6.984994 1.028191,0 1.493557,5.99033 1.765806,0 -1.476838,-5.923274 1.028191,0 z m -2.925969,-7.342625 -0.876849,-0.692912 c 0.444673,-0.637031 0.755205,-1.229358 0.939985,-1.788158 l 1.008084,0.815847 c -0.263011,0.5588 -0.629393,1.106423 -1.07122,1.665223 m 0.219525,5.945626 -0.911182,-3.654549 C 39.841128,22.873473 39.497999,22.079978 39.096084,21.454123 38.68575,20.884147 38.051835,20.40358 37.219479,20.023596 l 0.358263,-0.938783 c 0.86867,0.39116 1.566794,0.949959 2.094371,1.676398 0.549899,0.771144 1.007424,1.799335 1.364185,3.095749 l 0.911181,3.654549 z m -4.035546,-2.64871 -1.437828,-5.76681 1.072895,0 1.922676,7.711433 c 0.491263,0.715263 0.946182,1.464054 1.342403,2.246373 l -0.88602,0.480568 c -0.853806,-1.721102 -1.872616,-3.207509 -3.070393,-4.470396 l 0.07626,-1.218183 c 0.340642,0.33528 0.670109,0.67056 0.98001,1.017015 m 6.477499,-5.666226 c 0.715263,0 1.178811,0.379984 1.365506,1.128775 l 2.265414,9.086079 -1.117599,0 -2.195752,-8.806679 c -0.06688,-0.268224 -0.226036,-0.413512 -0.449555,-0.413512 -0.346456,0 -0.706904,0.03353 -1.075742,0.07823 l -0.02163,-1.072895 z m 0.697869,9.253719 -1.71369,-6.873233 0.994663,0 1.71369,6.873233 z m 4.207324,0.648207 -0.278649,-1.117599 4.481572,0 c -0.170186,-0.368807 -0.359937,-0.726439 -0.58043,-1.072895 l -3.643373,0 -1.953327,-7.834368 1.128775,0 0.108673,0.435864 6.761473,0 -0.108673,-0.435864 1.128775,0 1.953327,7.834368 -4.202172,0 c 0.220493,0.346456 0.410245,0.704088 0.591607,1.072895 l 4.380988,0 0.278648,1.117599 z m -0.469257,-8.516103 1.312436,5.26389 1.173479,0 -1.312436,-5.26389 z m 2.25755,0 0.278649,1.117599 2.212846,0 -0.278649,-1.117599 z m 3.296917,0 1.312435,5.26389 1.207007,0 -1.312435,-5.26389 z m -2.770271,2.112262 0.267503,1.072895 2.212846,0 -0.267503,-1.072895 z m 0.518287,2.078734 0.267503,1.072894 2.212845,0 -0.267502,-1.072894 z m 11.81649,3.151628 C 62.500366,27.153877 61.67658,26.494494 60.581694,25.958046 l 0.425258,-0.849375 c 0.413361,0.22352 0.809944,0.469392 1.178571,0.737615 0.184569,-0.245871 0.416629,-0.480567 0.673827,-0.704087 -0.810064,-0.290576 -1.748697,-0.514095 -2.829862,-0.681735 l 0.271642,-0.927607 c 1.296234,0.268223 2.410806,0.614679 3.354892,1.039367 0.648478,-0.402336 1.447786,-0.737616 2.397925,-1.005839 l 0.82085,0.871727 c -0.802005,0.189992 -1.503456,0.424687 -2.112743,0.715263 0.6619,0.413512 1.20362,0.882903 1.602808,1.408175 l 0.192268,0.771143 -2.849877,0 c 0.114456,0.145288 0.220523,0.301752 0.32659,0.458216 z m 0.909604,-2.313429 c -0.394126,0.257047 -0.724013,0.547623 -1.003623,0.860551 0.0028,0.01118 0.01675,0.02235 0.03071,0.03353 l 2.224022,0 c -0.337856,-0.324104 -0.759547,-0.625856 -1.25111,-0.894079 m -2.886965,-3.017517 -0.672775,-0.860551 c 1.416744,-0.2794 2.749744,-0.67056 4.010174,-1.173479 l 0.616835,0.949959 c -1.235262,0.469391 -2.554269,0.827023 -3.954234,1.084071 m 1.490988,1.497582 -0.703577,-0.759967 c 0.779683,-0.234696 1.514722,-0.5588 2.213507,-0.983487 l 0.742647,0.827023 c -0.659623,0.357632 -1.411411,0.659383 -2.252577,0.916431 m 6.738573,4.973315 -9.432535,0 -2.48276,-9.957806 1.139951,0 0.09195,0.368808 7.152633,0 -0.09195,-0.368808 1.139951,0 z m -10.427033,-8.560807 1.878093,7.532616 7.152633,0 -1.878093,-7.532616 z"
         style="fill:#a44646;fill-rule:evenodd"
         id="path34"
         inkscape:connector-curvature="0" />
    </g>
    <!-- Line -->
    <path
       d="m -111.32101,28.9696 75.000001,0"
       style="stroke:#a44646;stroke-width:0.26678061"
       id="path36"
       inkscape:connector-curvature="0" />
    <!-- Line -->
    <path
       d="m -111.32101,23.9696 75.000001,0"
       style="stroke:#a44646;stroke-width:0.26678061"
       id="path38"
       inkscape:connector-curvature="0" />
    <!-- Line -->
    <path
       d="m -111.32101,18.9696 75.000001,0"
       style="stroke:#a44646;stroke-width:0.26678061"
       id="path40"
       inkscape:connector-curvature="0" />
    <!-- Line -->
    <path
       d="m -36.321009,28.9696 0,-5"
       style="stroke:#a44646;stroke-width:0.26678061"
       id="path42"
       inkscape:connector-curvature="0" />
    <!-- Line -->
    <path
       d="m -36.321009,23.9696 0,-5"
       style="stroke:#a44646;stroke-width:0.26678061"
       id="path44"
       inkscape:connector-curvature="0" />
    <!-- Rotated Dimension -->
    <g
       id="g46">
      <path
         d="m -116.78591,28.9696 -0.41628,2.5 0.83257,0 z"
         style="fill:#a44646;fill-rule:evenodd;stroke:#a44646;stroke-width:0.26678061"
         id="path48"
         inkscape:connector-curvature="0" />
      <path
         d="m -116.78591,23.9696 0.41629,-2.5 -0.83257,0 z"
         style="fill:#a44646;fill-rule:evenodd;stroke:#a44646;stroke-width:0.26678061"
         id="path50"
         inkscape:connector-curvature="0" />
      <g
         id="g52">
        <path
           d="m -119.91091,27.025156 0,-1.111111 1.11111,0 0,0.555555 m 0.55556,0.555556 c -0.30682,0 -0.55556,-0.248731 -0.55556,-0.555556 m 0.55556,0.555556 0.27778,0 m 0.55555,-0.555556 c 0,0.306825 -0.24873,0.555556 -0.55555,0.555556 m 0.55555,-0.555556 0,-0.555555"
           style="stroke:#a44646;stroke-width:0.26678061"
           id="path54"
           inkscape:connector-curvature="0" />
      </g>
      <path
         d="m -116.78591,33.9696 0,-15 m 4.8399,10 -6.0899,0 m 6.0899,-5 -6.0899,0"
         style="stroke:#a44646;stroke-width:0.26678061"
         id="path56"
         inkscape:connector-curvature="0" />
    </g>
    <!-- Rotated Dimension -->
    <g
       id="g58">
      <path
         d="m -116.78591,23.9696 -0.41628,2.5 0.83257,0 z"
         style="fill:#a44646;fill-rule:evenodd;stroke:#a44646;stroke-width:0.26678061"
         id="path60"
         inkscape:connector-curvature="0" />
      <path
         d="m -116.78591,18.9696 0.41629,-2.5 -0.83257,0 z"
         style="fill:#a44646;fill-rule:evenodd;stroke:#a44646;stroke-width:0.26678061"
         id="path62"
         inkscape:connector-curvature="0" />
      <g
         id="g64">
        <path
           d="m -119.91091,22.025156 0,-1.111111 1.11111,0 0,0.555555 m 0.55556,0.555556 c -0.30682,0 -0.55556,-0.248731 -0.55556,-0.555556 m 0.55556,0.555556 0.27778,0 m 0.55555,-0.555556 c 0,0.306825 -0.24873,0.555556 -0.55555,0.555556 m 0.55555,-0.555556 0,-0.555555"
           style="stroke:#a44646;stroke-width:0.26678061"
           id="path66"
           inkscape:connector-curvature="0" />
      </g>
      <path
         d="m -116.78591,28.9696 0,-15 m 4.8399,10 -6.0899,0 m 6.0899,-5 -6.0899,0"
         style="stroke:#a44646;stroke-width:0.26678061"
         id="path68"
         inkscape:connector-curvature="0" />
    </g>
    <!-- Rotated Dimension -->
    <g
       id="g70">
      <path
         d="m -86.594081,-8.057911 2.5,0.4162846 0,-0.8325693 z"
         style="fill:#a44646;fill-rule:evenodd;stroke:#a44646;stroke-width:0.26678061"
         id="path72"
         inkscape:connector-curvature="0" />
      <path
         d="m -51.594081,-8.057911 -2.5,-0.4162847 0,0.8325693 z"
         style="fill:#a44646;fill-rule:evenodd;stroke:#a44646;stroke-width:0.26678061"
         id="path74"
         inkscape:connector-curvature="0" />
      <g
         id="g76">
        <path
           d="m -70.621859,-4.932911 0.555556,0 m 0,-1.1111112 c 0.306824,0 0.555555,0.2487307 0.555555,0.5555556 0,0.3068249 -0.248731,0.5555556 -0.555555,0.5555556 m 0,-1.1111112 -0.277778,0 m 0.833333,-0.5555555 c 0,0.3068249 -0.248731,0.5555555 -0.555555,0.5555555 m 0.555555,-0.5555555 0,-0.2777778 m -0.555555,-0.5555555 c 0.306824,0 0.555555,0.2487307 0.555555,0.5555555 m -0.555555,-0.5555555 -0.555556,0"
           style="stroke:#a44646;stroke-width:0.26678061"
           id="path78"
           inkscape:connector-curvature="0" />
        <path
           d="m -67.566303,-4.932911 -1.111112,0 0,-1.1111112 0.555556,0 m 0.555556,-0.5555555 c 0,0.3068249 -0.248731,0.5555555 -0.555556,0.5555555 m 0.555556,-0.5555555 0,-0.2777778 m -0.555556,-0.5555555 c 0.306825,0 0.555556,0.2487307 0.555556,0.5555555 m -0.555556,-0.5555555 -0.555556,0"
           style="stroke:#a44646;stroke-width:0.26678061"
           id="path80"
           inkscape:connector-curvature="0" />
      </g>
      <path
         d="m -86.594081,-8.057911 35,0 m -35,-3.890624 0,5.140624 m 35,-5.140624 0,5.140624"
         style="stroke:#a44646;stroke-width:0.26678061"
         id="path82"
         inkscape:connector-curvature="0" />
    </g>
    <!-- Rotated Dimension -->
    <g
       id="g84">
      <path
         d="m -41.594081,-27.342391 -2.5,-0.416285 0,0.83257 z"
         style="fill:#a44646;fill-rule:evenodd;stroke:#a44646;stroke-width:0.26678061"
         id="path86"
         inkscape:connector-curvature="0" />
      <path
         d="m -51.594081,-27.342391 2.5,0.416285 0,-0.83257 z"
         style="fill:#a44646;fill-rule:evenodd;stroke:#a44646;stroke-width:0.26678061"
         id="path88"
         inkscape:connector-curvature="0" />
      <g
         id="g90">
        <path
           d="m -47.844081,-24.772947 0.555555,0.555556 0,-2.5"
           style="stroke:#a44646;stroke-width:0.26678061"
           id="path92"
           inkscape:connector-curvature="0" />
        <path
           d="m -45.645017,-24.356329 2.7e-5,2.5e-5 c -0.0539,0.08358 -0.147812,0.138913 -0.254647,0.138913 -0.106763,0 -0.200621,-0.05526 -0.254525,-0.138725 m 2.71e-4,6.44e-4 -4.5e-5,7.2e-5 c -0.120731,-0.161123 -0.205881,-0.350414 -0.243743,-0.555831 m 1.19e-4,-1.111667 -1.95e-4,-2.41e-4 c 0.03805,-0.20609 0.123176,-0.395242 0.243805,-0.556224 m -1.92e-4,7.33e-4 -2.6e-5,-2.6e-5 c 0.05392,-0.08348 0.147772,-0.138735 0.254531,-0.138735 0.106764,0 0.200621,0.05526 0.254525,0.138725 m -3.82e-4,-6.44e-4 4.6e-5,-7.2e-5 c 0.12073,0.161123 0.205881,0.350414 0.243742,0.555831 m -4.16e-4,-8e-5 2.73e-4,-0.0013 c 0.03791,0.177527 0.05777,0.360909 0.05777,0.54893 0,0.0029 -5e-6,0.0058 -1.4e-5,0.0086 m -2e-6,-4.92e-4 0,-4.9e-5 c 1.1e-5,0.0031 1.6e-5,0.0061 1.6e-5,0.0092 0,0.188135 -0.01989,0.371626 -0.05751,0.547715 m -2.78e-4,-5.9e-4 1.95e-4,2.41e-4 c -0.03803,0.205764 -0.122981,0.394635 -0.243343,0.555435 m -0.810161,-1.110904 -10e-7,4.9e-5 c -1e-5,-0.0031 -1.5e-5,-0.0061 -1.5e-5,-0.0092 0,-0.188294 0.01992,-0.371934 0.0576,-0.548162 m 4.38e-4,1.113013 -2.74e-4,0.0013 c -0.03791,-0.177527 -0.05777,-0.360909 -0.05777,-0.54893 0,-0.0031 5e-6,-0.0061 1.5e-5,-0.0091"
           style="stroke:#a44646;stroke-width:0.26678061"
           id="path94"
           inkscape:connector-curvature="0" />
      </g>
      <path
         d="m -41.594081,-27.342391 -10,0 m 10,4.143856 0,-5.393856 m -10,5.393856 0,-5.393856"
         style="stroke:#a44646;stroke-width:0.26678061"
         id="path96"
         inkscape:connector-curvature="0" />
    </g>
    <!-- Rotated Dimension -->
    <g
       id="g98">
      <path
         d="m -86.594081,-27.757111 -2.5,-0.416285 0,0.83257 z"
         style="fill:#a44646;fill-rule:evenodd;stroke:#a44646;stroke-width:0.26678061"
         id="path100"
         inkscape:connector-curvature="0" />
      <path
         d="m -116.59408,-27.757111 2.5,0.416285 0,-0.83257 z"
         style="fill:#a44646;fill-rule:evenodd;stroke:#a44646;stroke-width:0.26678061"
         id="path102"
         inkscape:connector-curvature="0" />
      <g
         id="g104">
        <path
           d="m -103.12186,-24.632111 0.55556,0 m 0,-1.111111 c 0.30682,0 0.55555,0.248731 0.55555,0.555555 0,0.306825 -0.24873,0.555556 -0.55555,0.555556 m 0,-1.111111 -0.27778,0 m 0.83333,-0.555556 c 0,0.306825 -0.24873,0.555556 -0.55555,0.555556 m 0.55555,-0.555556 0,-0.277777 m -0.55555,-0.555556 c 0.30682,0 0.55555,0.248731 0.55555,0.555556 m -0.55555,-0.555556 -0.55556,0"
           style="stroke:#a44646;stroke-width:0.26678061"
           id="path106"
           inkscape:connector-curvature="0" />
        <path
           d="m -100.36724,-24.771049 3e-5,2.5e-5 c -0.0539,0.08358 -0.14781,0.138913 -0.25465,0.138913 -0.10676,0 -0.20062,-0.05526 -0.25452,-0.138725 m 2.7e-4,6.44e-4 -5e-5,7.2e-5 c -0.12073,-0.161123 -0.20588,-0.350414 -0.24374,-0.555831 m 1.2e-4,-1.111667 -2e-4,-2.41e-4 c 0.0381,-0.20609 0.12318,-0.395242 0.24381,-0.556224 m -1.9e-4,7.33e-4 -3e-5,-2.6e-5 c 0.0539,-0.08348 0.14777,-0.138735 0.25453,-0.138735 0.10676,0 0.20062,0.05526 0.25453,0.138725 m -3.9e-4,-6.44e-4 5e-5,-7.2e-5 c 0.12073,0.161123 0.20588,0.350414 0.24374,0.555831 m -4.1e-4,-8e-5 2.7e-4,-0.0013 c 0.0379,0.177527 0.0578,0.360909 0.0578,0.54893 0,0.0029 -1e-5,0.0058 -2e-5,0.0086 m 0,-4.92e-4 0,-4.9e-5 c 10e-6,0.0031 2e-5,0.0061 2e-5,0.0092 0,0.188135 -0.0199,0.371626 -0.0575,0.547715 m -2.8e-4,-5.9e-4 2e-4,2.41e-4 c -0.038,0.205764 -0.12299,0.394635 -0.24335,0.555435 m -0.81016,-1.110904 0,4.9e-5 c -1e-5,-0.0031 -1e-5,-0.0061 -1e-5,-0.0092 0,-0.188294 0.0199,-0.371934 0.0576,-0.548162 m 4.4e-4,1.113013 -2.8e-4,0.0013 c -0.0379,-0.177527 -0.0578,-0.360909 -0.0578,-0.54893 0,-0.0031 0,-0.0061 10e-6,-0.0091"
           style="stroke:#a44646;stroke-width:0.26678061"
           id="path108"
           inkscape:connector-curvature="0" />
      </g>
      <path
         d="m -86.594081,-27.757111 -29.999999,0 m 29.999999,4.558576 0,-5.808576 m -29.999999,5.808576 0,-5.808576"
         style="stroke:#a44646;stroke-width:0.26678061"
         id="path110"
         inkscape:connector-curvature="0" />
    </g>
    <!-- Leader -->
    <path
       d="m -32.380656,23.809672 2.5,0.416285 0,-0.83257 z"
       style="fill:#a44646;fill-rule:evenodd;stroke:#a44646;stroke-width:0.26678061"
       id="path112"
       inkscape:connector-curvature="0" />
    <path
       d="m -32.380656,23.809672 9.904525,0"
       style="stroke:#a44646;stroke-width:0.26678061"
       id="path114"
       inkscape:connector-curvature="0" />
    <!-- Leader -->
    <path
       d="M -39.927616,-16.680568"
       style="stroke:#a44646;stroke-width:0.26678061"
       id="path116"
       inkscape:connector-curvature="0" />
    <!-- Leader -->
    <path
       d="m -39.927616,-16.680568 2.5,0.416285 0,-0.832569 z"
       style="fill:#a44646;fill-rule:evenodd;stroke:#a44646;stroke-width:0.26678061"
       id="path118"
       inkscape:connector-curvature="0" />
    <path
       d="m -39.927616,-16.680568 12.071139,0"
       style="stroke:#a44646;stroke-width:0.26678061"
       id="path120"
       inkscape:connector-curvature="0" />
    <!-- Leader -->
    <path
       d="m -70,0 -0.416285,2.5 0.83257,0 z"
       style="fill:#a44646;fill-rule:evenodd;stroke:#a44646;stroke-width:0.26678061"
       id="path122"
       inkscape:connector-curvature="0" />
    <path
       d="m -70,0 0,10"
       style="stroke:#a44646;stroke-width:0.26678061"
       id="path124"
       inkscape:connector-curvature="0" />
  </g>
</svg>
