<?xml version="1.0" encoding="UTF-8" standalone="no"?>
<!-- 2017-02-20 18:27:53 Generated by QCAD SVG Exporter -->

<svg
   xmlns:dc="http://purl.org/dc/elements/1.1/"
   xmlns:cc="http://creativecommons.org/ns#"
   xmlns:rdf="http://www.w3.org/1999/02/22-rdf-syntax-ns#"
   xmlns:svg="http://www.w3.org/2000/svg"
   xmlns="http://www.w3.org/2000/svg"
   xmlns:sodipodi="http://sodipodi.sourceforge.net/DTD/sodipodi-0.dtd"
   xmlns:inkscape="http://www.inkscape.org/namespaces/inkscape"
   width="968"
   height="313"
   viewBox="-163.125 -53.125 322.38967904 104.375"
   version="1.1"
   style="stroke-linecap:round;stroke-linejoin:round;fill:none"
   id="svg2"
   inkscape:version="0.91 r13725"
   sodipodi:docname="body.svg">
  <metadata
     id="metadata218">
    <rdf:RDF>
      <cc:Work
         rdf:about="">
        <dc:format>image/svg+xml</dc:format>
        <dc:type
           rdf:resource="http://purl.org/dc/dcmitype/StillImage" />
      </cc:Work>
    </rdf:RDF>
  </metadata>
  <defs
     id="defs216" />
  <sodipodi:namedview
     pagecolor="#ffffff"
     bordercolor="#666666"
     borderopacity="1"
     objecttolerance="10"
     gridtolerance="10"
     guidetolerance="10"
     inkscape:pageopacity="0"
     inkscape:pageshadow="2"
     inkscape:window-width="1237"
     inkscape:window-height="743"
     id="namedview214"
     showgrid="false"
     inkscape:zoom="3.4062577"
     inkscape:cx="161.19572"
     inkscape:cy="40.444373"
     inkscape:window-x="0"
     inkscape:window-y="0"
     inkscape:window-maximized="0"
     inkscape:current-layer="svg2" />
  <rect
     style="fill:#ffffff"
     id="rect3546"
     width="327.33871"
     height="111.55938"
     x="-165.18004"
     y="-56.492874" />
  <g
     transform="matrix(0.95998224,0,0,-0.91296097,-1.2515146,-0.22838474)"
     id="g4">
    <!-- Line -->
    <path
       d="m -150,-40 70,0"
       style="stroke:#a44646;stroke-width:0.25"
       id="path6"
       inkscape:connector-curvature="0" />
    <!-- Line -->
    <path
       d="m -80,-40 0,-5"
       style="stroke:#a44646;stroke-width:0.25"
       id="path8"
       inkscape:connector-curvature="0" />
    <!-- Line -->
    <path
       d="m -80,-45 230,0"
       style="stroke:#a44646;stroke-width:0.25"
       id="path10"
       inkscape:connector-curvature="0" />
    <!-- Line -->
    <path
       d="m -150,-40 0,85"
       style="stroke:#a44646;stroke-width:0.25"
       id="path12"
       inkscape:connector-curvature="0" />
    <!-- Line -->
    <path
       d="m -150,45 40,0"
       style="stroke:#a44646;stroke-width:0.25"
       id="path14"
       inkscape:connector-curvature="0" />
    <!-- Line -->
    <path
       d="m 150,-45 0,45"
       style="stroke:#a44646;stroke-width:0.25"
       id="path16"
       inkscape:connector-curvature="0" />
    <!-- Line -->
    <path
       d="M 150,0 90,0"
       style="stroke:#a44646;stroke-width:0.25"
       id="path18"
       inkscape:connector-curvature="0" />
    <!-- Line -->
    <path
       d="m 15,0 0,-8"
       style="stroke:#a44646;stroke-width:0.25"
       id="path20"
       inkscape:connector-curvature="0" />
    <!-- Line -->
    <path
       d="m 90,0 0,-4"
       style="stroke:#a44646;stroke-width:0.25"
       id="path22"
       inkscape:connector-curvature="0" />
    <!-- Line -->
    <path
       d="m 15,-8 75,4"
       style="stroke:#a44646;stroke-width:0.25"
       id="path24"
       inkscape:connector-curvature="0" />
    <!-- Line -->
    <path
       d="M -110,45 -80,0"
       style="stroke:#a44646;stroke-width:0.25"
       id="path26"
       inkscape:connector-curvature="0" />
    <!-- Line -->
    <path
       d="m -80,0 0,-23"
       style="stroke:#a44646;stroke-width:0.25"
       id="path28"
       inkscape:connector-curvature="0" />
    <!-- Line -->
    <path
       d="m -80,-23 60,0"
       style="stroke:#a44646;stroke-width:0.25"
       id="path30"
       inkscape:connector-curvature="0" />
    <!-- Line -->
    <path
       d="m -20,-23 0,23"
       style="stroke:#a44646;stroke-width:0.25"
       id="path32"
       inkscape:connector-curvature="0" />
    <!-- Line -->
    <path
       d="M -20,0 15,0"
       style="stroke:#a44646;stroke-width:0.25"
       id="path34"
       inkscape:connector-curvature="0" />
    <!-- Rotated Dimension -->
    <g
       id="g36">
      <path
         d="m -80,-50 2.5,0.416285 0,-0.83257 z"
         style="fill:#a44646;fill-rule:evenodd;stroke:#a44646;stroke-width:0.25"
         id="path38"
         inkscape:connector-curvature="0" />
      <path
         d="m 150,-50 -2.5,-0.416285 0,0.83257 z"
         style="fill:#a44646;fill-rule:evenodd;stroke:#a44646;stroke-width:0.25"
         id="path40"
         inkscape:connector-curvature="0" />
      <g
         id="g42">
        <path
           d="m 33.611111,-49.375 -1.111111,0 1.073611,1.846389 m -2.01e-4,-2.83e-4 2.4e-5,-4.8e-5 c 0.02396,0.04107 0.03768,0.08882 0.03768,0.139775 0,0.03432 -0.0062,0.06718 -0.01759,0.09748 m -6.2e-5,4.4e-5 1.06e-4,1.26e-4 c -0.06181,0.239611 -0.279254,0.416517 -0.538014,0.416517 -0.258745,0 -0.476177,-0.176885 -0.537929,-0.416183"
           style="stroke:#a44646;stroke-width:0.25"
           id="path44"
           inkscape:connector-curvature="0" />
        <path
           d="m 34.444444,-46.875 0.555556,0 m 0,-1.111111 c 0.306825,0 0.555556,0.248731 0.555556,0.555555 0,0.306825 -0.248731,0.555556 -0.555556,0.555556 m 0,-1.111111 -0.277778,0 m 0.833334,-0.555556 c 0,0.306825 -0.248731,0.555556 -0.555556,0.555556 m 0.555556,-0.555556 0,-0.277777 M 35,-49.375 c 0.306825,0 0.555556,0.248731 0.555556,0.555556 M 35,-49.375 l -0.555556,0"
           style="stroke:#a44646;stroke-width:0.25"
           id="path46"
           inkscape:connector-curvature="0" />
        <path
           d="m 37.199064,-47.013938 2.7e-5,2.5e-5 c -0.0539,0.08358 -0.147812,0.138913 -0.254647,0.138913 -0.106763,0 -0.200621,-0.05526 -0.254525,-0.138725 m 2.71e-4,6.44e-4 -4.5e-5,7.2e-5 c -0.12073,-0.161123 -0.205881,-0.350414 -0.243743,-0.555831 m 1.19e-4,-1.111667 -1.95e-4,-2.41e-4 c 0.03805,-0.20609 0.123176,-0.395242 0.243805,-0.556224 m -1.91e-4,7.33e-4 -2.7e-5,-2.6e-5 c 0.05392,-0.08348 0.147772,-0.138735 0.254531,-0.138735 0.106764,0 0.200621,0.05526 0.254526,0.138725 m -3.83e-4,-6.44e-4 4.6e-5,-7.2e-5 c 0.12073,0.161123 0.205881,0.350414 0.243743,0.555831 m -4.17e-4,-8e-5 2.73e-4,-0.0013 c 0.03791,0.177527 0.05777,0.360909 0.05777,0.54893 0,0.0029 -5e-6,0.0058 -1.4e-5,0.0086 m -2e-6,-4.92e-4 0,-4.9e-5 c 1.1e-5,0.0031 1.6e-5,0.0061 1.6e-5,0.0092 0,0.188135 -0.01989,0.371626 -0.05751,0.547715 m -2.78e-4,-5.9e-4 1.95e-4,2.41e-4 c -0.03803,0.205764 -0.122981,0.394635 -0.243343,0.555435 m -0.810161,-1.110904 0,4.9e-5 c -1.1e-5,-0.0031 -1.6e-5,-0.0061 -1.6e-5,-0.0092 0,-0.188294 0.01992,-0.371934 0.0576,-0.548162 m 4.38e-4,1.113013 -2.73e-4,0.0013 c -0.03791,-0.177527 -0.05777,-0.360909 -0.05777,-0.54893 0,-0.0031 5e-6,-0.0061 1.5e-5,-0.0091"
           style="stroke:#a44646;stroke-width:0.25"
           id="path48"
           inkscape:connector-curvature="0" />
      </g>
      <path
         d="m -80,-50 230,0 m -230,4.375 0,-5.625 m 230,5.625 0,-5.625"
         style="stroke:#a44646;stroke-width:0.25"
         id="path50"
         inkscape:connector-curvature="0" />
    </g>
    <!-- Rotated Dimension -->
    <g
       id="g52">
      <path
         d="m 90,5.0101467 2.5,0.4162847 0,-0.8325693 z"
         style="fill:#a44646;fill-rule:evenodd;stroke:#a44646;stroke-width:0.25"
         id="path54"
         inkscape:connector-curvature="0" />
      <path
         d="m 150,5.0101467 -2.5,-0.4162846 0,0.8325693 z"
         style="fill:#a44646;fill-rule:evenodd;stroke:#a44646;stroke-width:0.25"
         id="path56"
         inkscape:connector-curvature="0" />
      <g
         id="g58">
        <path
           d="m 119.30556,8.135066 -2.1e-4,2.038e-4 c -0.49809,-0.2882685 -0.83313,-0.8267983 -0.83313,-1.4435795 l 0,-0.5011111 c 0,-0.3068249 0.24873,-0.5555556 0.55556,-0.5555556 0.30682,0 0.55555,0.2487307 0.55555,0.5555556 l 0,0.2777778 c 0,0.3068248 -0.24873,0.5555555 -0.55555,0.5555555 l -0.52211,0"
           style="stroke:#a44646;stroke-width:0.25"
           id="path60"
           inkscape:connector-curvature="0" />
        <path
           d="m 121.22684,7.9960854 3e-5,2.56e-5 c -0.0539,0.08358 -0.14781,0.1389126 -0.25465,0.1389126 -0.10676,0 -0.20062,-0.055258 -0.25452,-0.1387247 m 2.7e-4,6.435e-4 -5e-5,7.19e-5 C 120.59719,7.8358914 120.51204,7.6466009 120.47418,7.441184 m 1.2e-4,-1.111667 -2e-4,-2.41e-4 c 0.0381,-0.2060907 0.12318,-0.3952426 0.24381,-0.5562241 m -1.9e-4,7.323e-4 -3e-5,-2.55e-5 c 0.0539,-0.083481 0.14777,-0.1387351 0.25453,-0.1387351 0.10677,0 0.20062,0.055258 0.25453,0.1387248 m -3.8e-4,-6.435e-4 4e-5,-7.19e-5 c 0.12073,0.1611229 0.20588,0.3504134 0.24374,0.5558302 m -4.1e-4,-7.92e-5 2.7e-4,-0.0013 c 0.0379,0.1775276 0.0578,0.3609093 0.0578,0.5489302 0,0.00288 -1e-5,0.00576 -2e-5,0.0086 m 0,-4.925e-4 0,-4.91e-5 c 1e-5,0.00309 2e-5,0.00613 2e-5,0.00917 0,0.1881353 -0.0199,0.3716259 -0.0575,0.5477153 m -2.8e-4,-5.907e-4 2e-4,2.412e-4 c -0.038,0.2057638 -0.12298,0.3946351 -0.24335,0.5554354 m -0.81016,-1.1109041 0,4.91e-5 c -1e-5,-0.00309 -1e-5,-0.00613 -1e-5,-0.00917 0,-0.1882934 0.0199,-0.3719343 0.0576,-0.5481615 m 4.4e-4,1.1130123 -2.8e-4,0.0013 c -0.0379,-0.1775276 -0.0578,-0.3609094 -0.0578,-0.5489302 0,-0.00306 0,-0.00611 1e-5,-0.00912"
           style="stroke:#a44646;stroke-width:0.25"
           id="path62"
           inkscape:connector-curvature="0" />
      </g>
      <path
         d="m 90,5.0101467 60,0 M 90,0.625 90,6.2601467 M 150,0.625 l 0,5.6351467"
         style="stroke:#a44646;stroke-width:0.25"
         id="path64"
         inkscape:connector-curvature="0" />
    </g>
    <!-- Rotated Dimension -->
    <g
       id="g66">
      <path
         d="m -20,5.3193736 2.5,0.4162847 0,-0.8325693 z"
         style="fill:#a44646;fill-rule:evenodd;stroke:#a44646;stroke-width:0.25"
         id="path68"
         inkscape:connector-curvature="0" />
      <path
         d="m 15,5.3193736 -2.5,-0.4162846 0,0.8325693 z"
         style="fill:#a44646;fill-rule:evenodd;stroke:#a44646;stroke-width:0.25"
         id="path70"
         inkscape:connector-curvature="0" />
      <g
         id="g72">
        <path
           d="m -4.0277778,8.4443736 0.5555556,0 m 0,-1.1111111 c 0.3068248,0 0.5555555,0.2487307 0.5555555,0.5555556 0,0.3068248 -0.2487307,0.5555555 -0.5555555,0.5555555 m 0,-1.1111111 -0.2777778,0 M -2.9166667,6.777707 c 0,0.3068248 -0.2487307,0.5555555 -0.5555555,0.5555555 m 0.5555555,-0.5555555 0,-0.2777778 M -3.4722222,5.9443736 c 0.3068248,0 0.5555555,0.2487307 0.5555555,0.5555556 m -0.5555555,-0.5555556 -0.5555556,0"
           style="stroke:#a44646;stroke-width:0.25"
           id="path74"
           inkscape:connector-curvature="0" />
        <path
           d="m -0.97222222,8.4443736 -1.11111108,0 0,-1.1111111 0.5555555,0 M -0.97222222,6.777707 c 0,0.3068248 -0.24873068,0.5555555 -0.55555558,0.5555555 m 0.55555558,-0.5555555 0,-0.2777778 M -1.5277778,5.9443736 c 0.3068249,0 0.55555558,0.2487307 0.55555558,0.5555556 m -0.55555558,-0.5555556 -0.5555555,0"
           style="stroke:#a44646;stroke-width:0.25"
           id="path76"
           inkscape:connector-curvature="0" />
      </g>
      <path
         d="m -20,5.3193736 35,0 M -20,0.625 -20,6.5693736 M 15,0.625 15,6.5693736"
         style="stroke:#a44646;stroke-width:0.25"
         id="path78"
         inkscape:connector-curvature="0" />
    </g>
    <!-- Rotated Dimension -->
    <g
       id="g80">
      <path
         d="m 90,5.2240411 -2.5,-0.4162847 0,0.8325693 z"
         style="fill:#a44646;fill-rule:evenodd;stroke:#a44646;stroke-width:0.25"
         id="path82"
         inkscape:connector-curvature="0" />
      <path
         d="m 15,5.2240411 2.5,0.4162846 0,-0.8325693 z"
         style="fill:#a44646;fill-rule:evenodd;stroke:#a44646;stroke-width:0.25"
         id="path84"
         inkscape:connector-curvature="0" />
      <g
         id="g86">
        <path
           d="m 50.972222,8.3490411 1.111111,0 -0.694444,-2.5 m 0.138889,1.3888888 0.555555,0"
           style="stroke:#a44646;stroke-width:0.25"
           id="path88"
           inkscape:connector-curvature="0" />
        <path
           d="m 54.027778,8.3490411 -1.111111,0 0,-1.1111112 0.555555,0 m 0.555556,-0.5555555 c 0,0.3068249 -0.248731,0.5555555 -0.555556,0.5555555 m 0.555556,-0.5555555 0,-0.2777778 M 53.472222,5.8490411 c 0.306825,0 0.555556,0.2487307 0.555556,0.5555555 m -0.555556,-0.5555555 -0.555555,0"
           style="stroke:#a44646;stroke-width:0.25"
           id="path90"
           inkscape:connector-curvature="0" />
      </g>
      <path
         d="m 90,5.2240411 -75,0 M 90,0.625 90,6.4740411 M 15,0.625 15,6.4740411"
         style="stroke:#a44646;stroke-width:0.25"
         id="path92"
         inkscape:connector-curvature="0" />
    </g>
    <!-- Rotated Dimension -->
    <g
       id="g94">
      <path
         d="m -80,-16.210875 2.5,0.416285 0,-0.832569 z"
         style="fill:#a44646;fill-rule:evenodd;stroke:#a44646;stroke-width:0.25"
         id="path96"
         inkscape:connector-curvature="0" />
      <path
         d="m -20,-16.210875 -2.5,-0.416284 0,0.832569 z"
         style="fill:#a44646;fill-rule:evenodd;stroke:#a44646;stroke-width:0.25"
         id="path98"
         inkscape:connector-curvature="0" />
      <g
         id="g100">
        <path
           d="m -50.694444,-13.085955 -2.02e-4,2.03e-4 c -0.498097,-0.288268 -0.833132,-0.826798 -0.833132,-1.443579 l 0,-0.501111 c 0,-0.306825 0.248731,-0.555556 0.555556,-0.555556 0.306825,0 0.555555,0.248731 0.555555,0.555556 l 0,0.277778 c 0,0.306824 -0.24873,0.555555 -0.555555,0.555555 l -0.522111,0"
           style="stroke:#a44646;stroke-width:0.25"
           id="path102"
           inkscape:connector-curvature="0" />
        <path
           d="m -48.773158,-13.224936 2.7e-5,2.6e-5 c -0.0539,0.08358 -0.147812,0.138912 -0.254647,0.138912 -0.106763,0 -0.200621,-0.05526 -0.254525,-0.138724 m 2.71e-4,6.43e-4 -4.5e-5,7.2e-5 c -0.120731,-0.161123 -0.205881,-0.350413 -0.243743,-0.55583 m 1.19e-4,-1.111667 -1.95e-4,-2.41e-4 c 0.03805,-0.206091 0.123176,-0.395243 0.243805,-0.556224 m -1.92e-4,7.32e-4 -2.7e-5,-2.6e-5 c 0.05392,-0.08348 0.147773,-0.138735 0.254532,-0.138735 0.106764,0 0.200621,0.05526 0.254525,0.138725 m -3.82e-4,-6.43e-4 4.6e-5,-7.2e-5 c 0.12073,0.161123 0.205881,0.350413 0.243742,0.55583 m -4.17e-4,-7.9e-5 2.74e-4,-0.0013 c 0.0379,0.177527 0.05777,0.360909 0.05777,0.54893 0,0.0029 -5e-6,0.0058 -1.4e-5,0.0086 m -2e-6,-4.93e-4 0,-4.9e-5 c 1.1e-5,0.0031 1.6e-5,0.0061 1.6e-5,0.0092 0,0.188136 -0.01989,0.371626 -0.05751,0.547716 m -2.78e-4,-5.91e-4 1.95e-4,2.41e-4 c -0.03803,0.205764 -0.122981,0.394635 -0.243343,0.555436 m -0.810161,-1.110905 -10e-7,5e-5 c -1e-5,-0.0031 -1.5e-5,-0.0061 -1.5e-5,-0.0092 0,-0.188293 0.01992,-0.371934 0.0576,-0.548161 m 4.38e-4,1.113012 -2.74e-4,0.0013 c -0.03791,-0.177528 -0.05777,-0.36091 -0.05777,-0.548931 0,-0.0031 5e-6,-0.0061 1.5e-5,-0.0091"
           style="stroke:#a44646;stroke-width:0.25"
           id="path104"
           inkscape:connector-curvature="0" />
      </g>
      <path
         d="m -80,-16.210875 60,0 m -60,-6.164125 0,7.414125 m 60,-7.414125 0,7.414125"
         style="stroke:#a44646;stroke-width:0.25"
         id="path106"
         inkscape:connector-curvature="0" />
    </g>
    <!-- Rotated Dimension -->
    <g
       id="g108">
      <path
         d="m -80,-50 -2.5,-0.416285 0,0.83257 z"
         style="fill:#a44646;fill-rule:evenodd;stroke:#a44646;stroke-width:0.25"
         id="path110"
         inkscape:connector-curvature="0" />
      <path
         d="m -150,-50 2.5,0.416285 0,-0.83257 z"
         style="fill:#a44646;fill-rule:evenodd;stroke:#a44646;stroke-width:0.25"
         id="path112"
         inkscape:connector-curvature="0" />
      <g
         id="g114">
        <path
           d="m -116.52778,-46.875 1.11111,0 -0.69444,-2.5 m 0.13889,1.388889 0.55555,0"
           style="stroke:#a44646;stroke-width:0.25"
           id="path116"
           inkscape:connector-curvature="0" />
        <path
           d="m -113.77316,-47.013938 3e-5,2.5e-5 c -0.0539,0.08358 -0.14781,0.138913 -0.25465,0.138913 -0.10676,0 -0.20062,-0.05526 -0.25452,-0.138725 m 2.7e-4,6.44e-4 -5e-5,7.2e-5 c -0.12073,-0.161123 -0.20588,-0.350414 -0.24374,-0.555831 m 1.2e-4,-1.111667 -2e-4,-2.41e-4 c 0.0381,-0.20609 0.12318,-0.395242 0.24381,-0.556224 m -1.9e-4,7.33e-4 -3e-5,-2.6e-5 c 0.0539,-0.08348 0.14777,-0.138735 0.25453,-0.138735 0.10677,0 0.20062,0.05526 0.25453,0.138725 m -3.8e-4,-6.44e-4 4e-5,-7.2e-5 c 0.12073,0.161123 0.20588,0.350414 0.24374,0.555831 m -4.1e-4,-8e-5 2.7e-4,-0.0013 c 0.0379,0.177527 0.0578,0.360909 0.0578,0.54893 0,0.0029 -1e-5,0.0058 -2e-5,0.0086 m 0,-4.92e-4 0,-4.9e-5 c 1e-5,0.0031 2e-5,0.0061 2e-5,0.0092 0,0.188135 -0.0199,0.371626 -0.0575,0.547715 m -2.8e-4,-5.9e-4 2e-4,2.41e-4 c -0.038,0.205764 -0.12298,0.394635 -0.24335,0.555435 m -0.81016,-1.110904 0,4.9e-5 c -1e-5,-0.0031 -1e-5,-0.0061 -1e-5,-0.0092 0,-0.188294 0.0199,-0.371934 0.0576,-0.548162 m 4.4e-4,1.113013 -2.8e-4,0.0013 c -0.0379,-0.177527 -0.0578,-0.360909 -0.0578,-0.54893 0,-0.0031 0,-0.0061 1e-5,-0.0091"
           style="stroke:#a44646;stroke-width:0.25"
           id="path118"
           inkscape:connector-curvature="0" />
      </g>
      <path
         d="m -80,-50 -70,0 m 70,4.375 0,-5.625 m -70,10.625 0,-10.625"
         style="stroke:#a44646;stroke-width:0.25"
         id="path120"
         inkscape:connector-curvature="0" />
    </g>
    <!-- Rotated Dimension -->
    <g
       id="g122">
      <path
         d="m -110,50 -2.5,-0.416285 0,0.83257 z"
         style="fill:#a44646;fill-rule:evenodd;stroke:#a44646;stroke-width:0.25"
         id="path124"
         inkscape:connector-curvature="0" />
      <path
         d="m -150,50 2.5,0.416285 0,-0.83257 z"
         style="fill:#a44646;fill-rule:evenodd;stroke:#a44646;stroke-width:0.25"
         id="path126"
         inkscape:connector-curvature="0" />
      <g
         id="g128">
        <path
           d="m -130.69444,50.625 0,1.111111 m 0.41666,-0.555555 -1.38889,0 0.55556,1.944444"
           style="stroke:#a44646;stroke-width:0.25"
           id="path130"
           inkscape:connector-curvature="0" />
        <path
           d="m -128.63427,52.986062 3e-5,2.5e-5 c -0.0539,0.08358 -0.14781,0.138913 -0.25465,0.138913 -0.10676,0 -0.20062,-0.05526 -0.25452,-0.138725 m 2.7e-4,6.44e-4 -5e-5,7.2e-5 c -0.12073,-0.161123 -0.20588,-0.350414 -0.24374,-0.555831 m 1.2e-4,-1.111667 -2e-4,-2.41e-4 c 0.0381,-0.20609 0.12318,-0.395242 0.24381,-0.556224 m -1.9e-4,7.33e-4 -3e-5,-2.6e-5 c 0.0539,-0.08348 0.14777,-0.138735 0.25453,-0.138735 0.10676,0 0.20062,0.05526 0.25453,0.138725 m -3.9e-4,-6.44e-4 5e-5,-7.2e-5 c 0.12073,0.161123 0.20588,0.350414 0.24374,0.555831 m -4.1e-4,-8e-5 2.7e-4,-0.0013 c 0.0379,0.177527 0.0578,0.360909 0.0578,0.54893 0,0.0029 -1e-5,0.0058 -2e-5,0.0086 m 0,-4.92e-4 0,-4.9e-5 c 10e-6,0.0031 2e-5,0.0061 2e-5,0.0092 0,0.188135 -0.0199,0.371626 -0.0575,0.547715 m -2.8e-4,-5.9e-4 2e-4,2.41e-4 c -0.038,0.205764 -0.12299,0.394635 -0.24335,0.555435 m -0.81016,-1.110904 0,4.9e-5 c -1e-5,-0.0031 -1e-5,-0.0061 -1e-5,-0.0092 0,-0.188294 0.0199,-0.371934 0.0576,-0.548162 m 4.4e-4,1.113013 -2.8e-4,0.0013 c -0.0379,-0.177527 -0.0578,-0.360909 -0.0578,-0.54893 0,-0.0031 0,-0.0061 10e-6,-0.0091"
           style="stroke:#a44646;stroke-width:0.25"
           id="path132"
           inkscape:connector-curvature="0" />
      </g>
      <path
         d="m -110,50 -40,0 m 40,-4.375 0,5.625 m -40,-5.625 0,5.625"
         style="stroke:#a44646;stroke-width:0.25"
         id="path134"
         inkscape:connector-curvature="0" />
    </g>
    <!-- Rotated Dimension -->
    <g
       id="g136">
      <path
         d="m -160,45 0.41628,-2.5 -0.83256,0 z"
         style="fill:#a44646;fill-rule:evenodd;stroke:#a44646;stroke-width:0.25"
         id="path138"
         inkscape:connector-curvature="0" />
      <path
         d="m -160,-40 -0.41628,2.5 0.83256,0 z"
         style="fill:#a44646;fill-rule:evenodd;stroke:#a44646;stroke-width:0.25"
         id="path140"
         inkscape:connector-curvature="0" />
      <g
         id="g142">
        <path
           d="m -161.45833,0.97222222 0.27777,0 c 0.30683,0 0.55556,0.24873068 0.55556,0.55555558 0,0.3068248 -0.24873,0.5555555 -0.55556,0.5555555 l -0.27777,0 c -0.30683,0 -0.55556,-0.2487307 -0.55556,-0.5555555 0,-0.3068249 0.24873,-0.55555558 0.55556,-0.55555558 m -1.18056,0.0694445 0.13889,0 c 0.26847,0 0.48611,0.2176393 0.48611,0.4861111 0,0.2684717 -0.21764,0.4861111 -0.48611,0.4861111 l -0.13889,0 c -0.26847,0 -0.48611,-0.2176394 -0.48611,-0.4861111 0,-0.2684718 0.21764,-0.4861111 0.48611,-0.4861111"
           style="stroke:#a44646;stroke-width:0.25"
           id="path144"
           inkscape:connector-curvature="0" />
        <path
           d="m -163.125,4.0277778 0,-1.1111111 1.11111,0 0,0.5555555 m 0.55556,0.5555556 c -0.30683,0 -0.55556,-0.2487307 -0.55556,-0.5555556 m 0.55556,0.5555556 0.27777,0 m 0.55556,-0.5555556 c 0,0.3068249 -0.24873,0.5555556 -0.55556,0.5555556 m 0.55556,-0.5555556 0,-0.5555555"
           style="stroke:#a44646;stroke-width:0.25"
           id="path146"
           inkscape:connector-curvature="0" />
      </g>
      <path
         d="m -160,45 0,-85 m 9.375,85 -10.625,0 m 10.625,-85 -10.625,0"
         style="stroke:#a44646;stroke-width:0.25"
         id="path148"
         inkscape:connector-curvature="0" />
    </g>
    <!-- Rotated Dimension -->
    <g
       id="g150">
      <path
         d="m -90,0 0.416285,-2.5 -0.83257,0 z"
         style="fill:#a44646;fill-rule:evenodd;stroke:#a44646;stroke-width:0.25"
         id="path152"
         inkscape:connector-curvature="0" />
      <path
         d="m -90,-23 -0.416285,2.5 0.83257,0 z"
         style="fill:#a44646;fill-rule:evenodd;stroke:#a44646;stroke-width:0.25"
         id="path154"
         inkscape:connector-curvature="0" />
      <g
         id="g156">
        <path
           d="m -90.625,-11.916667 0,-1.111111 -1.846389,1.073611 m 2.83e-4,-2.01e-4 4.8e-5,2.5e-5 c -0.04107,0.02396 -0.08882,0.03768 -0.139775,0.03768 -0.03432,0 -0.06718,-0.0062 -0.09748,-0.01759 m -4.4e-5,-6.2e-5 -1.26e-4,1.06e-4 c -0.239611,-0.06181 -0.416517,-0.279254 -0.416517,-0.538014 0,-0.258745 0.176885,-0.476176 0.416183,-0.537929"
           style="stroke:#a44646;stroke-width:0.25"
           id="path158"
           inkscape:connector-curvature="0" />
        <path
           d="m -93.125,-11.083333 0,0.555555 m 1.111111,0 c 0,0.306825 -0.248731,0.5555558 -0.555555,0.5555558 -0.306825,0 -0.555556,-0.2487308 -0.555556,-0.5555558 m 1.111111,0 0,-0.277778 m 0.555556,0.8333338 c -0.306825,0 -0.555556,-0.2487308 -0.555556,-0.5555558 m 0.555556,0.5555558 0.277777,0 M -90.625,-10.527778 c 0,0.306825 -0.248731,0.5555558 -0.555556,0.5555558 m 0.555556,-0.5555558 0,-0.555555"
           style="stroke:#a44646;stroke-width:0.25"
           id="path160"
           inkscape:connector-curvature="0" />
      </g>
      <path
         d="m -90,0 0,-23 m 9.375,23 -10.625,0 m 10.625,-23 -10.625,0"
         style="stroke:#a44646;stroke-width:0.25"
         id="path162"
         inkscape:connector-curvature="0" />
    </g>
    <!-- Rotated Dimension -->
    <g
       id="g164">
      <path
         d="m 10.786338,0 0.416285,-2.5 -0.83257,0 z"
         style="fill:#a44646;fill-rule:evenodd;stroke:#a44646;stroke-width:0.25"
         id="path166"
         inkscape:connector-curvature="0" />
      <path
         d="m 10.786338,-8 -0.416285,2.5 0.83257,0 z"
         style="fill:#a44646;fill-rule:evenodd;stroke:#a44646;stroke-width:0.25"
         id="path168"
         inkscape:connector-curvature="0" />
      <g
         id="g170">
        <path
           d="m 9.3280048,-4.5555556 0.2777778,0 c 0.3068249,0 0.5555554,0.2487307 0.5555554,0.5555556 0,0.3068249 -0.2487305,0.5555556 -0.5555554,0.5555556 l -0.2777778,0 C 9.02118,-3.4444444 8.7724493,-3.6931751 8.7724493,-4 c 0,-0.3068249 0.2487307,-0.5555556 0.5555555,-0.5555556 m -1.1805555,0.069445 0.1388889,0 c 0.2684717,0 0.4861111,0.2176393 0.4861111,0.4861111 0,0.2684718 -0.2176394,0.4861111 -0.4861111,0.4861111 l -0.1388889,0 c -0.2684718,0 -0.4861111,-0.2176393 -0.4861111,-0.4861111 0,-0.2684718 0.2176393,-0.4861111 0.4861111,-0.4861111"
           style="stroke:#a44646;stroke-width:0.25"
           id="path172"
           inkscape:connector-curvature="0" />
      </g>
      <path
         d="m 10.786338,0 0,-8 M 14.375,0 9.5363382,0 M 14.375,-8 9.5363382,-8"
         style="stroke:#a44646;stroke-width:0.25"
         id="path174"
         inkscape:connector-curvature="0" />
    </g>
    <!-- Rotated Dimension -->
    <g
       id="g176">
      <path
         d="m 95.850086,0 -0.416284,2.5 0.832569,0 z"
         style="fill:#a44646;fill-rule:evenodd;stroke:#a44646;stroke-width:0.25"
         id="path178"
         inkscape:connector-curvature="0" />
      <path
         d="m 95.850086,-4 0.416285,-2.5 -0.832569,0 z"
         style="fill:#a44646;fill-rule:evenodd;stroke:#a44646;stroke-width:0.25"
         id="path180"
         inkscape:connector-curvature="0" />
      <g
         id="g182">
        <path
           d="m 95.225086,-1.7222222 -1.111111,0 m 0.555556,0.4166666 0,-1.3888888 -1.944445,0.5555555"
           style="stroke:#a44646;stroke-width:0.25"
           id="path184"
           inkscape:connector-curvature="0" />
      </g>
      <path
         d="m 95.850086,5 0,-14 M 90.625,0 97.100086,0 M 90.625,-4 l 6.475086,0"
         style="stroke:#a44646;stroke-width:0.25"
         id="path186"
         inkscape:connector-curvature="0" />
    </g>
    <!-- Rotated Dimension -->
    <g
       id="g188">
      <path
         d="m 158.01468,0 0.41628,-2.5 -0.83257,0 z"
         style="fill:#a44646;fill-rule:evenodd;stroke:#a44646;stroke-width:0.25"
         id="path190"
         inkscape:connector-curvature="0" />
      <path
         d="m 158.01468,-45 -0.41629,2.5 0.83257,0 z"
         style="fill:#a44646;fill-rule:evenodd;stroke:#a44646;stroke-width:0.25"
         id="path192"
         inkscape:connector-curvature="0" />
      <g
         id="g194">
        <path
           d="m 157.38968,-23.194444 -1.11111,0 m 0.55555,0.416666 0,-1.388889 -1.94444,0.555556"
           style="stroke:#a44646;stroke-width:0.25"
           id="path196"
           inkscape:connector-curvature="0" />
        <path
           d="m 154.88968,-20.833333 0,-1.111111 1.11111,0 0,0.555555 m 0.55556,0.555556 c -0.30683,0 -0.55556,-0.248731 -0.55556,-0.555556 m 0.55556,0.555556 0.27777,0 m 0.55556,-0.555556 c 0,0.306825 -0.24873,0.555556 -0.55556,0.555556 m 0.55556,-0.555556 0,-0.555555"
           style="stroke:#a44646;stroke-width:0.25"
           id="path198"
           inkscape:connector-curvature="0" />
      </g>
      <path
         d="m 158.01468,0 0,-45 m -7.38968,45 8.63968,0 m -8.63968,-45 8.63968,0"
         style="stroke:#a44646;stroke-width:0.25"
         id="path200"
         inkscape:connector-curvature="0" />
    </g>
    <!-- Rotated Dimension -->
    <g
       id="g202">
      <path
         d="m -70,-40 -0.416285,2.5 0.83257,0 z"
         style="fill:#a44646;fill-rule:evenodd;stroke:#a44646;stroke-width:0.25"
         id="path204"
         inkscape:connector-curvature="0" />
      <path
         d="m -70,-45 0.416285,-2.5 -0.83257,0 z"
         style="fill:#a44646;fill-rule:evenodd;stroke:#a44646;stroke-width:0.25"
         id="path206"
         inkscape:connector-curvature="0" />
      <g
         id="g208">
        <path
           d="m -73.125,-41.944444 0,-1.111112 1.111111,0 0,0.555556 m 0.555556,0.555556 c -0.306825,0 -0.555556,-0.248731 -0.555556,-0.555556 m 0.555556,0.555556 0.277777,0 M -70.625,-42.5 c 0,0.306825 -0.248731,0.555556 -0.555556,0.555556 M -70.625,-42.5 l 0,-0.555556"
           style="stroke:#a44646;stroke-width:0.25"
           id="path210"
           inkscape:connector-curvature="0" />
      </g>
      <path
         d="m -70,-35 0,-15 m -9.375,10 10.625,0 m -10.625,-5 10.625,0"
         style="stroke:#a44646;stroke-width:0.25"
         id="path212"
         inkscape:connector-curvature="0" />
    </g>
  </g>
</svg>
