<?xml version="1.0" encoding="UTF-8" standalone="no"?>
<!-- 2017-02-20 18:22:24 Generated by QCAD SVG Exporter -->

<svg
   xmlns:dc="http://purl.org/dc/elements/1.1/"
   xmlns:cc="http://creativecommons.org/ns#"
   xmlns:rdf="http://www.w3.org/1999/02/22-rdf-syntax-ns#"
   xmlns:svg="http://www.w3.org/2000/svg"
   xmlns="http://www.w3.org/2000/svg"
   xmlns:sodipodi="http://sodipodi.sourceforge.net/DTD/sodipodi-0.dtd"
   xmlns:inkscape="http://www.inkscape.org/namespaces/inkscape"
   width="435"
   height="253"
   viewBox="-73.53914983761925 -43.125 144.83568735999995 84.375"
   version="1.1"
   style="stroke-linecap:round;stroke-linejoin:round;fill:none"
   id="svg2"
   inkscape:version="0.91 r13725"
   sodipodi:docname="empennage.svg">
  <metadata
     id="metadata134">
    <rdf:RDF>
      <cc:Work
         rdf:about="">
        <dc:format>image/svg+xml</dc:format>
        <dc:type
           rdf:resource="http://purl.org/dc/dcmitype/StillImage" />
      </cc:Work>
    </rdf:RDF>
  </metadata>
  <defs
     id="defs132" />
  <sodipodi:namedview
     pagecolor="#ffffff"
     bordercolor="#666666"
     borderopacity="1"
     objecttolerance="10"
     gridtolerance="10"
     guidetolerance="10"
     inkscape:pageopacity="0"
     inkscape:pageshadow="2"
     inkscape:window-width="1004"
     inkscape:window-height="736"
     id="namedview130"
     showgrid="false"
     inkscape:zoom="2.1403564"
     inkscape:cx="72.417847"
     inkscape:cy="42.1875"
     inkscape:window-x="222"
     inkscape:window-y="0"
     inkscape:window-maximized="0"
     inkscape:current-layer="svg2" />
  <rect
     style="fill:#ffffff"
     id="rect3462"
     width="151.84387"
     height="92.507957"
     x="-75.407997"
     y="-46.118629" />
  <g
     transform="matrix(0.95814411,0,0,-0.9503007,-0.74771413,0.65426868)"
     id="g4">
    <!-- Line -->
    <path
       d="m 62.5,35 0,-50"
       style="stroke:#a44646;stroke-width:0.25"
       id="path6"
       inkscape:connector-curvature="0" />
    <!-- Line -->
    <path
       d="m 62.5,35 -125,0"
       style="stroke:#a44646;stroke-width:0.25"
       id="path8"
       inkscape:connector-curvature="0" />
    <!-- Line -->
    <path
       d="m -62.5,35 0,-50"
       style="stroke:#a44646;stroke-width:0.25"
       id="path10"
       inkscape:connector-curvature="0" />
    <!-- Line -->
    <path
       d="m -62.5,-15 60,-20"
       style="stroke:#a44646;stroke-width:0.25"
       id="path12"
       inkscape:connector-curvature="0" />
    <!-- Line -->
    <path
       d="m -2.5,-35 5,0"
       style="stroke:#a44646;stroke-width:0.25"
       id="path14"
       inkscape:connector-curvature="0" />
    <!-- Line -->
    <path
       d="m 2.5,-35 60,20"
       style="stroke:#a44646;stroke-width:0.25"
       id="path16"
       inkscape:connector-curvature="0" />
    <!-- Rotated Dimension -->
    <g
       id="g18">
      <path
         d="m 70,35 0.416285,-2.5 -0.83257,0 z"
         style="fill:#a44646;fill-rule:evenodd;stroke:#a44646;stroke-width:0.25"
         id="path20"
         inkscape:connector-curvature="0" />
      <path
         d="m 70,-15 -0.416285,2.5 0.83257,0 z"
         style="fill:#a44646;fill-rule:evenodd;stroke:#a44646;stroke-width:0.25"
         id="path22"
         inkscape:connector-curvature="0" />
      <g
         id="g24">
        <path
           d="m 66.875,9.5833333 0,-1.1111111 1.111111,0 0,0.5555556 m 0.555556,0.5555555 c -0.306825,0 -0.555556,-0.2487307 -0.555556,-0.5555555 m 0.555556,0.5555555 0.277777,0 M 69.375,9.0277778 c 0,0.3068248 -0.248731,0.5555555 -0.555556,0.5555555 M 69.375,9.0277778 l 0,-0.5555556"
           style="stroke:#a44646;stroke-width:0.25"
           id="path26"
           inkscape:connector-curvature="0" />
        <path
           d="m 67.013938,11.226842 -2.5e-5,2.7e-5 C 66.930332,11.172969 66.875,11.079057 66.875,10.972222 c 0,-0.106763 0.05526,-0.200621 0.138725,-0.254525 m -6.44e-4,2.71e-4 -7.2e-5,-4.5e-5 c 0.161123,-0.120731 0.350414,-0.205881 0.555831,-0.243743 m 1.111667,1.19e-4 2.41e-4,-1.95e-4 c 0.20609,0.03805 0.395242,0.123176 0.556224,0.243805 m -7.33e-4,-1.92e-4 2.6e-5,-2.7e-5 c 0.08348,0.05392 0.138735,0.147773 0.138735,0.254532 0,0.106764 -0.05526,0.200621 -0.138725,0.254525 m 6.44e-4,-3.82e-4 7.2e-5,4.6e-5 c -0.161123,0.12073 -0.350414,0.205881 -0.555831,0.243742 m 8e-5,-4.17e-4 0.0013,2.74e-4 c -0.177527,0.03791 -0.360909,0.05777 -0.54893,0.05777 -0.0029,0 -0.0058,-5e-6 -0.0086,-1.4e-5 m 4.92e-4,-2e-6 4.9e-5,0 c -0.0031,1.1e-5 -0.0061,1.6e-5 -0.0092,1.6e-5 -0.188135,0 -0.371626,-0.01989 -0.547715,-0.05751 m 5.9e-4,-2.78e-4 -2.41e-4,1.95e-4 C 67.363221,11.432157 67.17435,11.347206 67.01355,11.226844 m 1.110904,-0.810161 -4.9e-5,-1e-6 c 0.0031,-10e-6 0.0061,-1.5e-5 0.0092,-1.5e-5 0.188294,0 0.371934,0.01992 0.548162,0.0576 m -1.113013,4.38e-4 -0.0013,-2.74e-4 c 0.177527,-0.03791 0.360909,-0.05777 0.54893,-0.05777 0.0031,0 0.0061,5e-6 0.0091,1.5e-5"
           style="stroke:#a44646;stroke-width:0.25"
           id="path28"
           inkscape:connector-curvature="0" />
      </g>
      <path
         d="m 70,35 0,-50 m -6.875,50 8.125,0 m -8.125,-50 8.125,0"
         style="stroke:#a44646;stroke-width:0.25"
         id="path30"
         inkscape:connector-curvature="0" />
    </g>
    <!-- Rotated Dimension -->
    <g
       id="g32">
      <path
         d="m -2.5,-40 -2.5,-0.416285 0,0.83257 z"
         style="fill:#a44646;fill-rule:evenodd;stroke:#a44646;stroke-width:0.25"
         id="path34"
         inkscape:connector-curvature="0" />
      <path
         d="m -62.5,-40 2.5,0.416285 0,-0.83257 z"
         style="fill:#a44646;fill-rule:evenodd;stroke:#a44646;stroke-width:0.25"
         id="path36"
         inkscape:connector-curvature="0" />
      <g
         id="g38">
        <path
           d="m -33.194444,-36.875081 -2.02e-4,2.04e-4 c -0.498097,-0.288268 -0.833132,-0.826798 -0.833132,-1.443579 l 0,-0.501112 c 0,-0.306824 0.248731,-0.555555 0.555556,-0.555555 0.306825,0 0.555555,0.248731 0.555555,0.555555 l 0,0.277778 c 0,0.306825 -0.24873,0.555556 -0.555555,0.555556 l -0.522111,0"
           style="stroke:#a44646;stroke-width:0.25"
           id="path40"
           inkscape:connector-curvature="0" />
        <path
           d="m -31.273158,-37.014061 2.7e-5,2.5e-5 c -0.0539,0.08358 -0.147812,0.138913 -0.254647,0.138913 -0.106763,0 -0.200621,-0.05526 -0.254525,-0.138725 m 2.71e-4,6.44e-4 -4.5e-5,7.2e-5 c -0.120731,-0.161123 -0.205881,-0.350414 -0.243743,-0.555831 m 1.19e-4,-1.111667 -1.95e-4,-2.41e-4 c 0.03805,-0.20609 0.123176,-0.395242 0.243805,-0.556224 m -1.92e-4,7.32e-4 -2.7e-5,-2.5e-5 c 0.05392,-0.08348 0.147773,-0.138735 0.254532,-0.138735 0.106764,0 0.200621,0.05526 0.254525,0.138725 m -3.82e-4,-6.44e-4 4.6e-5,-7.2e-5 c 0.12073,0.161123 0.205881,0.350414 0.243742,0.555831 m -4.17e-4,-8e-5 2.74e-4,-0.0013 c 0.03791,0.177527 0.05777,0.360909 0.05777,0.54893 0,0.0029 -5e-6,0.0058 -1.4e-5,0.0086 m -2e-6,-4.92e-4 0,-4.9e-5 c 1.1e-5,0.0031 1.6e-5,0.0061 1.6e-5,0.0092 0,0.188135 -0.01989,0.371626 -0.05751,0.547715 m -2.78e-4,-5.9e-4 1.95e-4,2.41e-4 c -0.03803,0.205764 -0.122981,0.394635 -0.243343,0.555435 m -0.810161,-1.110904 -10e-7,4.9e-5 c -1e-5,-0.0031 -1.5e-5,-0.0061 -1.5e-5,-0.0092 0,-0.188294 0.01992,-0.371935 0.0576,-0.548162 m 4.38e-4,1.113013 -2.74e-4,0.0013 c -0.03791,-0.177527 -0.05777,-0.360909 -0.05777,-0.54893 0,-0.0031 5e-6,-0.0061 1.5e-5,-0.0091"
           style="stroke:#a44646;stroke-width:0.25"
           id="path42"
           inkscape:connector-curvature="0" />
      </g>
      <path
         d="m -2.5,-40 -60,0 m 60,4.375 0,-5.625 m -60,25.625 0,-25.625"
         style="stroke:#a44646;stroke-width:0.25"
         id="path44"
         inkscape:connector-curvature="0" />
    </g>
    <!-- Rotated Dimension -->
    <g
       id="g46">
      <path
         d="m 2.5,-39.901909 2.5,0.416285 0,-0.832569 z"
         style="fill:#a44646;fill-rule:evenodd;stroke:#a44646;stroke-width:0.25"
         id="path48"
         inkscape:connector-curvature="0" />
      <path
         d="m 62.5,-39.901909 -2.5,-0.416284 0,0.832569 z"
         style="fill:#a44646;fill-rule:evenodd;stroke:#a44646;stroke-width:0.25"
         id="path50"
         inkscape:connector-curvature="0" />
      <g
         id="g52">
        <path
           d="m 31.805556,-36.776989 -2.02e-4,2.04e-4 c -0.498097,-0.288269 -0.833132,-0.826799 -0.833132,-1.44358 l 0,-0.501111 c 0,-0.306825 0.248731,-0.555556 0.555556,-0.555556 0.306825,0 0.555555,0.248731 0.555555,0.555556 l 0,0.277778 c 0,0.306825 -0.24873,0.555555 -0.555555,0.555555 l -0.522111,0"
           style="stroke:#a44646;stroke-width:0.25"
           id="path54"
           inkscape:connector-curvature="0" />
        <path
           d="m 33.726842,-36.91597 2.7e-5,2.6e-5 c -0.0539,0.08358 -0.147812,0.138912 -0.254647,0.138912 -0.106763,0 -0.200621,-0.05526 -0.254525,-0.138724 m 2.71e-4,6.43e-4 -4.5e-5,7.2e-5 c -0.120731,-0.161123 -0.205881,-0.350413 -0.243743,-0.55583 m 1.19e-4,-1.111667 -1.95e-4,-2.41e-4 c 0.03805,-0.206091 0.123176,-0.395243 0.243805,-0.556224 m -1.92e-4,7.32e-4 -2.7e-5,-2.6e-5 c 0.05392,-0.08348 0.147773,-0.138735 0.254532,-0.138735 0.106764,0 0.200621,0.05526 0.254525,0.138725 m -3.82e-4,-6.43e-4 4.6e-5,-7.2e-5 c 0.12073,0.161123 0.205881,0.350413 0.243742,0.55583 m -4.17e-4,-7.9e-5 2.74e-4,-0.0013 c 0.0379,0.177528 0.05777,0.360909 0.05777,0.54893 0,0.0029 -5e-6,0.0058 -1.4e-5,0.0086 m -2e-6,-4.93e-4 0,-4.9e-5 c 1.1e-5,0.0031 1.6e-5,0.0061 1.6e-5,0.0092 0,0.188136 -0.01989,0.371626 -0.05751,0.547716 m -2.78e-4,-5.91e-4 1.95e-4,2.41e-4 c -0.03803,0.205764 -0.122981,0.394635 -0.243343,0.555436 m -0.810161,-1.110904 -10e-7,4.9e-5 c -1e-5,-0.0031 -1.5e-5,-0.0061 -1.5e-5,-0.0092 0,-0.188293 0.01992,-0.371934 0.0576,-0.548161 m 4.38e-4,1.113012 -2.74e-4,0.0013 c -0.03791,-0.177528 -0.05777,-0.36091 -0.05777,-0.548931 0,-0.0031 5e-6,-0.0061 1.5e-5,-0.0091"
           style="stroke:#a44646;stroke-width:0.25"
           id="path56"
           inkscape:connector-curvature="0" />
      </g>
      <path
         d="m 2.5,-39.901909 60,0 m -60,4.276909 0,-5.526909 m 60,25.526909 0,-25.526909"
         style="stroke:#a44646;stroke-width:0.25"
         id="path58"
         inkscape:connector-curvature="0" />
    </g>
    <!-- Rotated Dimension -->
    <g
       id="g60">
      <path
         d="m -62.5,40 2.5,0.416285 0,-0.83257 z"
         style="fill:#a44646;fill-rule:evenodd;stroke:#a44646;stroke-width:0.25"
         id="path62"
         inkscape:connector-curvature="0" />
      <path
         d="m 62.5,40 -2.5,-0.416285 0,0.83257 z"
         style="fill:#a44646;fill-rule:evenodd;stroke:#a44646;stroke-width:0.25"
         id="path64"
         inkscape:connector-curvature="0" />
      <g
         id="g66">
        <path
           d="m -2.2222222,42.569444 0.5555555,0.555556 0,-2.5"
           style="stroke:#a44646;stroke-width:0.25"
           id="path68"
           inkscape:connector-curvature="0" />
        <path
           d="m 0.27777778,40.625 -1.11111111,0 1.07361111,1.846389 m -2.0145e-4,-2.83e-4 2.477e-5,-4.8e-5 c 0.0239564,0.04107 0.0376767,0.08882 0.0376767,0.139775 0,0.03432 -0.006223,0.06718 -0.0175854,0.09748 m -6.187e-5,4.4e-5 1.0621e-4,1.26e-4 c -0.0618131,0.239611 -0.2792545,0.416517 -0.53801453,0.416517 -0.25874495,0 -0.4761761,-0.176885 -0.53792844,-0.416183"
           style="stroke:#a44646;stroke-width:0.25"
           id="path70"
           inkscape:connector-curvature="0" />
        <path
           d="m 2.2222222,43.125 -1.1111111,0 0,-1.111111 0.5555556,0 m 0.5555555,-0.555556 c 0,0.306825 -0.2487307,0.555556 -0.5555555,0.555556 m 0.5555555,-0.555556 0,-0.277777 M 1.6666667,40.625 c 0.3068248,0 0.5555555,0.248731 0.5555555,0.555556 M 1.6666667,40.625 l -0.5555556,0"
           style="stroke:#a44646;stroke-width:0.25"
           id="path72"
           inkscape:connector-curvature="0" />
      </g>
      <path
         d="m -62.5,40 125,0 m -125,-4.375 0,5.625 m 125,-5.625 0,5.625"
         style="stroke:#a44646;stroke-width:0.25"
         id="path74"
         inkscape:connector-curvature="0" />
    </g>
    <!-- Rotated Dimension -->
    <g
       id="g76">
      <path
         d="m 2.5,-40 2.5,0.416285 0,-0.83257 z"
         style="fill:#a44646;fill-rule:evenodd;stroke:#a44646;stroke-width:0.25"
         id="path78"
         inkscape:connector-curvature="0" />
      <path
         d="m -2.5,-40 -2.5,-0.416285 0,0.83257 z"
         style="fill:#a44646;fill-rule:evenodd;stroke:#a44646;stroke-width:0.25"
         id="path80"
         inkscape:connector-curvature="0" />
      <g
         id="g82">
        <path
           d="m 0.55555556,-36.875 -1.11111112,0 0,-1.111111 0.55555556,0 m 0.55555556,-0.555556 c 0,0.306825 -0.2487307,0.555556 -0.55555556,0.555556 m 0.55555556,-0.555556 0,-0.277777 M 0,-39.375 c 0.30682486,0 0.55555556,0.248731 0.55555556,0.555556 M 0,-39.375 l -0.55555556,0"
           style="stroke:#a44646;stroke-width:0.25"
           id="path84"
           inkscape:connector-curvature="0" />
      </g>
      <path
         d="m 7.5,-40 -15,0 m 10,4.375 0,-5.625 m -5,5.625 0,-5.625"
         style="stroke:#a44646;stroke-width:0.25"
         id="path86"
         inkscape:connector-curvature="0" />
    </g>
    <!-- Rotated Dimension -->
    <g
       id="g88">
      <path
         d="m 70.046538,-15 0.416284,-2.5 -0.832569,0 z"
         style="fill:#a44646;fill-rule:evenodd;stroke:#a44646;stroke-width:0.25"
         id="path90"
         inkscape:connector-curvature="0" />
      <path
         d="m 70.046538,-35 -0.416285,2.5 0.832569,0 z"
         style="fill:#a44646;fill-rule:evenodd;stroke:#a44646;stroke-width:0.25"
         id="path92"
         inkscape:connector-curvature="0" />
      <g
         id="g94">
        <path
           d="m 69.421538,-25.416667 0,-1.111111 -1.846389,1.073611 m 2.83e-4,-2.01e-4 4.7e-5,2.5e-5 c -0.04107,0.02396 -0.08882,0.03768 -0.139775,0.03768 -0.03432,0 -0.06718,-0.0062 -0.09748,-0.01759 m -4.4e-5,-6.2e-5 -1.27e-4,1.06e-4 c -0.23961,-0.06181 -0.416516,-0.279254 -0.416516,-0.538014 0,-0.258745 0.176885,-0.476176 0.416183,-0.537929"
           style="stroke:#a44646;stroke-width:0.25"
           id="path96"
           inkscape:connector-curvature="0" />
        <path
           d="m 67.060476,-23.773158 -2.6e-5,2.7e-5 c -0.08358,-0.0539 -0.138912,-0.147812 -0.138912,-0.254647 0,-0.106763 0.05526,-0.200621 0.138724,-0.254525 m -6.43e-4,2.71e-4 -7.2e-5,-4.5e-5 c 0.161123,-0.120731 0.350413,-0.205881 0.55583,-0.243743 m 1.111667,1.19e-4 2.41e-4,-1.95e-4 c 0.206091,0.03805 0.395243,0.123176 0.556224,0.243805 m -7.32e-4,-1.92e-4 2.5e-5,-2.7e-5 c 0.08348,0.05392 0.138736,0.147773 0.138736,0.254532 0,0.106764 -0.05526,0.200621 -0.138725,0.254525 m 6.43e-4,-3.82e-4 7.2e-5,4.6e-5 c -0.161123,0.12073 -0.350413,0.205881 -0.55583,0.243742 m 7.9e-5,-4.17e-4 0.0013,2.74e-4 c -0.177528,0.03791 -0.360909,0.05777 -0.54893,0.05777 -0.0029,0 -0.0058,-5e-6 -0.0086,-1.4e-5 m 4.93e-4,-2e-6 4.9e-5,0 c -0.0031,1.1e-5 -0.0061,1.6e-5 -0.0092,1.6e-5 -0.188135,0 -0.371626,-0.01989 -0.547715,-0.05751 m 5.91e-4,-2.78e-4 -2.41e-4,1.95e-4 c -0.205764,-0.03803 -0.394636,-0.122981 -0.555436,-0.243343 m 1.110904,-0.810161 -4.9e-5,-10e-7 c 0.0031,-1e-5 0.0061,-1.5e-5 0.0092,-1.5e-5 0.188293,0 0.371934,0.01992 0.548161,0.0576 m -1.113012,4.38e-4 -0.0013,-2.74e-4 c 0.177528,-0.0379 0.36091,-0.05777 0.54893,-0.05777 0.0031,0 0.0061,5e-6 0.0091,1.5e-5"
           style="stroke:#a44646;stroke-width:0.25"
           id="path98"
           inkscape:connector-curvature="0" />
      </g>
      <path
         d="m 70.046538,-15 0,-20 m -6.921538,20 8.171538,0 M 3.125,-35 l 68.171538,0"
         style="stroke:#a44646;stroke-width:0.25"
         id="path100"
         inkscape:connector-curvature="0" />
    </g>
    <!-- Rotated Dimension -->
    <g
       id="g102">
      <path
         d="m -70.41415,-35 -0.416284,2.5 0.832569,0 z"
         style="fill:#a44646;fill-rule:evenodd;stroke:#a44646;stroke-width:0.25"
         id="path104"
         inkscape:connector-curvature="0" />
      <path
         d="m -70.41415,-15 0.416285,-2.5 -0.832569,0 z"
         style="fill:#a44646;fill-rule:evenodd;stroke:#a44646;stroke-width:0.25"
         id="path106"
         inkscape:connector-curvature="0" />
      <g
         id="g108">
        <path
           d="m -71.03915,-25.416667 0,-1.111111 -1.846389,1.073611 m 2.84e-4,-2.01e-4 4.7e-5,2.5e-5 c -0.04107,0.02396 -0.08882,0.03768 -0.139775,0.03768 -0.03432,0 -0.06718,-0.0062 -0.09748,-0.01759 m -4.4e-5,-6.2e-5 -1.26e-4,1.06e-4 c -0.239611,-0.06181 -0.416517,-0.279254 -0.416517,-0.538014 0,-0.258745 0.176886,-0.476176 0.416183,-0.537929"
           style="stroke:#a44646;stroke-width:0.25"
           id="path110"
           inkscape:connector-curvature="0" />
        <path
           d="m -73.400212,-23.773158 -2.5e-5,2.7e-5 c -0.08358,-0.0539 -0.138913,-0.147812 -0.138913,-0.254647 0,-0.106763 0.05526,-0.200621 0.138725,-0.254525 m -6.44e-4,2.71e-4 -7.1e-5,-4.5e-5 c 0.161122,-0.120731 0.350413,-0.205881 0.55583,-0.243743 m 1.111667,1.19e-4 2.41e-4,-1.95e-4 c 0.20609,0.03805 0.395242,0.123176 0.556224,0.243805 m -7.32e-4,-1.92e-4 2.5e-5,-2.7e-5 c 0.08348,0.05392 0.138735,0.147773 0.138735,0.254532 0,0.106764 -0.05526,0.200621 -0.138725,0.254525 m 6.44e-4,-3.82e-4 7.2e-5,4.6e-5 c -0.161123,0.12073 -0.350414,0.205881 -0.55583,0.243742 m 7.9e-5,-4.17e-4 0.0013,2.74e-4 c -0.177527,0.03791 -0.360909,0.05777 -0.54893,0.05777 -0.0029,0 -0.0058,-5e-6 -0.0086,-1.4e-5 m 4.92e-4,-2e-6 4.9e-5,0 c -0.0031,1.1e-5 -0.0061,1.6e-5 -0.0092,1.6e-5 -0.188135,0 -0.371626,-0.01989 -0.547715,-0.05751 m 5.9e-4,-2.78e-4 -2.41e-4,1.95e-4 c -0.205764,-0.03803 -0.394635,-0.122981 -0.555435,-0.243343 m 1.110904,-0.810161 -4.9e-5,-10e-7 c 0.0031,-1e-5 0.0061,-1.5e-5 0.0092,-1.5e-5 0.188294,0 0.371935,0.01992 0.548162,0.0576 m -1.113012,4.38e-4 -0.0013,-2.74e-4 c 0.177527,-0.0379 0.360909,-0.05777 0.54893,-0.05777 0.0031,0 0.0061,5e-6 0.0091,1.5e-5"
           style="stroke:#a44646;stroke-width:0.25"
           id="path112"
           inkscape:connector-curvature="0" />
      </g>
      <path
         d="m -70.41415,-35 0,20 m 67.28915,-20 -68.53915,0 m 8.53915,20 -8.53915,0"
         style="stroke:#a44646;stroke-width:0.25"
         id="path114"
         inkscape:connector-curvature="0" />
    </g>
    <!-- Rotated Dimension -->
    <g
       id="g116">
      <path
         d="m -70.41415,35 0.416285,-2.5 -0.832569,0 z"
         style="fill:#a44646;fill-rule:evenodd;stroke:#a44646;stroke-width:0.25"
         id="path118"
         inkscape:connector-curvature="0" />
      <path
         d="m -70.41415,-15 -0.416284,2.5 0.832569,0 z"
         style="fill:#a44646;fill-rule:evenodd;stroke:#a44646;stroke-width:0.25"
         id="path120"
         inkscape:connector-curvature="0" />
      <g
         id="g122">
        <path
           d="m -73.53915,9.5833333 0,-1.1111111 1.111111,0 0,0.5555556 m 0.555556,0.5555555 c -0.306825,0 -0.555556,-0.2487307 -0.555556,-0.5555555 m 0.555556,0.5555555 0.277778,0 m 0.555555,-0.5555555 c 0,0.3068248 -0.248731,0.5555555 -0.555555,0.5555555 m 0.555555,-0.5555555 0,-0.5555556"
           style="stroke:#a44646;stroke-width:0.25"
           id="path124"
           inkscape:connector-curvature="0" />
        <path
           d="m -73.400212,11.226842 -2.5e-5,2.7e-5 c -0.08358,-0.0539 -0.138913,-0.147812 -0.138913,-0.254647 0,-0.106763 0.05526,-0.200621 0.138725,-0.254525 m -6.44e-4,2.71e-4 -7.1e-5,-4.5e-5 c 0.161122,-0.120731 0.350413,-0.205881 0.55583,-0.243743 m 1.111667,1.19e-4 2.41e-4,-1.95e-4 c 0.20609,0.03805 0.395242,0.123176 0.556224,0.243805 m -7.32e-4,-1.92e-4 2.5e-5,-2.7e-5 c 0.08348,0.05392 0.138735,0.147773 0.138735,0.254532 0,0.106764 -0.05526,0.200621 -0.138725,0.254525 m 6.44e-4,-3.82e-4 7.2e-5,4.6e-5 c -0.161123,0.12073 -0.350414,0.205881 -0.55583,0.243742 m 7.9e-5,-4.17e-4 0.0013,2.74e-4 c -0.177527,0.03791 -0.360909,0.05777 -0.54893,0.05777 -0.0029,0 -0.0058,-5e-6 -0.0086,-1.4e-5 m 4.92e-4,-2e-6 4.9e-5,0 c -0.0031,1.1e-5 -0.0061,1.6e-5 -0.0092,1.6e-5 -0.188135,0 -0.371626,-0.01989 -0.547715,-0.05751 m 5.9e-4,-2.78e-4 -2.41e-4,1.95e-4 c -0.205764,-0.03803 -0.394635,-0.122981 -0.555435,-0.243343 m 1.110904,-0.810161 -4.9e-5,-1e-6 c 0.0031,-10e-6 0.0061,-1.5e-5 0.0092,-1.5e-5 0.188294,0 0.371935,0.01992 0.548162,0.0576 m -1.113012,4.38e-4 -0.0013,-2.74e-4 c 0.177527,-0.03791 0.360909,-0.05777 0.54893,-0.05777 0.0031,0 0.0061,5e-6 0.0091,1.5e-5"
           style="stroke:#a44646;stroke-width:0.25"
           id="path126"
           inkscape:connector-curvature="0" />
      </g>
      <path
         d="m -70.41415,35 0,-50 m 7.28915,50 -8.53915,0 m 8.53915,-50 -8.53915,0"
         style="stroke:#a44646;stroke-width:0.25"
         id="path128"
         inkscape:connector-curvature="0" />
    </g>
  </g>
</svg>