<?xml version="1.0" encoding="UTF-8" standalone="no"?>
<!-- 2017-02-20 18:18:33 Generated by QCAD SVG Exporter -->

<svg
   xmlns:dc="http://purl.org/dc/elements/1.1/"
   xmlns:cc="http://creativecommons.org/ns#"
   xmlns:rdf="http://www.w3.org/1999/02/22-rdf-syntax-ns#"
   xmlns:svg="http://www.w3.org/2000/svg"
   xmlns="http://www.w3.org/2000/svg"
   xmlns:sodipodi="http://sodipodi.sourceforge.net/DTD/sodipodi-0.dtd"
   xmlns:inkscape="http://www.inkscape.org/namespaces/inkscape"
   width="933.75"
   height="257.6"
   viewBox="-150 -48.379940502624166 311.25 85.87994050262417"
   version="1.1"
   style="stroke-linecap:round;stroke-linejoin:round;fill:none"
   id="svg2"
   inkscape:version="0.91 r13725"
   sodipodi:docname="wing.svg">
  <metadata
     id="metadata48">
    <rdf:RDF>
      <cc:Work
         rdf:about="">
        <dc:format>image/svg+xml</dc:format>
        <dc:type
           rdf:resource="http://purl.org/dc/dcmitype/StillImage" />
      </cc:Work>
    </rdf:RDF>
  </metadata>
  <defs
     id="defs46" />
  <sodipodi:namedview
     pagecolor="#ffffff"
     bordercolor="#666666"
     borderopacity="1"
     objecttolerance="10"
     gridtolerance="10"
     guidetolerance="10"
     inkscape:pageopacity="0"
     inkscape:pageshadow="2"
     inkscape:window-width="939"
     inkscape:window-height="727"
     id="namedview44"
     showgrid="false"
     showguides="true"
     inkscape:guide-bbox="true"
     inkscape:zoom="2.5713992"
     inkscape:cx="155.62677"
     inkscape:cy="42.941769"
     inkscape:window-x="267"
     inkscape:window-y="8"
     inkscape:window-maximized="0"
     inkscape:current-layer="svg2">
    <sodipodi:guide
       position="14.389053,31.889252"
       orientation="1,0"
       id="guide3376" />
  </sodipodi:namedview>
  <rect
     style="fill:#ffffff"
     id="rect3378"
     width="313.05914"
     height="91.778824"
     x="-150"
     y="-49.223209" />
  <g
     transform="matrix(0.96257428,0,0,-0.89605689,0.98830638,0.0179844)"
     id="g4">
    <!-- Line -->
    <path
       d="m -150,37.5 300,0"
       style="stroke:#a44646;stroke-width:0.25"
       id="path6"
       inkscape:connector-curvature="0" />
    <!-- Line -->
    <path
       d="m -150,37.5 0,-75"
       style="stroke:#a44646;stroke-width:0.25"
       id="path8"
       inkscape:connector-curvature="0" />
    <!-- Line -->
    <path
       d="m 150,37.5 0,-75"
       style="stroke:#a44646;stroke-width:0.25"
       id="path10"
       inkscape:connector-curvature="0" />
    <!-- Line -->
    <path
       d="m -150,-37.5 300,0"
       style="stroke:#a44646;stroke-width:0.25"
       id="path12"
       inkscape:connector-curvature="0" />
    <!-- Rotated Dimension -->
    <g
       id="g14">
      <path
         d="m -150,45.254941 2.5,0.416284 0,-0.832569 z"
         style="fill:#a44646;fill-rule:evenodd;stroke:#a44646;stroke-width:0.25"
         id="path16"
         inkscape:connector-curvature="0" />
      <path
         d="m 150,45.254941 -2.5,-0.416285 0,0.832569 z"
         style="fill:#a44646;fill-rule:evenodd;stroke:#a44646;stroke-width:0.25"
         id="path18"
         inkscape:connector-curvature="0" />
      <g
         id="g20">
        <path
           d="m -2.5,48.379941 0.5555556,0 m 0,-1.111112 c 0.3068248,0 0.5555555,0.248731 0.5555555,0.555556 0,0.306825 -0.2487307,0.555556 -0.5555555,0.555556 m 0,-1.111112 -0.2777778,0 m 0.8333333,-0.555555 c 0,0.306825 -0.2487307,0.555555 -0.5555555,0.555555 m 0.5555555,-0.555555 0,-0.277778 m -0.5555555,-0.555555 c 0.3068248,0 0.5555555,0.24873 0.5555555,0.555555 m -0.5555555,-0.555555 -0.5555556,0"
           style="stroke:#a44646;stroke-width:0.25"
           id="path22"
           inkscape:connector-curvature="0" />
        <path
           d="m 0.25461933,48.241002 2.701e-5,2.6e-5 C 0.20074632,48.324608 0.10683493,48.379941 0,48.379941 c -0.10676366,0 -0.20062102,-0.05526 -0.25452511,-0.138725 m 2.7095e-4,6.43e-4 -4.536e-5,7.2e-5 c -0.12073035,-0.161123 -0.20588111,-0.350413 -0.24374277,-0.55583 m 1.1921e-4,-1.111667 -1.9535e-4,-2.41e-4 c 0.0380531,-0.206091 0.12317591,-0.395243 0.24380475,-0.556224 m -1.9121e-4,7.32e-4 -2.687e-5,-2.5e-5 C -0.20061331,45.935194 -0.10675928,45.879941 0,45.879941 c 0.10676366,0 0.20062102,0.05526 0.25452511,0.138724 m -3.8206e-4,-6.43e-4 4.536e-5,-7.2e-5 c 0.12073035,0.161123 0.20588111,0.350413 0.24374277,0.55583 m -4.1692e-4,-7.9e-5 2.7364e-4,-0.0013 c 0.0379053,0.177528 0.0577677,0.36091 0.0577677,0.54893 0,0.0029 -4.67e-6,0.0058 -1.384e-5,0.0086 m -2.08e-6,-4.93e-4 1.7e-7,-4.9e-5 c 1.055e-5,0.0031 1.575e-5,0.0061 1.575e-5,0.0092 0,0.188135 -0.0198866,0.371626 -0.0575082,0.547715 m -2.7788e-4,-5.91e-4 1.9554e-4,2.41e-4 c -0.0380301,0.205764 -0.12298137,0.394636 -0.2433435,0.555436 m -0.81016117,-1.110904 -1.7e-7,4.9e-5 c -1.055e-5,-0.0031 -1.575e-5,-0.0061 -1.575e-5,-0.0092 0,-0.188293 0.01992,-0.371934 0.0576034,-0.548161 m 4.3789e-4,1.113012 -2.7364e-4,0.0013 c -0.0379053,-0.177528 -0.0577677,-0.360909 -0.0577677,-0.54893 0,-0.0031 5.26e-6,-0.0061 1.558e-5,-0.0091"
           style="stroke:#a44646;stroke-width:0.25"
           id="path24"
           inkscape:connector-curvature="0" />
        <path
           d="m 2.1990638,48.241002 2.7e-5,2.6e-5 c -0.0539,0.08358 -0.1478114,0.138913 -0.2546464,0.138913 -0.1067636,0 -0.200621,-0.05526 -0.2545251,-0.138725 m 2.71e-4,6.43e-4 -4.54e-5,7.2e-5 C 1.5694146,48.080808 1.4842638,47.891518 1.4464022,47.686101 m 1.192e-4,-1.111667 -1.954e-4,-2.41e-4 C 1.484379,46.368102 1.5695019,46.17895 1.6901308,46.017969 m -1.912e-4,7.32e-4 -2.69e-5,-2.5e-5 c 0.053918,-0.08348 0.1477725,-0.138735 0.2545317,-0.138735 0.1067637,0 0.2006211,0.05526 0.2545252,0.138724 m -3.821e-4,-6.43e-4 4.54e-5,-7.2e-5 c 0.1207303,0.161123 0.2058811,0.350413 0.2437427,0.55583 m -4.169e-4,-7.9e-5 2.736e-4,-0.0013 C 2.4801376,46.749927 2.5,46.933309 2.5,47.121329 c 0,0.0029 -4.7e-6,0.0058 -1.38e-5,0.0086 m -2.1e-6,-4.93e-4 2e-7,-4.9e-5 c 1.05e-5,0.0031 1.57e-5,0.0061 1.57e-5,0.0092 0,0.188135 -0.019887,0.371626 -0.057508,0.547715 m -2.779e-4,-5.91e-4 1.956e-4,2.41e-4 c -0.03803,0.205764 -0.1229814,0.394636 -0.2433435,0.555436 m -0.8101612,-1.110904 -2e-7,4.9e-5 c -1.05e-5,-0.0031 -1.57e-5,-0.0061 -1.57e-5,-0.0092 0,-0.188293 0.01992,-0.371934 0.057603,-0.548161 m 4.379e-4,1.113012 -2.737e-4,0.0013 c -0.037905,-0.177528 -0.057768,-0.360909 -0.057768,-0.54893 0,-0.0031 5.2e-6,-0.0061 1.56e-5,-0.0091"
           style="stroke:#a44646;stroke-width:0.25"
           id="path26"
           inkscape:connector-curvature="0" />
      </g>
      <path
         d="m -150,45.254941 300,0 M -150,38.125 l 0,8.379941 M 150,38.125 l 0,8.379941"
         style="stroke:#a44646;stroke-width:0.25"
         id="path28"
         inkscape:connector-curvature="0" />
    </g>
    <!-- Rotated Dimension -->
    <g
       id="g30">
      <path
         d="m 160,37.5 0.41628,-2.5 -0.83256,0 z"
         style="fill:#a44646;fill-rule:evenodd;stroke:#a44646;stroke-width:0.25"
         id="path32"
         inkscape:connector-curvature="0" />
      <path
         d="m 160,-37.5 -0.41628,2.5 0.83256,0 z"
         style="fill:#a44646;fill-rule:evenodd;stroke:#a44646;stroke-width:0.25"
         id="path34"
         inkscape:connector-curvature="0" />
      <g
         id="g36">
        <path
           d="m 156.875,-1.5277778 0,1.11111113 2.5,-0.69444443 m -1.38889,0.13888888 0,0.55555555"
           style="stroke:#a44646;stroke-width:0.25"
           id="path38"
           inkscape:connector-curvature="0" />
        <path
           d="m 156.875,1.5277778 0,-1.11111113 1.11111,0 0,0.55555555 m 0.55556,0.55555558 c -0.30683,0 -0.55556,-0.2487307 -0.55556,-0.55555558 m 0.55556,0.55555558 0.27777,0 M 159.375,0.97222222 c 0,0.30682488 -0.24873,0.55555558 -0.55556,0.55555558 m 0.55556,-0.55555558 0,-0.55555555"
           style="stroke:#a44646;stroke-width:0.25"
           id="path40"
           inkscape:connector-curvature="0" />
      </g>
      <path
         d="m 160,37.5 0,-75 m -9.375,75 10.625,0 m -10.625,-75 10.625,0"
         style="stroke:#a44646;stroke-width:0.25"
         id="path42"
         inkscape:connector-curvature="0" />
    </g>
  </g>
</svg>
