solid empennage.stl
 facet normal 0.0 1.0 0.0
  outer loop
   vertex 115.0 5.0 5.0
   vertex 165.0 5.0 65.0
   vertex 185.0 5.0 5.0
  endloop
 endfacet
 facet normal 0.0 1.0 0.0
  outer loop
   vertex 165.0 5.0 65.0
   vertex 115.0 5.0 5.0
   vertex 115.0 5.0 65.0
  endloop
 endfacet
 facet normal 0.0 -1.0 0.0
  outer loop
   vertex 185.0 0.0 5.0
   vertex 115.0 0.0 0.0
   vertex 185.0 0.0 0.0
  endloop
 endfacet
 facet normal 0.0 -1.0 0.0
  outer loop
   vertex 115.0 0.0 0.0
   vertex 185.0 0.0 5.0
   vertex 115.0 0.0 5.0
  endloop
 endfacet
 facet normal 0.0 -1.0 0.0
  outer loop
   vertex 185.0 0.0 0.0
   vertex 115.0 0.0 -60.0
   vertex 165.0 0.0 -60.0
  endloop
 endfacet
 facet normal 0.0 -1.0 0.0
  outer loop
   vertex 115.0 0.0 -60.0
   vertex 185.0 0.0 0.0
   vertex 115.0 0.0 0.0
  endloop
 endfacet
 facet normal 0.9487 0.0 -0.3162
  outer loop
   vertex 165.0 5.0 -60.0
   vertex 185.0 0.0 0.0
   vertex 165.0 0.0 -60.0
  endloop
 endfacet
 facet normal 0.9487 0.0 -0.3162
  outer loop
   vertex 185.0 0.0 0.0
   vertex 165.0 5.0 -60.0
   vertex 185.0 5.0 0.0
  endloop
 endfacet
 facet normal 0.9487 0.0 0.3162
  outer loop
   vertex 185.0 5.0 5.0
   vertex 165.0 0.0 65.0
   vertex 185.0 0.0 5.0
  endloop
 endfacet
 facet normal 0.9487 0.0 0.3162
  outer loop
   vertex 165.0 0.0 65.0
   vertex 185.0 5.0 5.0
   vertex 165.0 5.0 65.0
  endloop
 endfacet
 facet normal -1.0 0.0 0.0
  outer loop
   vertex 115.0 5.0 65.0
   vertex 115.0 0.0 5.0
   vertex 115.0 0.0 65.0
  endloop
 endfacet
 facet normal -1.0 0.0 0.0
  outer loop
   vertex 115.0 0.0 5.0
   vertex 115.0 5.0 65.0
   vertex 115.0 0.0 0.0
  endloop
 endfacet
 facet normal -1.0 0.0 0.0
  outer loop
   vertex 115.0 0.0 0.0
   vertex 115.0 5.0 65.0
   vertex 115.0 0.0 -60.0
  endloop
 endfacet
 facet normal -1.0 0.0 0.0
  outer loop
   vertex 115.0 0.0 -60.0
   vertex 115.0 5.0 65.0
   vertex 115.0 5.0 -60.0
  endloop
 endfacet
 facet normal -1.0 0.0 0.0
  outer loop
   vertex 115.0 5.0 -60.0
   vertex 115.0 5.0 65.0
   vertex 115.0 5.0 5.0
  endloop
 endfacet
 facet normal -1.0 0.0 0.0
  outer loop
   vertex 115.0 5.0 -60.0
   vertex 115.0 5.0 5.0
   vertex 115.0 5.0 0.0
  endloop
 endfacet
 facet normal 0.0 1.0 0.0
  outer loop
   vertex 115.0 5.0 5.0
   vertex 185.0 5.0 0.0
   vertex 115.0 5.0 0.0
  endloop
 endfacet
 facet normal 0.0 1.0 0.0
  outer loop
   vertex 185.0 5.0 0.0
   vertex 115.0 5.0 5.0
   vertex 185.0 5.0 5.0
  endloop
 endfacet
 facet normal 0.0 0.0 -1.0
  outer loop
   vertex 165.0 5.0 -60.0
   vertex 115.0 0.0 -60.0
   vertex 115.0 5.0 -60.0
  endloop
 endfacet
 facet normal 0.0 0.0 -1.0
  outer loop
   vertex 115.0 0.0 -60.0
   vertex 165.0 5.0 -60.0
   vertex 165.0 0.0 -60.0
  endloop
 endfacet
 facet normal 0.0 1.0 0.0
  outer loop
   vertex 115.0 5.0 0.0
   vertex 165.0 5.0 -60.0
   vertex 115.0 5.0 -60.0
  endloop
 endfacet
 facet normal 0.0 1.0 0.0
  outer loop
   vertex 165.0 5.0 -60.0
   vertex 115.0 5.0 0.0
   vertex 185.0 5.0 0.0
  endloop
 endfacet
 facet normal 0.0 -1.0 0.0
  outer loop
   vertex 165.0 0.0 65.0
   vertex 115.0 0.0 5.0
   vertex 185.0 0.0 5.0
  endloop
 endfacet
 facet normal 0.0 -1.0 0.0
  outer loop
   vertex 115.0 0.0 5.0
   vertex 165.0 0.0 65.0
   vertex 115.0 0.0 65.0
  endloop
 endfacet
 facet normal 0.0 0.0 1.0
  outer loop
   vertex 165.0 0.0 65.0
   vertex 115.0 5.0 65.0
   vertex 115.0 0.0 65.0
  endloop
 endfacet
 facet normal 0.0 0.0 1.0
  outer loop
   vertex 115.0 5.0 65.0
   vertex 165.0 0.0 65.0
   vertex 165.0 5.0 65.0
  endloop
 endfacet
 facet normal 1.0 0.0 0.0
  outer loop
   vertex 185.0 5.0 0.0
   vertex 185.0 0.0 5.0
   vertex 185.0 0.0 0.0
  endloop
 endfacet
 facet normal 1.0 0.0 0.0
  outer loop
   vertex 185.0 0.0 5.0
   vertex 185.0 5.0 0.0
   vertex 185.0 5.0 5.0
  endloop
 endfacet
endsolid empennage.stl
