solid headStrengthen.stl
 facet normal -0.0133 0.9999 0.0
  outer loop
   vertex 80.0 41.0 2.5
   vertex 155.0 42.0 -2.5
   vertex 80.0 41.0 -2.5
  endloop
 endfacet
 facet normal -0.0133 0.9999 0.0
  outer loop
   vertex 155.0 42.0 -2.5
   vertex 80.0 41.0 2.5
   vertex 155.0 42.0 2.5
  endloop
 endfacet
 facet normal 0.0 -1.0 0.0
  outer loop
   vertex 220.0 0.0 2.5
   vertex 150.0 0.0 -2.5
   vertex 220.0 0.0 -2.5
  endloop
 endfacet
 facet normal 0.0 -1.0 0.0
  outer loop
   vertex 150.0 0.0 -2.5
   vertex 220.0 0.0 2.5
   vertex 150.0 0.0 2.5
  endloop
 endfacet
 facet normal 1.0 0.0 0.0
  outer loop
   vertex 220.0 45.0 -2.5
   vertex 220.0 0.0 2.5
   vertex 220.0 0.0 -2.5
  endloop
 endfacet
 facet normal 1.0 0.0 0.0
  outer loop
   vertex 220.0 0.0 2.5
   vertex 220.0 45.0 -2.5
   vertex 220.0 45.0 2.5
  endloop
 endfacet
 facet normal 0.0 -1.0 0.0
  outer loop
   vertex 150.0 0.0 2.5
   vertex 80.0 0.0 -2.5
   vertex 150.0 0.0 -2.5
  endloop
 endfacet
 facet normal 0.0 -1.0 0.0
  outer loop
   vertex 80.0 0.0 -2.5
   vertex 150.0 0.0 2.5
   vertex 80.0 0.0 2.5
  endloop
 endfacet
 facet normal -1.0 0.0 0.0
  outer loop
   vertex 80.0 41.0 2.5
   vertex 80.0 0.0 -2.5
   vertex 80.0 0.0 2.5
  endloop
 endfacet
 facet normal -1.0 0.0 0.0
  outer loop
   vertex 80.0 0.0 -2.5
   vertex 80.0 41.0 2.5
   vertex 80.0 41.0 -2.5
  endloop
 endfacet
 facet normal 0.0 1.0 0.0
  outer loop
   vertex 155.0 45.0 2.5
   vertex 220.0 45.0 -2.5
   vertex 155.0 45.0 -2.5
  endloop
 endfacet
 facet normal 0.0 1.0 0.0
  outer loop
   vertex 220.0 45.0 -2.5
   vertex 155.0 45.0 2.5
   vertex 220.0 45.0 2.5
  endloop
 endfacet
 facet normal 0.0 0.0 -1.0
  outer loop
   vertex 220.0 45.0 -2.5
   vertex 155.0 42.0 -2.5
   vertex 155.0 45.0 -2.5
  endloop
 endfacet
 facet normal 0.0 0.0 -1.0
  outer loop
   vertex 80.0 41.0 -2.5
   vertex 150.0 0.0 -2.5
   vertex 80.0 0.0 -2.5
  endloop
 endfacet
 facet normal 0.0 0.0 -1.0
  outer loop
   vertex 150.0 0.0 -2.5
   vertex 80.0 41.0 -2.5
   vertex 155.0 42.0 -2.5
  endloop
 endfacet
 facet normal 0.0 0.0 -1.0
  outer loop
   vertex 150.0 0.0 -2.5
   vertex 155.0 42.0 -2.5
   vertex 220.0 0.0 -2.5
  endloop
 endfacet
 facet normal 0.0 0.0 -1.0
  outer loop
   vertex 220.0 0.0 -2.5
   vertex 155.0 42.0 -2.5
   vertex 220.0 45.0 -2.5
  endloop
 endfacet
 facet normal -1.0 0.0 0.0
  outer loop
   vertex 155.0 45.0 2.5
   vertex 155.0 42.0 -2.5
   vertex 155.0 42.0 2.5
  endloop
 endfacet
 facet normal -1.0 0.0 0.0
  outer loop
   vertex 155.0 42.0 -2.5
   vertex 155.0 45.0 2.5
   vertex 155.0 45.0 -2.5
  endloop
 endfacet
 facet normal 0.0 0.0 1.0
  outer loop
   vertex 150.0 0.0 2.5
   vertex 80.0 41.0 2.5
   vertex 80.0 0.0 2.5
  endloop
 endfacet
 facet normal 0.0 0.0 1.0
  outer loop
   vertex 80.0 41.0 2.5
   vertex 150.0 0.0 2.5
   vertex 155.0 42.0 2.5
  endloop
 endfacet
 facet normal 0.0 0.0 1.0
  outer loop
   vertex 155.0 42.0 2.5
   vertex 150.0 0.0 2.5
   vertex 220.0 0.0 2.5
  endloop
 endfacet
 facet normal 0.0 0.0 1.0
  outer loop
   vertex 155.0 42.0 2.5
   vertex 220.0 0.0 2.5
   vertex 155.0 45.0 2.5
  endloop
 endfacet
 facet normal 0.0 0.0 1.0
  outer loop
   vertex 155.0 45.0 2.5
   vertex 220.0 0.0 2.5
   vertex 220.0 45.0 2.5
  endloop
 endfacet
endsolid headStrengthen.stl
